<?xml version="1.0" encoding="UTF-8" standalone="no"?>
<!-- Created with Inkscape (http://www.inkscape.org/) -->

<svg
   width="167.74162mm"
   height="25.167614mm"
   viewBox="0 0 167.74163 25.167615"
   version="1.1"
   id="svg5"
   sodipodi:docname="AprimedotA.svg"
   inkscape:version="1.2 (dc2aedaf03, 2022-05-15)"
   xmlns:inkscape="http://www.inkscape.org/namespaces/inkscape"
   xmlns:sodipodi="http://sodipodi.sourceforge.net/DTD/sodipodi-0.dtd"
   xmlns="http://www.w3.org/2000/svg"
   xmlns:svg="http://www.w3.org/2000/svg"
   xmlns:ns13="http://www.iki.fi/pav/software/textext/">
  <sodipodi:namedview
     id="namedview7"
     pagecolor="#ffffff"
     bordercolor="#999999"
     borderopacity="1"
     inkscape:showpageshadow="0"
     inkscape:pageopacity="0"
     inkscape:pagecheckerboard="0"
     inkscape:deskcolor="#d1d1d1"
     inkscape:document-units="mm"
     showgrid="false"
     inkscape:zoom="1.4142136"
     inkscape:cx="196.22213"
     inkscape:cy="-77.07464"
     inkscape:window-width="1920"
     inkscape:window-height="1017"
     inkscape:window-x="1358"
     inkscape:window-y="-8"
     inkscape:window-maximized="1"
     inkscape:current-layer="layer1" />
  <defs
     id="defs2">
    <marker
       style="overflow:visible"
       id="marker13611"
       refX="0"
       refY="0"
       orient="auto-start-reverse"
       inkscape:stockid="Arrow2"
       markerWidth="7.6999998"
       markerHeight="5.5999999"
       viewBox="0 0 7.7 5.6"
       inkscape:isstock="true"
       inkscape:collect="always"
       preserveAspectRatio="xMidYMid">
      <path
         transform="scale(0.7)"
         d="M -2,-4 9,0 -2,4 c 2,-2.33 2,-5.66 0,-8 z"
         style="fill:context-stroke;fill-rule:evenodd;stroke:none"
         id="path13609" />
    </marker>
    <inkscape:path-effect
       effect="bspline"
       id="path-effect13595"
       is_visible="true"
       lpeversion="1"
       weight="33.333333"
       steps="2"
       helper_size="0"
       apply_no_weight="true"
       apply_with_weight="true"
       only_selected="false" />
    <marker
       style="overflow:visible"
       id="Arrow2"
       refX="0"
       refY="0"
       orient="auto-start-reverse"
       inkscape:stockid="Arrow2"
       markerWidth="7.6999998"
       markerHeight="5.5999999"
       viewBox="0 0 7.7 5.6"
       inkscape:isstock="true"
       inkscape:collect="always"
       preserveAspectRatio="xMidYMid">
      <path
         transform="scale(0.7)"
         d="M -2,-4 9,0 -2,4 c 2,-2.33 2,-5.66 0,-8 z"
         style="fill:context-stroke;fill-rule:evenodd;stroke:none"
         id="arrow2L" />
    </marker>
    <inkscape:path-effect
       effect="bspline"
       id="path-effect5151"
       is_visible="true"
       lpeversion="1"
       weight="33.333333"
       steps="2"
       helper_size="0"
       apply_no_weight="true"
       apply_with_weight="true"
       only_selected="false" />
    <inkscape:path-effect
       effect="bspline"
       id="path-effect1540"
       is_visible="true"
       lpeversion="1"
       weight="33.333333"
       steps="2"
       helper_size="0"
       apply_no_weight="true"
       apply_with_weight="true"
       only_selected="false" />
    <inkscape:path-effect
       effect="bspline"
       id="path-effect1472"
       is_visible="true"
       lpeversion="1"
       weight="33.333333"
       steps="2"
       helper_size="0"
       apply_no_weight="true"
       apply_with_weight="true"
       only_selected="false" />
    <inkscape:path-effect
       effect="bspline"
       id="path-effect1147"
       is_visible="true"
       lpeversion="1"
       weight="33.333333"
       steps="2"
       helper_size="0"
       apply_no_weight="true"
       apply_with_weight="true"
       only_selected="false" />
    <inkscape:path-effect
       effect="bspline"
       id="path-effect1147-4"
       is_visible="true"
       lpeversion="1"
       weight="33.333333"
       steps="2"
       helper_size="0"
       apply_no_weight="true"
       apply_with_weight="true"
       only_selected="false" />
    <inkscape:path-effect
       effect="bspline"
       id="path-effect5151-0"
       is_visible="true"
       lpeversion="1"
       weight="33.333333"
       steps="2"
       helper_size="0"
       apply_no_weight="true"
       apply_with_weight="true"
       only_selected="false" />
    <g
       id="id-8316d983-0d17-4e33-9c15-a307efe88418-8">
      <g
         id="id-b15a7985-2bd5-4f2e-9500-f8b44c52a5c8-1" />
      <g
         id="id-8f8dd70f-46ee-4eb6-95a5-de7062342bd8-4">
        <path
           d="M 1.78125,-1.140625 C 1.390625,-0.484375 1,-0.34375 0.5625,-0.3125 0.4375,-0.296875 0.34375,-0.296875 0.34375,-0.109375 0.34375,-0.046875 0.40625,0 0.484375,0 0.75,0 1.0625,-0.03125 1.328125,-0.03125 c 0.34375,0 0.6875,0.03125 1,0.03125 0.0625,0 0.1875,0 0.1875,-0.1875 0,-0.109375 -0.078125,-0.125 -0.15625,-0.125 -0.21875,-0.015625 -0.46875,-0.09375 -0.46875,-0.34375 0,-0.125 0.0625,-0.234375 0.140625,-0.375 l 0.765625,-1.265625 h 2.5 c 0.015625,0.203125 0.15625,1.5625 0.15625,1.65625 0,0.296875 -0.515625,0.328125 -0.71875,0.328125 C 4.59375,-0.3125 4.5,-0.3125 4.5,-0.109375 4.5,0 4.609375,0 4.640625,0 5.046875,0 5.46875,-0.03125 5.875,-0.03125 6.125,-0.03125 6.765625,0 7.015625,0 7.0625,0 7.1875,0 7.1875,-0.203125 7.1875,-0.3125 7.09375,-0.3125 6.953125,-0.3125 6.34375,-0.3125 6.34375,-0.375 6.3125,-0.671875 l -0.609375,-6.21875 c -0.015625,-0.203125 -0.015625,-0.25 -0.1875,-0.25 -0.15625,0 -0.203125,0.078125 -0.265625,0.171875 z M 2.984375,-2.609375 4.9375,-5.90625 5.265625,-2.609375 Z m 0,0"
           id="id-56354244-1d22-4c5f-a2c7-97aa0a0c7158-2" />
      </g>
      <g
         id="id-74761114-371d-468f-8902-7d97bd728f83-6" />
      <g
         id="id-0aa5e820-fc19-4771-b67d-0c84b3319b10-5">
        <path
           d="m 2.015625,-3.296875 c 0.0625,-0.109375 0.0625,-0.171875 0.0625,-0.21875 0,-0.21875 -0.1875,-0.375 -0.40625,-0.375 -0.265625,0 -0.34375,0.21875 -0.375,0.328125 L 0.375,-0.546875 c -0.015625,0.015625 -0.046875,0.09375 -0.046875,0.109375 0,0.078125 0.21875,0.15625 0.28125,0.15625 0.046875,0 0.046875,-0.015625 0.09375,-0.125 z m 0,0"
           id="id-981fc66d-dc16-416d-b364-4af6d7fc5f59-2" />
      </g>
      <g
         id="id-6c8b4ca2-226a-4d34-a4e2-108c14dae8d8-1">
        <path
           d="m 5.1875,-1.578125 c 0.109375,0 0.28125,0 0.28125,-0.15625 0,-0.1875 -0.171875,-0.1875 -0.28125,-0.1875 H 1.03125 c -0.109375,0 -0.28125,0 -0.28125,0.171875 0,0.171875 0.15625,0.171875 0.28125,0.171875 z m 0,0"
           id="id-5bd53251-424a-4841-b6ac-1dde5e667bd7-2" />
      </g>
      <g
         id="id-34d8ce0d-b9bf-493e-a674-37a850b7b6e3-9" />
      <g
         id="id-61eac002-f6a6-4f22-95d1-5f18f55f192f-7">
        <path
           d="M 3.984375,-1.34375 C 5.515625,-1.46875 6.625,-2.390625 6.625,-3.40625 6.625,-4.4375 5.5,-5.34375 3.984375,-5.46875 v -0.546875 c 0,-0.34375 0,-0.484375 0.9375,-0.484375 H 5.25 v -0.3125 c -0.359375,0.03125 -1.265625,0.03125 -1.6875,0.03125 -0.40625,0 -1.328125,0 -1.6875,-0.03125 V -6.5 h 0.328125 c 0.953125,0 0.953125,0.125 0.953125,0.484375 V -5.46875 C 1.625,-5.3125 0.5625,-4.390625 0.5625,-3.40625 c 0,1.03125 1.109375,1.90625 2.59375,2.0625 v 0.5625 c 0,0.328125 0,0.46875 -0.953125,0.46875 H 1.875 V 0 c 0.359375,-0.03125 1.28125,-0.03125 1.6875,-0.03125 0.40625,0 1.328125,0 1.6875,0.03125 V -0.3125 H 4.921875 c -0.9375,0 -0.9375,-0.125 -0.9375,-0.46875 z M 3.15625,-1.578125 C 1.734375,-1.765625 1.5625,-2.78125 1.5625,-3.40625 c 0,-0.515625 0.09375,-1.625 1.59375,-1.828125 z M 3.984375,-5.25 c 1.375,0.171875 1.640625,1.078125 1.640625,1.84375 0,0.59375 -0.140625,1.65625 -1.640625,1.84375 z m 0,0"
           id="id-72a91f24-c334-4059-94fa-89939ae87bd7-6" />
      </g>
      <g
         id="id-8599f01c-23b4-4833-a651-3b307e6be3c2-1">
        <path
           d="m 3.296875,2.390625 c 0,-0.03125 0,-0.046875 -0.171875,-0.21875 C 1.890625,0.921875 1.5625,-0.96875 1.5625,-2.5 c 0,-1.734375 0.375,-3.46875 1.609375,-4.703125 0.125,-0.125 0.125,-0.140625 0.125,-0.171875 0,-0.078125 -0.03125,-0.109375 -0.09375,-0.109375 -0.109375,0 -1,0.6875 -1.59375,1.953125 -0.5,1.09375 -0.625,2.203125 -0.625,3.03125 0,0.78125 0.109375,1.984375 0.65625,3.125 C 2.25,1.84375 3.09375,2.5 3.203125,2.5 c 0.0625,0 0.09375,-0.03125 0.09375,-0.109375 z m 0,0"
           id="id-141cdb4c-dbb5-4f20-b898-d58f541be571-9" />
      </g>
      <g
         id="id-9fca61ef-062a-4d2c-bf81-84bb220dee65-3">
        <path
           d="m 2.875,-2.5 c 0,-0.765625 -0.109375,-1.96875 -0.65625,-3.109375 -0.59375,-1.21875 -1.453125,-1.875 -1.546875,-1.875 -0.0625,0 -0.109375,0.046875 -0.109375,0.109375 0,0.03125 0,0.046875 0.1875,0.234375 0.984375,0.984375 1.546875,2.5625 1.546875,4.640625 0,1.71875 -0.359375,3.46875 -1.59375,4.71875 C 0.5625,2.34375 0.5625,2.359375 0.5625,2.390625 0.5625,2.453125 0.609375,2.5 0.671875,2.5 0.765625,2.5 1.671875,1.8125 2.25,0.546875 2.765625,-0.546875 2.875,-1.65625 2.875,-2.5 Z m 0,0"
           id="id-375d40e7-91a4-472e-be97-fa77442d4d44-9" />
      </g>
      <g
         id="id-64b0ec5c-b0aa-46f4-a563-b8d3984b1c88-8" />
      <g
         id="id-67b1dbf0-754c-4fac-922d-62796928e00b-0">
        <path
           d="m 2.328125,-4.4375 c 0,-0.1875 0,-0.1875 -0.203125,-0.1875 -0.453125,0.4375 -1.078125,0.4375 -1.359375,0.4375 v 0.25 c 0.15625,0 0.625,0 1,-0.1875 v 3.546875 c 0,0.234375 0,0.328125 -0.6875,0.328125 H 0.8125 V 0 c 0.125,0 0.984375,-0.03125 1.234375,-0.03125 0.21875,0 1.09375,0.03125 1.25,0.03125 V -0.25 H 3.03125 c -0.703125,0 -0.703125,-0.09375 -0.703125,-0.328125 z m 0,0"
           id="id-0980fdd3-95f9-4ed1-97ea-fcc901e8c67f-3" />
      </g>
      <g
         id="id-09365010-4e54-4670-82a5-7fc46cbd956c-8" />
      <g
         id="id-464f4ca5-59d9-4dbf-8f00-e0a27265436f-6">
        <path
           d="m 1.4375,-0.84375 c -0.25,0.390625 -0.46875,0.5625 -0.875,0.59375 -0.078125,0 -0.171875,0 -0.171875,0.140625 C 0.390625,-0.03125 0.453125,0 0.5,0 0.671875,0 0.90625,-0.03125 1.09375,-0.03125 1.3125,-0.03125 1.609375,0 1.8125,0 1.84375,0 1.953125,0 1.953125,-0.15625 1.953125,-0.25 1.859375,-0.25 1.828125,-0.25 1.78125,-0.265625 1.53125,-0.265625 1.53125,-0.453125 c 0,-0.09375 0.0625,-0.203125 0.09375,-0.265625 l 0.5625,-0.875 h 2 L 4.34375,-0.4375 C 4.328125,-0.359375 4.28125,-0.25 3.875,-0.25 c -0.09375,0 -0.1875,0 -0.1875,0.15625 C 3.6875,-0.0625 3.703125,0 3.796875,0 4,0 4.5,-0.03125 4.703125,-0.03125 c 0.125,0 0.28125,0.015625 0.40625,0.015625 C 5.234375,-0.015625 5.375,0 5.5,0 5.59375,0 5.640625,-0.0625 5.640625,-0.140625 5.640625,-0.25 5.5625,-0.25 5.453125,-0.25 c -0.40625,0 -0.421875,-0.0625 -0.4375,-0.21875 l -0.625,-4.3125 C 4.375,-4.921875 4.359375,-4.96875 4.234375,-4.96875 4.09375,-4.96875 4.0625,-4.90625 4,-4.8125 Z m 0.921875,-1 L 3.8125,-4.125 4.140625,-1.84375 Z m 0,0"
           id="id-caf396e1-a1f5-49fb-b40a-96182e79aaa0-5" />
      </g>
    </g>
    <marker
       style="overflow:visible"
       id="Arrow2-6"
       refX="0"
       refY="0"
       orient="auto-start-reverse"
       inkscape:stockid="Arrow2"
       markerWidth="7.6999998"
       markerHeight="5.5999999"
       viewBox="0 0 7.7 5.6"
       inkscape:isstock="true"
       inkscape:collect="always"
       preserveAspectRatio="xMidYMid">
      <path
         transform="scale(0.7)"
         d="M -2,-4 9,0 -2,4 c 2,-2.33 2,-5.66 0,-8 z"
         style="fill:context-stroke;fill-rule:evenodd;stroke:none"
         id="arrow2L-6" />
    </marker>
    <inkscape:path-effect
       effect="bspline"
       id="path-effect5151-5"
       is_visible="true"
       lpeversion="1"
       weight="33.333333"
       steps="2"
       helper_size="0"
       apply_no_weight="true"
       apply_with_weight="true"
       only_selected="false" />
  </defs>
  <g
     inkscape:groupmode="layer"
     id="layer2"
     inkscape:label="圖層 2"
     transform="translate(-8.8987589,-5.2371675)">
    <rect
       style="opacity:1;fill:#f5f5f5;fill-opacity:1;stroke:none;stroke-width:0.198;stroke-dasharray:none;stroke-opacity:1"
       id="rect6218"
       width="48.498238"
       height="15.949137"
       x="8.8987589"
       y="14.306644" />
    <rect
       style="fill:#f5f5f5;fill-opacity:1;stroke:none;stroke-width:0.198;stroke-dasharray:none;stroke-opacity:1"
       id="rect6218-8"
       width="48.498238"
       height="15.949137"
       x="68.520447"
       y="14.306644" />
    <rect
       style="fill:#f5f5f5;fill-opacity:1;stroke:none;stroke-width:0.198;stroke-dasharray:none;stroke-opacity:1"
       id="rect6218-8-3"
       width="48.498238"
       height="15.949137"
       x="128.14214"
       y="14.306644" />
  </g>
  <g
     inkscape:label="圖層 1"
     inkscape:groupmode="layer"
     id="layer1"
     transform="translate(-8.8987589,-5.2371675)">
    <path
       style="opacity:1;fill:none;stroke:#0000ff;stroke-width:0.264999;stroke-dasharray:none"
       d="m 76.666684,30.255781 c 1.822195,-1.180763 3.64429,-2.361461 4.872188,-3.986597 1.227899,-1.625135 1.861609,-3.694748 2.243381,-5.165268 0.381771,-1.470519 0.51154,-2.341822 1.123431,-2.98157 0.611891,-0.639748 1.705655,-1.047592 3.012757,-0.63031 1.307102,0.417283 2.82725,1.659353 3.856116,2.882998 1.028866,1.223645 1.566488,2.428663 2.029939,3.754218 0.463451,1.325555 0.852764,2.771576 1.448457,3.707731 0.595693,0.936156 1.397493,1.362546 2.198992,1.788776"
       id="path1145"
       inkscape:path-effect="#path-effect1147"
       inkscape:original-d="m 76.666684,30.255781 c 1.822394,-1.180456 3.644489,-2.361154 5.46639,-3.542163 0.634013,-2.069472 1.267723,-4.139085 1.901207,-6.209087 0.130041,-0.87109 0.25981,-1.742393 0.389321,-2.614011 1.094092,-0.407603 2.187856,-0.815447 3.281418,-1.223579 1.5205,1.242406 3.040647,2.484477 4.560618,3.726355 0.537908,1.205328 1.07553,2.410346 1.612897,3.615121 0.38959,1.446342 0.77891,2.892361 1.16796,4.338145 0.8021,0.426673 1.6039,0.853062 2.40545,1.279197"
       sodipodi:nodetypes="ccccccccc" />
    <path
       style="opacity:1;fill:none;stroke:#ff0000;stroke-width:0.65;stroke-dasharray:none"
       d="M 90.45286,29.831781 H 111.9649"
       id="path1149"
       sodipodi:nodetypes="cc" />
    <path
       style="fill:none;stroke:#000000;stroke-width:0.298;stroke-dasharray:none"
       d="M 68.520445,30.255781 H 117.01869"
       id="path291-9" />
    <path
       style="opacity:1;fill:none;stroke:#0000ff;stroke-width:0.25;stroke-dasharray:none"
       d="m 13.338713,30.255781 c 1.452866,-1.407034 2.905728,-2.814064 3.533852,-4.408869 0.628125,-1.594804 0.431496,-3.377572 0.791965,-5.016351 0.360469,-1.638779 1.278071,-3.133159 2.779274,-3.342864 1.501204,-0.209705 3.585511,0.86522 5.214294,2.084875 1.628782,1.219654 2.801998,2.583811 3.742634,3.396511 0.940636,0.812699 1.648498,1.074003 2.195082,1.146692 0.546583,0.07269 0.931975,-0.04308 1.317207,-0.158804"
       id="path1538"
       inkscape:path-effect="#path-effect1540"
       inkscape:original-d="m 13.338713,30.255781 c 1.453126,-1.406765 2.905988,-2.813795 4.358585,-4.221089 -0.196376,-1.78261 -0.393004,-3.565378 -0.589909,-5.348516 0.91792,-1.494204 1.835522,-2.988583 2.752913,-4.483316 2.084654,1.075233 4.168961,2.150159 6.253045,3.224841 1.173554,1.364507 2.34677,2.728664 3.519795,4.092642 0.708172,0.261586 1.416034,0.522891 2.123677,0.783947 0.385673,-0.115511 0.771065,-0.231281 1.156202,-0.347319"
       sodipodi:nodetypes="cccccccc" />
    <path
       style="opacity:1;fill:#cdffff;fill-opacity:1;stroke:none;stroke-width:0.944882;stroke-dasharray:none;stroke-opacity:1"
       d="m 328.13887,65.965404 c -3.33337,0.02906 -6.66995,1.807397 -8.21868,4.820017 -1.47127,2.795975 -1.88309,5.992371 -2.78794,8.988756 -1.95503,7.61357 -4.69803,15.287207 -9.83358,21.368963 -4.39859,5.18833 -10.22912,8.87504 -15.74758,12.7121 1.11085,0.2413 2.46478,0.0314 3.6672,0.10189 15.52549,0 31.05098,0 46.57647,0 0.41865,-0.62135 -0.34813,-2.18133 0.39714,-2.37822 7.98993,-0.0284 16.00743,0.0565 23.98019,-0.0424 -0.77889,-0.80884 -2.02678,-1.3319 -2.9273,-2.12256 -3.21219,-2.39436 -5.08537,-6.08997 -6.33511,-9.81083 -2.47308,-6.749046 -4.24758,-13.947833 -8.57482,-19.834075 -3.02722,-4.19138 -6.83135,-7.846509 -11.14577,-10.69716 -2.70609,-1.709945 -5.78691,-3.132564 -9.05022,-3.106501 z"
       id="path2495"
       transform="scale(0.26458333)" />
    <path
       style="opacity:1;fill:#fbdede;fill-opacity:1;stroke:#ff0000;stroke-width:0.25;stroke-dasharray:none"
       d="m 27.371823,30.255781 c 2.110764,-1.816848 4.221507,-3.633679 5.295405,-5.765558 1.073897,-2.131879 1.110974,-4.578989 2.290064,-6.082853 1.17909,-1.503863 3.499857,-2.064091 5.16086,-1.324073 1.661002,0.740017 2.662072,2.779827 3.181101,4.800603 0.519029,2.020777 0.556107,4.022325 0.964122,5.306164 0.408015,1.283838 1.186641,1.84988 1.959166,2.241176 0.772525,0.391296 1.538919,0.607963 2.304998,0.824541"
       id="path1470"
       inkscape:path-effect="#path-effect1472"
       inkscape:original-d="m 27.371823,30.255781 c 2.111007,-1.816566 4.22175,-3.633396 6.332228,-5.45049 0.03734,-2.446943 0.07442,-4.894053 0.111233,-7.341477 2.321173,-0.559997 4.64194,-1.120225 6.962584,-1.680751 1.001395,2.040198 2.002464,4.080008 3.00333,6.119677 0.03734,2.001932 0.07442,4.00348 0.111236,6.004881 0.778921,0.566329 1.557547,1.132371 2.335924,1.698159 0.766658,0.216931 1.533052,0.433599 2.299181,0.650001"
       sodipodi:nodetypes="cccccccc" />
    <path
       style="opacity:1;fill:none;stroke:#000000;stroke-width:0.298;stroke-dasharray:none"
       d="M 8.8987589,30.255781 H 57.396996"
       id="path291" />
    <path
       style="opacity:1;fill:#d7ffff;fill-opacity:1;stroke:none;stroke-width:1.1263;stroke-dasharray:none;stroke-opacity:1"
       d="m 78.507324,66.477783 c -3.581298,-0.101369 -6.692869,2.389567 -8.508887,5.299069 -2.776766,4.334604 -3.382581,9.584689 -3.762913,14.601954 -0.364924,4.771635 -0.857872,9.713085 -3.234059,13.967144 -2.81391,5.12633 -7.131816,9.18371 -11.175293,13.33398 0.363998,0.40322 1.442656,0.0527 2.071289,0.17017 16.47583,0 32.95166,0 49.427489,0 5.2523,-4.5138 10.5136,-9.11101 15.00342,-14.414065 1.96605,-2.407007 3.80691,-4.97683 5.05102,-7.836181 0.13262,-0.503498 -0.51065,-0.136434 -0.72876,-0.134034 -2.70963,0.505572 -5.53483,-0.142108 -7.90216,-1.515346 -3.34038,-1.842593 -5.89789,-4.766197 -8.67923,-7.322639 -3.95818,-3.882597 -8.074627,-7.652218 -12.765324,-10.641918 -3.873435,-2.456498 -8.066852,-4.673788 -12.647422,-5.391923 -0.712819,-0.08544 -1.431313,-0.123585 -2.14917,-0.116211 z"
       id="path2775"
       transform="scale(0.26458333)" />
    <g
       transform="matrix(0.423334,0,0,0.423334,35.6704,39.6878)"
       ns13:version="1.8.1"
       ns13:texconverter="xelatex"
       ns13:pdfconverter="inkscape"
       ns13:text="$A'$  $A$  \n$\\Phi_A^{-1}(A')$\n$\\Phi_A$"
       ns13:preamble="C:\Users\ChoCho\AppData\Roaming\inkscape\extensions\textext\default_packages.tex"
       ns13:scale="1.2"
       ns13:alignment="middle center"
       ns13:stroke-to-path="0"
       ns13:jacobian_sqrt="0.423334"
       id="g3606">
      <defs
         id="id-0b228a52-354d-48d4-8994-d6a46445119c">
        <g
           id="id-8316d983-0d17-4e33-9c15-a307efe88418">
          <g
             id="id-b15a7985-2bd5-4f2e-9500-f8b44c52a5c8" />
          <g
             id="id-8f8dd70f-46ee-4eb6-95a5-de7062342bd8">
            <path
               d="M 1.78125,-1.140625 C 1.390625,-0.484375 1,-0.34375 0.5625,-0.3125 0.4375,-0.296875 0.34375,-0.296875 0.34375,-0.109375 0.34375,-0.046875 0.40625,0 0.484375,0 0.75,0 1.0625,-0.03125 1.328125,-0.03125 c 0.34375,0 0.6875,0.03125 1,0.03125 0.0625,0 0.1875,0 0.1875,-0.1875 0,-0.109375 -0.078125,-0.125 -0.15625,-0.125 -0.21875,-0.015625 -0.46875,-0.09375 -0.46875,-0.34375 0,-0.125 0.0625,-0.234375 0.140625,-0.375 l 0.765625,-1.265625 h 2.5 c 0.015625,0.203125 0.15625,1.5625 0.15625,1.65625 0,0.296875 -0.515625,0.328125 -0.71875,0.328125 C 4.59375,-0.3125 4.5,-0.3125 4.5,-0.109375 4.5,0 4.609375,0 4.640625,0 5.046875,0 5.46875,-0.03125 5.875,-0.03125 6.125,-0.03125 6.765625,0 7.015625,0 7.0625,0 7.1875,0 7.1875,-0.203125 7.1875,-0.3125 7.09375,-0.3125 6.953125,-0.3125 6.34375,-0.3125 6.34375,-0.375 6.3125,-0.671875 l -0.609375,-6.21875 c -0.015625,-0.203125 -0.015625,-0.25 -0.1875,-0.25 -0.15625,0 -0.203125,0.078125 -0.265625,0.171875 z M 2.984375,-2.609375 4.9375,-5.90625 5.265625,-2.609375 Z m 0,0"
               id="id-56354244-1d22-4c5f-a2c7-97aa0a0c7158" />
          </g>
          <g
             id="id-74761114-371d-468f-8902-7d97bd728f83" />
          <g
             id="id-0aa5e820-fc19-4771-b67d-0c84b3319b10">
            <path
               d="m 2.015625,-3.296875 c 0.0625,-0.109375 0.0625,-0.171875 0.0625,-0.21875 0,-0.21875 -0.1875,-0.375 -0.40625,-0.375 -0.265625,0 -0.34375,0.21875 -0.375,0.328125 L 0.375,-0.546875 c -0.015625,0.015625 -0.046875,0.09375 -0.046875,0.109375 0,0.078125 0.21875,0.15625 0.28125,0.15625 0.046875,0 0.046875,-0.015625 0.09375,-0.125 z m 0,0"
               id="id-981fc66d-dc16-416d-b364-4af6d7fc5f59" />
          </g>
          <g
             id="id-6c8b4ca2-226a-4d34-a4e2-108c14dae8d8">
            <path
               d="m 5.1875,-1.578125 c 0.109375,0 0.28125,0 0.28125,-0.15625 0,-0.1875 -0.171875,-0.1875 -0.28125,-0.1875 H 1.03125 c -0.109375,0 -0.28125,0 -0.28125,0.171875 0,0.171875 0.15625,0.171875 0.28125,0.171875 z m 0,0"
               id="id-5bd53251-424a-4841-b6ac-1dde5e667bd7" />
          </g>
          <g
             id="id-34d8ce0d-b9bf-493e-a674-37a850b7b6e3" />
          <g
             id="id-61eac002-f6a6-4f22-95d1-5f18f55f192f">
            <path
               d="M 3.984375,-1.34375 C 5.515625,-1.46875 6.625,-2.390625 6.625,-3.40625 6.625,-4.4375 5.5,-5.34375 3.984375,-5.46875 v -0.546875 c 0,-0.34375 0,-0.484375 0.9375,-0.484375 H 5.25 v -0.3125 c -0.359375,0.03125 -1.265625,0.03125 -1.6875,0.03125 -0.40625,0 -1.328125,0 -1.6875,-0.03125 V -6.5 h 0.328125 c 0.953125,0 0.953125,0.125 0.953125,0.484375 V -5.46875 C 1.625,-5.3125 0.5625,-4.390625 0.5625,-3.40625 c 0,1.03125 1.109375,1.90625 2.59375,2.0625 v 0.5625 c 0,0.328125 0,0.46875 -0.953125,0.46875 H 1.875 V 0 c 0.359375,-0.03125 1.28125,-0.03125 1.6875,-0.03125 0.40625,0 1.328125,0 1.6875,0.03125 V -0.3125 H 4.921875 c -0.9375,0 -0.9375,-0.125 -0.9375,-0.46875 z M 3.15625,-1.578125 C 1.734375,-1.765625 1.5625,-2.78125 1.5625,-3.40625 c 0,-0.515625 0.09375,-1.625 1.59375,-1.828125 z M 3.984375,-5.25 c 1.375,0.171875 1.640625,1.078125 1.640625,1.84375 0,0.59375 -0.140625,1.65625 -1.640625,1.84375 z m 0,0"
               id="id-72a91f24-c334-4059-94fa-89939ae87bd7" />
          </g>
          <g
             id="id-8599f01c-23b4-4833-a651-3b307e6be3c2">
            <path
               d="m 3.296875,2.390625 c 0,-0.03125 0,-0.046875 -0.171875,-0.21875 C 1.890625,0.921875 1.5625,-0.96875 1.5625,-2.5 c 0,-1.734375 0.375,-3.46875 1.609375,-4.703125 0.125,-0.125 0.125,-0.140625 0.125,-0.171875 0,-0.078125 -0.03125,-0.109375 -0.09375,-0.109375 -0.109375,0 -1,0.6875 -1.59375,1.953125 -0.5,1.09375 -0.625,2.203125 -0.625,3.03125 0,0.78125 0.109375,1.984375 0.65625,3.125 C 2.25,1.84375 3.09375,2.5 3.203125,2.5 c 0.0625,0 0.09375,-0.03125 0.09375,-0.109375 z m 0,0"
               id="id-141cdb4c-dbb5-4f20-b898-d58f541be571" />
          </g>
          <g
             id="id-9fca61ef-062a-4d2c-bf81-84bb220dee65">
            <path
               d="m 2.875,-2.5 c 0,-0.765625 -0.109375,-1.96875 -0.65625,-3.109375 -0.59375,-1.21875 -1.453125,-1.875 -1.546875,-1.875 -0.0625,0 -0.109375,0.046875 -0.109375,0.109375 0,0.03125 0,0.046875 0.1875,0.234375 0.984375,0.984375 1.546875,2.5625 1.546875,4.640625 0,1.71875 -0.359375,3.46875 -1.59375,4.71875 C 0.5625,2.34375 0.5625,2.359375 0.5625,2.390625 0.5625,2.453125 0.609375,2.5 0.671875,2.5 0.765625,2.5 1.671875,1.8125 2.25,0.546875 2.765625,-0.546875 2.875,-1.65625 2.875,-2.5 Z m 0,0"
               id="id-375d40e7-91a4-472e-be97-fa77442d4d44" />
          </g>
          <g
             id="id-64b0ec5c-b0aa-46f4-a563-b8d3984b1c88" />
          <g
             id="id-67b1dbf0-754c-4fac-922d-62796928e00b">
            <path
               d="m 2.328125,-4.4375 c 0,-0.1875 0,-0.1875 -0.203125,-0.1875 -0.453125,0.4375 -1.078125,0.4375 -1.359375,0.4375 v 0.25 c 0.15625,0 0.625,0 1,-0.1875 v 3.546875 c 0,0.234375 0,0.328125 -0.6875,0.328125 H 0.8125 V 0 c 0.125,0 0.984375,-0.03125 1.234375,-0.03125 0.21875,0 1.09375,0.03125 1.25,0.03125 V -0.25 H 3.03125 c -0.703125,0 -0.703125,-0.09375 -0.703125,-0.328125 z m 0,0"
               id="id-0980fdd3-95f9-4ed1-97ea-fcc901e8c67f" />
          </g>
          <g
             id="id-09365010-4e54-4670-82a5-7fc46cbd956c" />
          <g
             id="id-464f4ca5-59d9-4dbf-8f00-e0a27265436f">
            <path
               d="m 1.4375,-0.84375 c -0.25,0.390625 -0.46875,0.5625 -0.875,0.59375 -0.078125,0 -0.171875,0 -0.171875,0.140625 C 0.390625,-0.03125 0.453125,0 0.5,0 0.671875,0 0.90625,-0.03125 1.09375,-0.03125 1.3125,-0.03125 1.609375,0 1.8125,0 1.84375,0 1.953125,0 1.953125,-0.15625 1.953125,-0.25 1.859375,-0.25 1.828125,-0.25 1.78125,-0.265625 1.53125,-0.265625 1.53125,-0.453125 c 0,-0.09375 0.0625,-0.203125 0.09375,-0.265625 l 0.5625,-0.875 h 2 L 4.34375,-0.4375 C 4.328125,-0.359375 4.28125,-0.25 3.875,-0.25 c -0.09375,0 -0.1875,0 -0.1875,0.15625 C 3.6875,-0.0625 3.703125,0 3.796875,0 4,0 4.5,-0.03125 4.703125,-0.03125 c 0.125,0 0.28125,0.015625 0.40625,0.015625 C 5.234375,-0.015625 5.375,0 5.5,0 5.59375,0 5.640625,-0.0625 5.640625,-0.140625 5.640625,-0.25 5.5625,-0.25 5.453125,-0.25 c -0.40625,0 -0.421875,-0.0625 -0.4375,-0.21875 l -0.625,-4.3125 C 4.375,-4.921875 4.359375,-4.96875 4.234375,-4.96875 4.09375,-4.96875 4.0625,-4.90625 4,-4.8125 Z m 0.921875,-1 L 3.8125,-4.125 4.140625,-1.84375 Z m 0,0"
               id="id-caf396e1-a1f5-49fb-b40a-96182e79aaa0" />
          </g>
        </g>
      </defs>
      <g
         fill="#000000"
         fill-opacity="1"
         id="id-6e0ade5c-ab89-49e2-923c-a19109e5c39a"
         transform="translate(-30.774937,-164.83865)"
         style="fill:#0000ff">
        <g
           transform="translate(148.712,134.765)"
           id="g4252"
           style="fill:#0000ff">
          <path
             d="M 1.78125,-1.140625 C 1.390625,-0.484375 1,-0.34375 0.5625,-0.3125 0.4375,-0.296875 0.34375,-0.296875 0.34375,-0.109375 0.34375,-0.046875 0.40625,0 0.484375,0 0.75,0 1.0625,-0.03125 1.328125,-0.03125 c 0.34375,0 0.6875,0.03125 1,0.03125 0.0625,0 0.1875,0 0.1875,-0.1875 0,-0.109375 -0.078125,-0.125 -0.15625,-0.125 -0.21875,-0.015625 -0.46875,-0.09375 -0.46875,-0.34375 0,-0.125 0.0625,-0.234375 0.140625,-0.375 l 0.765625,-1.265625 h 2.5 c 0.015625,0.203125 0.15625,1.5625 0.15625,1.65625 0,0.296875 -0.515625,0.328125 -0.71875,0.328125 C 4.59375,-0.3125 4.5,-0.3125 4.5,-0.109375 4.5,0 4.609375,0 4.640625,0 5.046875,0 5.46875,-0.03125 5.875,-0.03125 6.125,-0.03125 6.765625,0 7.015625,0 7.0625,0 7.1875,0 7.1875,-0.203125 7.1875,-0.3125 7.09375,-0.3125 6.953125,-0.3125 6.34375,-0.3125 6.34375,-0.375 6.3125,-0.671875 l -0.609375,-6.21875 c -0.015625,-0.203125 -0.015625,-0.25 -0.1875,-0.25 -0.15625,0 -0.203125,0.078125 -0.265625,0.171875 z M 2.984375,-2.609375 4.9375,-5.90625 5.265625,-2.609375 Z m 0,0"
             id="id-36217b42-fde8-4232-b684-8787e21c78a6"
             style="fill:#0000ff" />
        </g>
      </g>
      <g
         fill="#000000"
         fill-opacity="1"
         id="id-0750421c-73fa-4b23-a84b-10025da69bfb"
         transform="translate(-30.774937,-164.83865)"
         style="fill:#0000ff">
        <g
           transform="translate(156.184,131.149)"
           id="g4256"
           style="fill:#0000ff">
          <path
             d="m 2.015625,-3.296875 c 0.0625,-0.109375 0.0625,-0.171875 0.0625,-0.21875 0,-0.21875 -0.1875,-0.375 -0.40625,-0.375 -0.265625,0 -0.34375,0.21875 -0.375,0.328125 L 0.375,-0.546875 c -0.015625,0.015625 -0.046875,0.09375 -0.046875,0.109375 0,0.078125 0.21875,0.15625 0.28125,0.15625 0.046875,0 0.046875,-0.015625 0.09375,-0.125 z m 0,0"
             id="id-4a00d816-6309-4759-a5bf-dfca64bbdc09"
             style="fill:#0000ff" />
        </g>
      </g>
      <g
         fill="#000000"
         fill-opacity="1"
         id="id-443d368f-db85-468d-b9e6-322787031c5b"
         transform="translate(-160.73465,-164.83865)"
         style="fill:#ff0000">
        <g
           transform="translate(162.297,134.765)"
           id="g4260"
           style="fill:#ff0000">
          <path
             d="M 1.78125,-1.140625 C 1.390625,-0.484375 1,-0.34375 0.5625,-0.3125 0.4375,-0.296875 0.34375,-0.296875 0.34375,-0.109375 0.34375,-0.046875 0.40625,0 0.484375,0 0.75,0 1.0625,-0.03125 1.328125,-0.03125 c 0.34375,0 0.6875,0.03125 1,0.03125 0.0625,0 0.1875,0 0.1875,-0.1875 0,-0.109375 -0.078125,-0.125 -0.15625,-0.125 -0.21875,-0.015625 -0.46875,-0.09375 -0.46875,-0.34375 0,-0.125 0.0625,-0.234375 0.140625,-0.375 l 0.765625,-1.265625 h 2.5 c 0.015625,0.203125 0.15625,1.5625 0.15625,1.65625 0,0.296875 -0.515625,0.328125 -0.71875,0.328125 C 4.59375,-0.3125 4.5,-0.3125 4.5,-0.109375 4.5,0 4.609375,0 4.640625,0 5.046875,0 5.46875,-0.03125 5.875,-0.03125 6.125,-0.03125 6.765625,0 7.015625,0 7.0625,0 7.1875,0 7.1875,-0.203125 7.1875,-0.3125 7.09375,-0.3125 6.953125,-0.3125 6.34375,-0.3125 6.34375,-0.375 6.3125,-0.671875 l -0.609375,-6.21875 c -0.015625,-0.203125 -0.015625,-0.25 -0.1875,-0.25 -0.15625,0 -0.203125,0.078125 -0.265625,0.171875 z M 2.984375,-2.609375 4.9375,-5.90625 5.265625,-2.609375 Z m 0,0"
             id="id-0ef06399-f777-4a87-88e1-366ad0900cf8"
             style="fill:#ff0000" />
        </g>
      </g>
      <g
         fill="#000000"
         fill-opacity="1"
         id="id-6536edd3-17cb-46c8-9a05-97470a894fd5"
         transform="matrix(0.81019871,0,0,0.81019871,-183.27214,-139.26008)"
         style="fill:#0000ff;stroke-width:1.23427">
        <g
           transform="translate(173.087,134.765)"
           id="g4264"
           style="fill:#0000ff;stroke-width:1.23427">
          <path
             d="M 3.984375,-1.34375 C 5.515625,-1.46875 6.625,-2.390625 6.625,-3.40625 6.625,-4.4375 5.5,-5.34375 3.984375,-5.46875 v -0.546875 c 0,-0.34375 0,-0.484375 0.9375,-0.484375 H 5.25 v -0.3125 c -0.359375,0.03125 -1.265625,0.03125 -1.6875,0.03125 -0.40625,0 -1.328125,0 -1.6875,-0.03125 V -6.5 h 0.328125 c 0.953125,0 0.953125,0.125 0.953125,0.484375 V -5.46875 C 1.625,-5.3125 0.5625,-4.390625 0.5625,-3.40625 c 0,1.03125 1.109375,1.90625 2.59375,2.0625 v 0.5625 c 0,0.328125 0,0.46875 -0.953125,0.46875 H 1.875 V 0 c 0.359375,-0.03125 1.28125,-0.03125 1.6875,-0.03125 0.40625,0 1.328125,0 1.6875,0.03125 V -0.3125 H 4.921875 c -0.9375,0 -0.9375,-0.125 -0.9375,-0.46875 z M 3.15625,-1.578125 C 1.734375,-1.765625 1.5625,-2.78125 1.5625,-3.40625 c 0,-0.515625 0.09375,-1.625 1.59375,-1.828125 z M 3.984375,-5.25 c 1.375,0.171875 1.640625,1.078125 1.640625,1.84375 0,0.59375 -0.140625,1.65625 -1.640625,1.84375 z m 0,0"
             id="id-5fd5fb43-5778-4e17-a167-cfadb59800a1"
             style="fill:#0000ff;stroke-width:1.23427" />
        </g>
      </g>
      <g
         fill="#000000"
         fill-opacity="1"
         id="id-9ee36d43-d13f-4831-81ce-eecfa33d37c8"
         transform="matrix(0.81019871,0,0,0.81019871,-183.27214,-139.26008)"
         style="fill:#0000ff;stroke-width:1.23427">
        <g
           transform="translate(180.282,130.503)"
           id="g4268"
           style="fill:#0000ff;stroke-width:1.23427">
          <path
             d="m 5.1875,-1.578125 c 0.109375,0 0.28125,0 0.28125,-0.15625 0,-0.1875 -0.171875,-0.1875 -0.28125,-0.1875 H 1.03125 c -0.109375,0 -0.28125,0 -0.28125,0.171875 0,0.171875 0.15625,0.171875 0.28125,0.171875 z m 0,0"
             id="id-a026dcef-5d95-4101-a534-a1c49fc61c32"
             style="fill:#0000ff;stroke-width:1.23427" />
        </g>
      </g>
      <g
         fill="#000000"
         fill-opacity="1"
         id="id-e690b7ac-7859-4a26-8e17-4e98a4073865"
         transform="matrix(0.81019871,0,0,0.81019871,-183.27214,-139.26008)"
         style="fill:#0000ff;stroke-width:1.23427">
        <g
           transform="translate(186.508,130.503)"
           id="g4272"
           style="fill:#0000ff;stroke-width:1.23427">
          <path
             d="m 2.328125,-4.4375 c 0,-0.1875 0,-0.1875 -0.203125,-0.1875 -0.453125,0.4375 -1.078125,0.4375 -1.359375,0.4375 v 0.25 c 0.15625,0 0.625,0 1,-0.1875 v 3.546875 c 0,0.234375 0,0.328125 -0.6875,0.328125 H 0.8125 V 0 c 0.125,0 0.984375,-0.03125 1.234375,-0.03125 0.21875,0 1.09375,0.03125 1.25,0.03125 V -0.25 H 3.03125 c -0.703125,0 -0.703125,-0.09375 -0.703125,-0.328125 z m 0,0"
             id="id-beafb075-f6a4-435c-9813-93cbd9eb07d6"
             style="fill:#0000ff;stroke-width:1.23427" />
        </g>
      </g>
      <g
         fill="#000000"
         fill-opacity="1"
         id="id-6ab2018a-1398-43b1-9f8e-28de5c43e47f"
         transform="matrix(0.81019871,0,0,0.81019871,-183.27214,-139.26008)"
         style="fill:#0000ff;stroke-width:1.23427">
        <g
           transform="translate(180.282,137.692)"
           id="g4276"
           style="fill:#0000ff;stroke-width:1.23427">
          <path
             d="m 1.4375,-0.84375 c -0.25,0.390625 -0.46875,0.5625 -0.875,0.59375 -0.078125,0 -0.171875,0 -0.171875,0.140625 C 0.390625,-0.03125 0.453125,0 0.5,0 0.671875,0 0.90625,-0.03125 1.09375,-0.03125 1.3125,-0.03125 1.609375,0 1.8125,0 1.84375,0 1.953125,0 1.953125,-0.15625 1.953125,-0.25 1.859375,-0.25 1.828125,-0.25 1.78125,-0.265625 1.53125,-0.265625 1.53125,-0.453125 c 0,-0.09375 0.0625,-0.203125 0.09375,-0.265625 l 0.5625,-0.875 h 2 L 4.34375,-0.4375 C 4.328125,-0.359375 4.28125,-0.25 3.875,-0.25 c -0.09375,0 -0.1875,0 -0.1875,0.15625 C 3.6875,-0.0625 3.703125,0 3.796875,0 4,0 4.5,-0.03125 4.703125,-0.03125 c 0.125,0 0.28125,0.015625 0.40625,0.015625 C 5.234375,-0.015625 5.375,0 5.5,0 5.59375,0 5.640625,-0.0625 5.640625,-0.140625 5.640625,-0.25 5.5625,-0.25 5.453125,-0.25 c -0.40625,0 -0.421875,-0.0625 -0.4375,-0.21875 l -0.625,-4.3125 C 4.375,-4.921875 4.359375,-4.96875 4.234375,-4.96875 4.09375,-4.96875 4.0625,-4.90625 4,-4.8125 Z m 0.921875,-1 L 3.8125,-4.125 4.140625,-1.84375 Z m 0,0"
             id="id-c6595482-4504-4e59-be60-b97620d982ad"
             style="fill:#0000ff;stroke-width:1.23427" />
        </g>
      </g>
      <g
         fill="#000000"
         fill-opacity="1"
         id="id-b86b62d7-80e9-4660-8581-ccfd07913314"
         transform="matrix(0.81019871,0,0,0.81019871,-183.27214,-139.26008)"
         style="fill:#0000ff;stroke-width:1.23427">
        <g
           transform="translate(190.978,134.765)"
           id="g4280"
           style="fill:#0000ff;stroke-width:1.23427">
          <path
             d="m 3.296875,2.390625 c 0,-0.03125 0,-0.046875 -0.171875,-0.21875 C 1.890625,0.921875 1.5625,-0.96875 1.5625,-2.5 c 0,-1.734375 0.375,-3.46875 1.609375,-4.703125 0.125,-0.125 0.125,-0.140625 0.125,-0.171875 0,-0.078125 -0.03125,-0.109375 -0.09375,-0.109375 -0.109375,0 -1,0.6875 -1.59375,1.953125 -0.5,1.09375 -0.625,2.203125 -0.625,3.03125 0,0.78125 0.109375,1.984375 0.65625,3.125 C 2.25,1.84375 3.09375,2.5 3.203125,2.5 c 0.0625,0 0.09375,-0.03125 0.09375,-0.109375 z m 0,0"
             id="id-867afa60-6d46-4fce-9529-acd131e5bc0a"
             style="fill:#0000ff;stroke-width:1.23427" />
        </g>
      </g>
      <g
         fill="#000000"
         fill-opacity="1"
         id="id-5d39662b-1b1a-428f-a338-4b2ae907dda7"
         transform="matrix(0.81019871,0,0,0.81019871,-183.27214,-139.26008)"
         style="fill:#0000ff;stroke-width:1.23427">
        <g
           transform="translate(194.852,134.765)"
           id="g4284"
           style="fill:#0000ff;stroke-width:1.23427">
          <path
             d="M 1.78125,-1.140625 C 1.390625,-0.484375 1,-0.34375 0.5625,-0.3125 0.4375,-0.296875 0.34375,-0.296875 0.34375,-0.109375 0.34375,-0.046875 0.40625,0 0.484375,0 0.75,0 1.0625,-0.03125 1.328125,-0.03125 c 0.34375,0 0.6875,0.03125 1,0.03125 0.0625,0 0.1875,0 0.1875,-0.1875 0,-0.109375 -0.078125,-0.125 -0.15625,-0.125 -0.21875,-0.015625 -0.46875,-0.09375 -0.46875,-0.34375 0,-0.125 0.0625,-0.234375 0.140625,-0.375 l 0.765625,-1.265625 h 2.5 c 0.015625,0.203125 0.15625,1.5625 0.15625,1.65625 0,0.296875 -0.515625,0.328125 -0.71875,0.328125 C 4.59375,-0.3125 4.5,-0.3125 4.5,-0.109375 4.5,0 4.609375,0 4.640625,0 5.046875,0 5.46875,-0.03125 5.875,-0.03125 6.125,-0.03125 6.765625,0 7.015625,0 7.0625,0 7.1875,0 7.1875,-0.203125 7.1875,-0.3125 7.09375,-0.3125 6.953125,-0.3125 6.34375,-0.3125 6.34375,-0.375 6.3125,-0.671875 l -0.609375,-6.21875 c -0.015625,-0.203125 -0.015625,-0.25 -0.1875,-0.25 -0.15625,0 -0.203125,0.078125 -0.265625,0.171875 z M 2.984375,-2.609375 4.9375,-5.90625 5.265625,-2.609375 Z m 0,0"
             id="id-1fdf32da-bf5c-4ed4-a79a-2adb48a4e32e"
             style="fill:#0000ff;stroke-width:1.23427" />
        </g>
      </g>
      <g
         fill="#000000"
         fill-opacity="1"
         id="id-dbc7606d-df90-402d-9436-c214683b683b"
         transform="matrix(0.81019871,0,0,0.81019871,-183.27214,-139.26008)"
         style="fill:#0000ff;stroke-width:1.23427">
        <g
           transform="translate(202.324,131.149)"
           id="g4288"
           style="fill:#0000ff;stroke-width:1.23427">
          <path
             d="m 2.015625,-3.296875 c 0.0625,-0.109375 0.0625,-0.171875 0.0625,-0.21875 0,-0.21875 -0.1875,-0.375 -0.40625,-0.375 -0.265625,0 -0.34375,0.21875 -0.375,0.328125 L 0.375,-0.546875 c -0.015625,0.015625 -0.046875,0.09375 -0.046875,0.109375 0,0.078125 0.21875,0.15625 0.28125,0.15625 0.046875,0 0.046875,-0.015625 0.09375,-0.125 z m 0,0"
             id="id-abc56f48-52eb-4aae-834d-9e5c54b66c92"
             style="fill:#0000ff;stroke-width:1.23427" />
        </g>
      </g>
      <g
         fill="#000000"
         fill-opacity="1"
         id="id-e6f96300-d020-4102-bbcd-246cc5021eb9"
         transform="matrix(0.81019871,0,0,0.81019871,-183.27214,-139.26008)"
         style="fill:#0000ff;stroke-width:1.23427">
        <g
           transform="translate(205.119,134.765)"
           id="g4292"
           style="fill:#0000ff;stroke-width:1.23427">
          <path
             d="m 2.875,-2.5 c 0,-0.765625 -0.109375,-1.96875 -0.65625,-3.109375 -0.59375,-1.21875 -1.453125,-1.875 -1.546875,-1.875 -0.0625,0 -0.109375,0.046875 -0.109375,0.109375 0,0.03125 0,0.046875 0.1875,0.234375 0.984375,0.984375 1.546875,2.5625 1.546875,4.640625 0,1.71875 -0.359375,3.46875 -1.59375,4.71875 C 0.5625,2.34375 0.5625,2.359375 0.5625,2.390625 0.5625,2.453125 0.609375,2.5 0.671875,2.5 0.765625,2.5 1.671875,1.8125 2.25,0.546875 2.765625,-0.546875 2.875,-1.65625 2.875,-2.5 Z m 0,0"
             id="id-644a969d-d2dd-4ae0-a2c9-4953d2aca09e"
             style="fill:#0000ff;stroke-width:1.23427" />
        </g>
      </g>
      <g
         fill="#000000"
         fill-opacity="1"
         id="id-16b11ddf-2968-4165-a8bc-df7bc16583f0"
         transform="translate(-154.54506,-187.90789)">
        <g
           transform="translate(212.302,134.765)"
           id="g4296">
          <path
             d="M 3.984375,-1.34375 C 5.515625,-1.46875 6.625,-2.390625 6.625,-3.40625 6.625,-4.4375 5.5,-5.34375 3.984375,-5.46875 v -0.546875 c 0,-0.34375 0,-0.484375 0.9375,-0.484375 H 5.25 v -0.3125 c -0.359375,0.03125 -1.265625,0.03125 -1.6875,0.03125 -0.40625,0 -1.328125,0 -1.6875,-0.03125 V -6.5 h 0.328125 c 0.953125,0 0.953125,0.125 0.953125,0.484375 V -5.46875 C 1.625,-5.3125 0.5625,-4.390625 0.5625,-3.40625 c 0,1.03125 1.109375,1.90625 2.59375,2.0625 v 0.5625 c 0,0.328125 0,0.46875 -0.953125,0.46875 H 1.875 V 0 c 0.359375,-0.03125 1.28125,-0.03125 1.6875,-0.03125 0.40625,0 1.328125,0 1.6875,0.03125 V -0.3125 H 4.921875 c -0.9375,0 -0.9375,-0.125 -0.9375,-0.46875 z M 3.15625,-1.578125 C 1.734375,-1.765625 1.5625,-2.78125 1.5625,-3.40625 c 0,-0.515625 0.09375,-1.625 1.59375,-1.828125 z M 3.984375,-5.25 c 1.375,0.171875 1.640625,1.078125 1.640625,1.84375 0,0.59375 -0.140625,1.65625 -1.640625,1.84375 z m 0,0"
             id="id-1185fbd1-c4ba-4112-86af-89271e46838e" />
        </g>
      </g>
      <g
         fill="#000000"
         fill-opacity="1"
         id="id-e92c780e-5ffc-4361-b665-5243207132a7"
         transform="translate(-154.54506,-187.90789)">
        <g
           transform="translate(219.506,136.259)"
           id="g4300">
          <path
             d="m 1.4375,-0.84375 c -0.25,0.390625 -0.46875,0.5625 -0.875,0.59375 -0.078125,0 -0.171875,0 -0.171875,0.140625 C 0.390625,-0.03125 0.453125,0 0.5,0 0.671875,0 0.90625,-0.03125 1.09375,-0.03125 1.3125,-0.03125 1.609375,0 1.8125,0 1.84375,0 1.953125,0 1.953125,-0.15625 1.953125,-0.25 1.859375,-0.25 1.828125,-0.25 1.78125,-0.265625 1.53125,-0.265625 1.53125,-0.453125 c 0,-0.09375 0.0625,-0.203125 0.09375,-0.265625 l 0.5625,-0.875 h 2 L 4.34375,-0.4375 C 4.328125,-0.359375 4.28125,-0.25 3.875,-0.25 c -0.09375,0 -0.1875,0 -0.1875,0.15625 C 3.6875,-0.0625 3.703125,0 3.796875,0 4,0 4.5,-0.03125 4.703125,-0.03125 c 0.125,0 0.28125,0.015625 0.40625,0.015625 C 5.234375,-0.015625 5.375,0 5.5,0 5.59375,0 5.640625,-0.0625 5.640625,-0.140625 5.640625,-0.25 5.5625,-0.25 5.453125,-0.25 c -0.40625,0 -0.421875,-0.0625 -0.4375,-0.21875 l -0.625,-4.3125 C 4.375,-4.921875 4.359375,-4.96875 4.234375,-4.96875 4.09375,-4.96875 4.0625,-4.90625 4,-4.8125 Z m 0.921875,-1 L 3.8125,-4.125 4.140625,-1.84375 Z m 0,0"
             id="id-495e0b4c-15d6-48a5-bd7c-0db84ce8ea3d" />
        </g>
      </g>
      <path
         style="opacity:1;fill:none;fill-opacity:1;stroke:#000000;stroke-width:0.467716;stroke-dasharray:none;stroke-opacity:1;marker-end:url(#Arrow2)"
         d="m 51.322588,-45.561536 c 4.21867,-1.727427 8.436943,-3.454691 12.424799,-3.558642 3.987855,-0.103952 7.744542,1.414983 11.500548,2.933642"
         id="path5149"
         inkscape:path-effect="#path-effect5151"
         inkscape:original-d="m 51.322588,-45.561536 c 4.218979,-1.726672 8.437252,-3.453936 12.655065,-5.181893 3.75746,1.519619 7.514147,3.038554 11.270282,4.556893"
         sodipodi:nodetypes="ccc" />
    </g>
    <path
       style="fill:none;fill-opacity:1;stroke:#000000;stroke-width:0.198;stroke-dasharray:none;stroke-opacity:1;marker-end:url(#Arrow2-6)"
       d="m 117.01869,20.366979 c 1.74461,-0.720255 3.48904,-1.440437 5.17312,-1.45688 1.68409,-0.01644 3.30749,0.670671 4.93061,1.357661"
       id="path5149-3"
       inkscape:path-effect="#path-effect5151-5"
       inkscape:original-d="m 117.01869,20.366979 c 1.74474,-0.719935 3.48917,-1.440118 5.23342,-2.160598 1.62373,0.687405 3.24714,1.374517 4.87031,2.061379"
       sodipodi:nodetypes="ccc" />
    <g
       transform="matrix(0.42333399,0,0,0.42333399,23.56587,10.516834)"
       ns13:version="1.8.1"
       ns13:texconverter="xelatex"
       ns13:pdfconverter="inkscape"
       ns13:text="$A'\\cdot A$"
       ns13:preamble="C:\Users\ChoCho\AppData\Roaming\inkscape\extensions\textext\default_packages.tex"
       ns13:scale="1.2"
       ns13:alignment="middle center"
       ns13:stroke-to-path="0"
       ns13:jacobian_sqrt="0.423334"
       id="g6468">
      <defs
         id="id-b5af7cf6-d846-4698-b3f5-0982895e14ae">
        <g
           id="id-77ebe91d-043c-4f81-a2d4-45f508351920">
          <g
             id="id-d2a488d5-98b8-4e7c-9a24-d22dca75694f" />
          <g
             id="id-704f3af1-49c3-4d24-827e-4c3f2598b602">
            <path
               d="M 1.78125,-1.140625 C 1.390625,-0.484375 1,-0.34375 0.5625,-0.3125 0.4375,-0.296875 0.34375,-0.296875 0.34375,-0.109375 0.34375,-0.046875 0.40625,0 0.484375,0 0.75,0 1.0625,-0.03125 1.328125,-0.03125 c 0.34375,0 0.6875,0.03125 1,0.03125 0.0625,0 0.1875,0 0.1875,-0.1875 0,-0.109375 -0.078125,-0.125 -0.15625,-0.125 -0.21875,-0.015625 -0.46875,-0.09375 -0.46875,-0.34375 0,-0.125 0.0625,-0.234375 0.140625,-0.375 l 0.765625,-1.265625 h 2.5 c 0.015625,0.203125 0.15625,1.5625 0.15625,1.65625 0,0.296875 -0.515625,0.328125 -0.71875,0.328125 C 4.59375,-0.3125 4.5,-0.3125 4.5,-0.109375 4.5,0 4.609375,0 4.640625,0 5.046875,0 5.46875,-0.03125 5.875,-0.03125 6.125,-0.03125 6.765625,0 7.015625,0 7.0625,0 7.1875,0 7.1875,-0.203125 7.1875,-0.3125 7.09375,-0.3125 6.953125,-0.3125 6.34375,-0.3125 6.34375,-0.375 6.3125,-0.671875 l -0.609375,-6.21875 c -0.015625,-0.203125 -0.015625,-0.25 -0.1875,-0.25 -0.15625,0 -0.203125,0.078125 -0.265625,0.171875 z M 2.984375,-2.609375 4.9375,-5.90625 5.265625,-2.609375 Z m 0,0"
               id="id-9170b3a5-6256-4881-8d76-b59591fcebd1" />
          </g>
          <g
             id="id-c7ecbedb-cc18-4f70-b1e6-09a1e38dc7c9" />
          <g
             id="id-bd353389-5a8b-4165-a794-f96b99e82288">
            <path
               d="m 2.015625,-3.296875 c 0.0625,-0.109375 0.0625,-0.171875 0.0625,-0.21875 0,-0.21875 -0.1875,-0.375 -0.40625,-0.375 -0.265625,0 -0.34375,0.21875 -0.375,0.328125 L 0.375,-0.546875 c -0.015625,0.015625 -0.046875,0.09375 -0.046875,0.109375 0,0.078125 0.21875,0.15625 0.28125,0.15625 0.046875,0 0.046875,-0.015625 0.09375,-0.125 z m 0,0"
               id="id-6c39de7d-59b1-476b-972d-689528ebe6ed" />
          </g>
          <g
             id="id-6f54cd3e-cae8-4e0b-9a20-4682210b87c3" />
          <g
             id="id-2b6848b2-4de3-410c-91eb-e6a8f2d447ff">
            <path
               d="m 1.90625,-2.5 c 0,-0.28125 -0.234375,-0.515625 -0.515625,-0.515625 -0.296875,0 -0.53125,0.234375 -0.53125,0.515625 0,0.296875 0.234375,0.53125 0.53125,0.53125 0.28125,0 0.515625,-0.234375 0.515625,-0.53125 z m 0,0"
               id="id-2f41f1e4-0dd3-47d6-980b-fe8cc0a4d524" />
          </g>
        </g>
      </defs>
      <g
         fill="#000000"
         fill-opacity="1"
         id="id-27baa795-58a6-4fff-a736-07e3ff8fd6cd"
         transform="translate(-149.056,-127.258)">
        <g
           transform="translate(148.712,134.765)"
           id="g6453">
          <path
             d="M 1.78125,-1.140625 C 1.390625,-0.484375 1,-0.34375 0.5625,-0.3125 0.4375,-0.296875 0.34375,-0.296875 0.34375,-0.109375 0.34375,-0.046875 0.40625,0 0.484375,0 0.75,0 1.0625,-0.03125 1.328125,-0.03125 c 0.34375,0 0.6875,0.03125 1,0.03125 0.0625,0 0.1875,0 0.1875,-0.1875 0,-0.109375 -0.078125,-0.125 -0.15625,-0.125 -0.21875,-0.015625 -0.46875,-0.09375 -0.46875,-0.34375 0,-0.125 0.0625,-0.234375 0.140625,-0.375 l 0.765625,-1.265625 h 2.5 c 0.015625,0.203125 0.15625,1.5625 0.15625,1.65625 0,0.296875 -0.515625,0.328125 -0.71875,0.328125 C 4.59375,-0.3125 4.5,-0.3125 4.5,-0.109375 4.5,0 4.609375,0 4.640625,0 5.046875,0 5.46875,-0.03125 5.875,-0.03125 6.125,-0.03125 6.765625,0 7.015625,0 7.0625,0 7.1875,0 7.1875,-0.203125 7.1875,-0.3125 7.09375,-0.3125 6.953125,-0.3125 6.34375,-0.3125 6.34375,-0.375 6.3125,-0.671875 l -0.609375,-6.21875 c -0.015625,-0.203125 -0.015625,-0.25 -0.1875,-0.25 -0.15625,0 -0.203125,0.078125 -0.265625,0.171875 z M 2.984375,-2.609375 4.9375,-5.90625 5.265625,-2.609375 Z m 0,0"
             id="id-705d0891-f0f1-40a2-8ddd-0ee1e6629a56" />
        </g>
      </g>
      <g
         fill="#000000"
         fill-opacity="1"
         id="id-dfd669aa-aaba-4d47-a9a7-d0223ffa4970"
         transform="translate(-149.056,-127.258)">
        <g
           transform="translate(156.184,131.149)"
           id="g6457">
          <path
             d="m 2.015625,-3.296875 c 0.0625,-0.109375 0.0625,-0.171875 0.0625,-0.21875 0,-0.21875 -0.1875,-0.375 -0.40625,-0.375 -0.265625,0 -0.34375,0.21875 -0.375,0.328125 L 0.375,-0.546875 c -0.015625,0.015625 -0.046875,0.09375 -0.046875,0.109375 0,0.078125 0.21875,0.15625 0.28125,0.15625 0.046875,0 0.046875,-0.015625 0.09375,-0.125 z m 0,0"
             id="id-11520880-e590-4d78-b51c-999b739c5d9d" />
        </g>
      </g>
      <g
         fill="#000000"
         fill-opacity="1"
         id="id-8fd7430b-55fb-4218-ab9a-e376681e3e6b"
         transform="translate(-149.056,-127.258)">
        <g
           transform="translate(161.193,134.765)"
           id="g6461">
          <path
             d="m 1.90625,-2.5 c 0,-0.28125 -0.234375,-0.515625 -0.515625,-0.515625 -0.296875,0 -0.53125,0.234375 -0.53125,0.515625 0,0.296875 0.234375,0.53125 0.53125,0.53125 0.28125,0 0.515625,-0.234375 0.515625,-0.53125 z m 0,0"
             id="id-5355b6ba-d682-43e1-a8ad-4ea38e5533df" />
        </g>
      </g>
      <g
         fill="#000000"
         fill-opacity="1"
         id="id-5173d7a3-2443-4a01-930c-35da99737717"
         transform="translate(-149.056,-127.258)">
        <g
           transform="translate(166.175,134.765)"
           id="g6465">
          <path
             d="M 1.78125,-1.140625 C 1.390625,-0.484375 1,-0.34375 0.5625,-0.3125 0.4375,-0.296875 0.34375,-0.296875 0.34375,-0.109375 0.34375,-0.046875 0.40625,0 0.484375,0 0.75,0 1.0625,-0.03125 1.328125,-0.03125 c 0.34375,0 0.6875,0.03125 1,0.03125 0.0625,0 0.1875,0 0.1875,-0.1875 0,-0.109375 -0.078125,-0.125 -0.15625,-0.125 -0.21875,-0.015625 -0.46875,-0.09375 -0.46875,-0.34375 0,-0.125 0.0625,-0.234375 0.140625,-0.375 l 0.765625,-1.265625 h 2.5 c 0.015625,0.203125 0.15625,1.5625 0.15625,1.65625 0,0.296875 -0.515625,0.328125 -0.71875,0.328125 C 4.59375,-0.3125 4.5,-0.3125 4.5,-0.109375 4.5,0 4.609375,0 4.640625,0 5.046875,0 5.46875,-0.03125 5.875,-0.03125 6.125,-0.03125 6.765625,0 7.015625,0 7.0625,0 7.1875,0 7.1875,-0.203125 7.1875,-0.3125 7.09375,-0.3125 6.953125,-0.3125 6.34375,-0.3125 6.34375,-0.375 6.3125,-0.671875 l -0.609375,-6.21875 c -0.015625,-0.203125 -0.015625,-0.25 -0.1875,-0.25 -0.15625,0 -0.203125,0.078125 -0.265625,0.171875 z M 2.984375,-2.609375 4.9375,-5.90625 5.265625,-2.609375 Z m 0,0"
             id="id-97cfffae-4111-4711-bc5a-41c53de77134" />
        </g>
      </g>
    </g>
    <path
       style="fill:none;stroke:#ff0000;stroke-width:0.65;stroke-dasharray:none"
       d="M 150.07456,29.831781 H 171.5866"
       id="path1149-6"
       sodipodi:nodetypes="cc"
       transform="translate(-1.1895833e-6)" />
    <path
       style="fill:none;stroke:#000000;stroke-width:0.298;stroke-dasharray:none"
       d="m 128.14214,30.255781 h 48.49825"
       id="path291-9-5"
       transform="translate(-1.1895833e-6)" />
    <path
       style="fill:none;stroke:#0000ff;stroke-width:0.65;stroke-dasharray:none"
       d="m 136.1891,29.831781 h 13.58743 l 0.003,-0.64123 1.49822,-0.0088 h 6.45654"
       id="path1149-6-4"
       sodipodi:nodetypes="ccccc"
       transform="translate(-1.1895833e-6)" />
    <g
       transform="matrix(0.42333399,0,0,0.42333399,119.77043,14.151916)"
       ns13:version="1.8.1"
       ns13:texconverter="xelatex"
       ns13:pdfconverter="inkscape"
       ns13:text="$\\Phi_{A'}$"
       ns13:preamble="C:\Users\ChoCho\AppData\Roaming\inkscape\extensions\textext\default_packages.tex"
       ns13:scale="1.2"
       ns13:alignment="middle center"
       ns13:stroke-to-path="0"
       ns13:inkscapeversion="1.2"
       ns13:jacobian_sqrt="0.423334"
       id="g12727">
      <defs
         id="id-3acce797-1301-4432-ae8c-d804069b429e">
        <g
           id="id-da250c76-ce17-468d-aafe-682453256bfc">
          <g
             id="id-4524f2f2-3ff4-4c58-b623-5f3149d85ff5" />
          <g
             id="id-87027ff0-1b07-4333-9f1c-7fab385ed8d4">
            <path
               d="M 3.984375,-1.34375 C 5.515625,-1.46875 6.625,-2.390625 6.625,-3.40625 6.625,-4.4375 5.5,-5.34375 3.984375,-5.46875 v -0.546875 c 0,-0.34375 0,-0.484375 0.9375,-0.484375 H 5.25 v -0.3125 c -0.359375,0.03125 -1.265625,0.03125 -1.6875,0.03125 -0.40625,0 -1.328125,0 -1.6875,-0.03125 V -6.5 h 0.328125 c 0.953125,0 0.953125,0.125 0.953125,0.484375 V -5.46875 C 1.625,-5.3125 0.5625,-4.390625 0.5625,-3.40625 c 0,1.03125 1.109375,1.90625 2.59375,2.0625 v 0.5625 c 0,0.328125 0,0.46875 -0.953125,0.46875 H 1.875 V 0 c 0.359375,-0.03125 1.28125,-0.03125 1.6875,-0.03125 0.40625,0 1.328125,0 1.6875,0.03125 V -0.3125 H 4.921875 c -0.9375,0 -0.9375,-0.125 -0.9375,-0.46875 z M 3.15625,-1.578125 C 1.734375,-1.765625 1.5625,-2.78125 1.5625,-3.40625 c 0,-0.515625 0.09375,-1.625 1.59375,-1.828125 z M 3.984375,-5.25 c 1.375,0.171875 1.640625,1.078125 1.640625,1.84375 0,0.59375 -0.140625,1.65625 -1.640625,1.84375 z m 0,0"
               id="id-ed129eef-22ab-42b2-a3a3-f42e7852b839" />
          </g>
          <g
             id="id-9d072126-2383-4709-b6e6-a97775d94c1f" />
          <g
             id="id-508fd183-5afb-433c-931d-0744b14a6d0f">
            <path
               d="m 1.4375,-0.84375 c -0.25,0.390625 -0.46875,0.5625 -0.875,0.59375 -0.078125,0 -0.171875,0 -0.171875,0.140625 C 0.390625,-0.03125 0.453125,0 0.5,0 0.671875,0 0.90625,-0.03125 1.09375,-0.03125 1.3125,-0.03125 1.609375,0 1.8125,0 1.84375,0 1.953125,0 1.953125,-0.15625 1.953125,-0.25 1.859375,-0.25 1.828125,-0.25 1.78125,-0.265625 1.53125,-0.265625 1.53125,-0.453125 c 0,-0.09375 0.0625,-0.203125 0.09375,-0.265625 l 0.5625,-0.875 h 2 L 4.34375,-0.4375 C 4.328125,-0.359375 4.28125,-0.25 3.875,-0.25 c -0.09375,0 -0.1875,0 -0.1875,0.15625 C 3.6875,-0.0625 3.703125,0 3.796875,0 4,0 4.5,-0.03125 4.703125,-0.03125 c 0.125,0 0.28125,0.015625 0.40625,0.015625 C 5.234375,-0.015625 5.375,0 5.5,0 5.59375,0 5.640625,-0.0625 5.640625,-0.140625 5.640625,-0.25 5.5625,-0.25 5.453125,-0.25 c -0.40625,0 -0.421875,-0.0625 -0.4375,-0.21875 l -0.625,-4.3125 C 4.375,-4.921875 4.359375,-4.96875 4.234375,-4.96875 4.09375,-4.96875 4.0625,-4.90625 4,-4.8125 Z m 0.921875,-1 L 3.8125,-4.125 4.140625,-1.84375 Z m 0,0"
               id="id-9c6ce4fe-14a3-4ec5-b630-d764c2618b97" />
          </g>
          <g
             id="id-96df41ff-6f2c-4cff-999d-04be3fb63460" />
          <g
             id="id-9086b1c0-9d5d-42bd-92b3-9d5f316c8a70">
            <path
               d="m 1.796875,-2.3125 c 0,-0.015625 0.046875,-0.109375 0.046875,-0.1875 0,-0.171875 -0.15625,-0.28125 -0.3125,-0.28125 -0.203125,0 -0.25,0.15625 -0.28125,0.21875 L 0.484375,-0.40625 C 0.46875,-0.34375 0.46875,-0.328125 0.46875,-0.3125 c 0,0.078125 0.203125,0.125 0.203125,0.125 0.046875,0 0.0625,-0.03125 0.09375,-0.09375 z m 0,0"
               id="id-215c53ee-aa62-4a3f-8b8c-d743b3e62767" />
          </g>
        </g>
      </defs>
      <g
         fill="#000000"
         fill-opacity="1"
         id="id-11584b8b-e3b4-45cb-b1f7-3d42a81c384f"
         transform="translate(-149.275,-127.953)">
        <g
           transform="translate(148.712,134.765)"
           id="g12716">
          <path
             d="M 3.984375,-1.34375 C 5.515625,-1.46875 6.625,-2.390625 6.625,-3.40625 6.625,-4.4375 5.5,-5.34375 3.984375,-5.46875 v -0.546875 c 0,-0.34375 0,-0.484375 0.9375,-0.484375 H 5.25 v -0.3125 c -0.359375,0.03125 -1.265625,0.03125 -1.6875,0.03125 -0.40625,0 -1.328125,0 -1.6875,-0.03125 V -6.5 h 0.328125 c 0.953125,0 0.953125,0.125 0.953125,0.484375 V -5.46875 C 1.625,-5.3125 0.5625,-4.390625 0.5625,-3.40625 c 0,1.03125 1.109375,1.90625 2.59375,2.0625 v 0.5625 c 0,0.328125 0,0.46875 -0.953125,0.46875 H 1.875 V 0 c 0.359375,-0.03125 1.28125,-0.03125 1.6875,-0.03125 0.40625,0 1.328125,0 1.6875,0.03125 V -0.3125 H 4.921875 c -0.9375,0 -0.9375,-0.125 -0.9375,-0.46875 z M 3.15625,-1.578125 C 1.734375,-1.765625 1.5625,-2.78125 1.5625,-3.40625 c 0,-0.515625 0.09375,-1.625 1.59375,-1.828125 z M 3.984375,-5.25 c 1.375,0.171875 1.640625,1.078125 1.640625,1.84375 0,0.59375 -0.140625,1.65625 -1.640625,1.84375 z m 0,0"
             id="id-37163652-5aaa-4ba7-81b2-12fd28870274" />
        </g>
      </g>
      <g
         fill="#000000"
         fill-opacity="1"
         id="id-d9529cbf-32c2-4aa1-a55f-7a4a526bfae0"
         transform="translate(-149.275,-127.953)">
        <g
           transform="translate(155.908,136.259)"
           id="g12720">
          <path
             d="m 1.4375,-0.84375 c -0.25,0.390625 -0.46875,0.5625 -0.875,0.59375 -0.078125,0 -0.171875,0 -0.171875,0.140625 C 0.390625,-0.03125 0.453125,0 0.5,0 0.671875,0 0.90625,-0.03125 1.09375,-0.03125 1.3125,-0.03125 1.609375,0 1.8125,0 1.84375,0 1.953125,0 1.953125,-0.15625 1.953125,-0.25 1.859375,-0.25 1.828125,-0.25 1.78125,-0.265625 1.53125,-0.265625 1.53125,-0.453125 c 0,-0.09375 0.0625,-0.203125 0.09375,-0.265625 l 0.5625,-0.875 h 2 L 4.34375,-0.4375 C 4.328125,-0.359375 4.28125,-0.25 3.875,-0.25 c -0.09375,0 -0.1875,0 -0.1875,0.15625 C 3.6875,-0.0625 3.703125,0 3.796875,0 4,0 4.5,-0.03125 4.703125,-0.03125 c 0.125,0 0.28125,0.015625 0.40625,0.015625 C 5.234375,-0.015625 5.375,0 5.5,0 5.59375,0 5.640625,-0.0625 5.640625,-0.140625 5.640625,-0.25 5.5625,-0.25 5.453125,-0.25 c -0.40625,0 -0.421875,-0.0625 -0.4375,-0.21875 l -0.625,-4.3125 C 4.375,-4.921875 4.359375,-4.96875 4.234375,-4.96875 4.09375,-4.96875 4.0625,-4.90625 4,-4.8125 Z m 0.921875,-1 L 3.8125,-4.125 4.140625,-1.84375 Z m 0,0"
             id="id-b2c99968-48dd-4e28-9236-d62584d1b6a0" />
        </g>
      </g>
      <g
         fill="#000000"
         fill-opacity="1"
         id="id-bc3d22c1-0565-469c-ab7e-2ff4c78cb6ef"
         transform="translate(-149.275,-127.953)">
        <g
           transform="translate(161.899,134.267)"
           id="g12724">
          <path
             d="m 1.796875,-2.3125 c 0,-0.015625 0.046875,-0.109375 0.046875,-0.1875 0,-0.171875 -0.15625,-0.28125 -0.3125,-0.28125 -0.203125,0 -0.25,0.15625 -0.28125,0.21875 L 0.484375,-0.40625 C 0.46875,-0.34375 0.46875,-0.328125 0.46875,-0.3125 c 0,0.078125 0.203125,0.125 0.203125,0.125 0.046875,0 0.0625,-0.03125 0.09375,-0.09375 z m 0,0"
             id="id-220c33cb-950f-4d08-9472-28a3f6ef4749" />
        </g>
      </g>
    </g>
    <g
       transform="matrix(0.423334,0,0,0.423334,88.2448,5.2373792)"
       ns13:version="1.8.1"
       ns13:texconverter="xelatex"
       ns13:pdfconverter="inkscape"
       ns13:text="$\\Phi_{A'\\cdot A}$"
       ns13:preamble="C:\Users\ChoCho\AppData\Roaming\inkscape\extensions\textext\default_packages.tex"
       ns13:scale="1.2"
       ns13:alignment="middle center"
       ns13:stroke-to-path="0"
       ns13:inkscapeversion="1.2"
       ns13:jacobian_sqrt="0.423334"
       id="g13425">
      <defs
         id="id-e4d315c2-a876-4c57-b9e8-e9e24dd7d5f9">
        <g
           id="id-ace6dc1a-ee2f-4cd7-afdd-c38d55f87ad9">
          <g
             id="id-9197c836-2e32-4d1f-93a1-050e04031646" />
          <g
             id="id-a5571e4c-2342-4658-bf93-e73c2ef9b94b">
            <path
               d="M 3.984375,-1.34375 C 5.515625,-1.46875 6.625,-2.390625 6.625,-3.40625 6.625,-4.4375 5.5,-5.34375 3.984375,-5.46875 v -0.546875 c 0,-0.34375 0,-0.484375 0.9375,-0.484375 H 5.25 v -0.3125 c -0.359375,0.03125 -1.265625,0.03125 -1.6875,0.03125 -0.40625,0 -1.328125,0 -1.6875,-0.03125 V -6.5 h 0.328125 c 0.953125,0 0.953125,0.125 0.953125,0.484375 V -5.46875 C 1.625,-5.3125 0.5625,-4.390625 0.5625,-3.40625 c 0,1.03125 1.109375,1.90625 2.59375,2.0625 v 0.5625 c 0,0.328125 0,0.46875 -0.953125,0.46875 H 1.875 V 0 c 0.359375,-0.03125 1.28125,-0.03125 1.6875,-0.03125 0.40625,0 1.328125,0 1.6875,0.03125 V -0.3125 H 4.921875 c -0.9375,0 -0.9375,-0.125 -0.9375,-0.46875 z M 3.15625,-1.578125 C 1.734375,-1.765625 1.5625,-2.78125 1.5625,-3.40625 c 0,-0.515625 0.09375,-1.625 1.59375,-1.828125 z M 3.984375,-5.25 c 1.375,0.171875 1.640625,1.078125 1.640625,1.84375 0,0.59375 -0.140625,1.65625 -1.640625,1.84375 z m 0,0"
               id="id-2d83d7ed-8ed5-4607-934f-096552c7e240" />
          </g>
          <g
             id="id-6ca5e6c3-65bf-4b57-aedf-f8ec1c9c8b4a" />
          <g
             id="id-cf58c8bd-4e42-4659-ac88-b40d1c2a831a">
            <path
               d="m 1.4375,-0.84375 c -0.25,0.390625 -0.46875,0.5625 -0.875,0.59375 -0.078125,0 -0.171875,0 -0.171875,0.140625 C 0.390625,-0.03125 0.453125,0 0.5,0 0.671875,0 0.90625,-0.03125 1.09375,-0.03125 1.3125,-0.03125 1.609375,0 1.8125,0 1.84375,0 1.953125,0 1.953125,-0.15625 1.953125,-0.25 1.859375,-0.25 1.828125,-0.25 1.78125,-0.265625 1.53125,-0.265625 1.53125,-0.453125 c 0,-0.09375 0.0625,-0.203125 0.09375,-0.265625 l 0.5625,-0.875 h 2 L 4.34375,-0.4375 C 4.328125,-0.359375 4.28125,-0.25 3.875,-0.25 c -0.09375,0 -0.1875,0 -0.1875,0.15625 C 3.6875,-0.0625 3.703125,0 3.796875,0 4,0 4.5,-0.03125 4.703125,-0.03125 c 0.125,0 0.28125,0.015625 0.40625,0.015625 C 5.234375,-0.015625 5.375,0 5.5,0 5.59375,0 5.640625,-0.0625 5.640625,-0.140625 5.640625,-0.25 5.5625,-0.25 5.453125,-0.25 c -0.40625,0 -0.421875,-0.0625 -0.4375,-0.21875 l -0.625,-4.3125 C 4.375,-4.921875 4.359375,-4.96875 4.234375,-4.96875 4.09375,-4.96875 4.0625,-4.90625 4,-4.8125 Z m 0.921875,-1 L 3.8125,-4.125 4.140625,-1.84375 Z m 0,0"
               id="id-bea9025e-cd85-48b8-ad49-d69cc0942568" />
          </g>
          <g
             id="id-55512eb9-4b41-4247-b6f6-0547ead02ce0" />
          <g
             id="id-3faafe3d-1744-4f95-8722-069d04681be0">
            <path
               d="m 1.796875,-2.3125 c 0,-0.015625 0.046875,-0.109375 0.046875,-0.1875 0,-0.171875 -0.15625,-0.28125 -0.3125,-0.28125 -0.203125,0 -0.25,0.15625 -0.28125,0.21875 L 0.484375,-0.40625 C 0.46875,-0.34375 0.46875,-0.328125 0.46875,-0.3125 c 0,0.078125 0.203125,0.125 0.203125,0.125 0.046875,0 0.0625,-0.03125 0.09375,-0.09375 z m 0,0"
               id="id-08758b46-219d-487d-ac9c-15283d0360d7" />
          </g>
          <g
             id="id-c93e017f-b3c2-4c6f-95bb-71aab766131b" />
          <g
             id="id-684fe470-283f-4ad0-b50c-0130cf61ec10">
            <path
               d="M 1.578125,-1.734375 C 1.578125,-2 1.375,-2.140625 1.1875,-2.140625 c -0.234375,0 -0.40625,0.1875 -0.40625,0.390625 0,0.25 0.203125,0.40625 0.390625,0.40625 0.234375,0 0.40625,-0.1875 0.40625,-0.390625 z m 0,0"
               id="id-c8791ae4-6647-474c-8238-a771a8ac2984" />
          </g>
        </g>
      </defs>
      <g
         fill="#000000"
         fill-opacity="1"
         id="id-5d245222-45bd-4d2d-aba7-f7c84a463bcf"
         transform="translate(-149.275,-127.953)">
        <g
           transform="translate(148.712,134.765)"
           id="g13406">
          <path
             d="M 3.984375,-1.34375 C 5.515625,-1.46875 6.625,-2.390625 6.625,-3.40625 6.625,-4.4375 5.5,-5.34375 3.984375,-5.46875 v -0.546875 c 0,-0.34375 0,-0.484375 0.9375,-0.484375 H 5.25 v -0.3125 c -0.359375,0.03125 -1.265625,0.03125 -1.6875,0.03125 -0.40625,0 -1.328125,0 -1.6875,-0.03125 V -6.5 h 0.328125 c 0.953125,0 0.953125,0.125 0.953125,0.484375 V -5.46875 C 1.625,-5.3125 0.5625,-4.390625 0.5625,-3.40625 c 0,1.03125 1.109375,1.90625 2.59375,2.0625 v 0.5625 c 0,0.328125 0,0.46875 -0.953125,0.46875 H 1.875 V 0 c 0.359375,-0.03125 1.28125,-0.03125 1.6875,-0.03125 0.40625,0 1.328125,0 1.6875,0.03125 V -0.3125 H 4.921875 c -0.9375,0 -0.9375,-0.125 -0.9375,-0.46875 z M 3.15625,-1.578125 C 1.734375,-1.765625 1.5625,-2.78125 1.5625,-3.40625 c 0,-0.515625 0.09375,-1.625 1.59375,-1.828125 z M 3.984375,-5.25 c 1.375,0.171875 1.640625,1.078125 1.640625,1.84375 0,0.59375 -0.140625,1.65625 -1.640625,1.84375 z m 0,0"
             id="id-2fa8bcf2-5c09-46a6-88fc-a95f9731fd5e" />
        </g>
      </g>
      <g
         fill="#000000"
         fill-opacity="1"
         id="id-b1a8dc64-f243-41f1-a46c-a533eb89d162"
         transform="translate(-149.275,-127.953)">
        <g
           transform="translate(155.908,136.259)"
           id="g13410">
          <path
             d="m 1.4375,-0.84375 c -0.25,0.390625 -0.46875,0.5625 -0.875,0.59375 -0.078125,0 -0.171875,0 -0.171875,0.140625 C 0.390625,-0.03125 0.453125,0 0.5,0 0.671875,0 0.90625,-0.03125 1.09375,-0.03125 1.3125,-0.03125 1.609375,0 1.8125,0 1.84375,0 1.953125,0 1.953125,-0.15625 1.953125,-0.25 1.859375,-0.25 1.828125,-0.25 1.78125,-0.265625 1.53125,-0.265625 1.53125,-0.453125 c 0,-0.09375 0.0625,-0.203125 0.09375,-0.265625 l 0.5625,-0.875 h 2 L 4.34375,-0.4375 C 4.328125,-0.359375 4.28125,-0.25 3.875,-0.25 c -0.09375,0 -0.1875,0 -0.1875,0.15625 C 3.6875,-0.0625 3.703125,0 3.796875,0 4,0 4.5,-0.03125 4.703125,-0.03125 c 0.125,0 0.28125,0.015625 0.40625,0.015625 C 5.234375,-0.015625 5.375,0 5.5,0 5.59375,0 5.640625,-0.0625 5.640625,-0.140625 5.640625,-0.25 5.5625,-0.25 5.453125,-0.25 c -0.40625,0 -0.421875,-0.0625 -0.4375,-0.21875 l -0.625,-4.3125 C 4.375,-4.921875 4.359375,-4.96875 4.234375,-4.96875 4.09375,-4.96875 4.0625,-4.90625 4,-4.8125 Z m 0.921875,-1 L 3.8125,-4.125 4.140625,-1.84375 Z m 0,0"
             id="id-5b8235d8-2fe0-472b-93ea-29fc01e06215" />
        </g>
      </g>
      <g
         fill="#000000"
         fill-opacity="1"
         id="id-eb315b14-1b13-4947-9ac0-e177d7df8c85"
         transform="translate(-149.275,-127.953)">
        <g
           transform="translate(161.899,134.267)"
           id="g13414">
          <path
             d="m 1.796875,-2.3125 c 0,-0.015625 0.046875,-0.109375 0.046875,-0.1875 0,-0.171875 -0.15625,-0.28125 -0.3125,-0.28125 -0.203125,0 -0.25,0.15625 -0.28125,0.21875 L 0.484375,-0.40625 C 0.46875,-0.34375 0.46875,-0.328125 0.46875,-0.3125 c 0,0.078125 0.203125,0.125 0.203125,0.125 0.046875,0 0.0625,-0.03125 0.09375,-0.09375 z m 0,0"
             id="id-41d61f4b-6268-4e00-aead-a320a667f2a2" />
        </g>
      </g>
      <g
         fill="#000000"
         fill-opacity="1"
         id="id-864a43ac-48be-4b79-b319-80c4fb4a572a"
         transform="translate(-149.275,-127.953)">
        <g
           transform="translate(164.594,136.259)"
           id="g13418">
          <path
             d="M 1.578125,-1.734375 C 1.578125,-2 1.375,-2.140625 1.1875,-2.140625 c -0.234375,0 -0.40625,0.1875 -0.40625,0.390625 0,0.25 0.203125,0.40625 0.390625,0.40625 0.234375,0 0.40625,-0.1875 0.40625,-0.390625 z m 0,0"
             id="id-41016cdb-94dc-42d2-a092-82cce6f50f0c" />
        </g>
      </g>
      <g
         fill="#000000"
         fill-opacity="1"
         id="id-96e8349f-324d-4728-b3a2-114fb586584d"
         transform="translate(-149.275,-127.953)">
        <g
           transform="translate(166.96,136.259)"
           id="g13422">
          <path
             d="m 1.4375,-0.84375 c -0.25,0.390625 -0.46875,0.5625 -0.875,0.59375 -0.078125,0 -0.171875,0 -0.171875,0.140625 C 0.390625,-0.03125 0.453125,0 0.5,0 0.671875,0 0.90625,-0.03125 1.09375,-0.03125 1.3125,-0.03125 1.609375,0 1.8125,0 1.84375,0 1.953125,0 1.953125,-0.15625 1.953125,-0.25 1.859375,-0.25 1.828125,-0.25 1.78125,-0.265625 1.53125,-0.265625 1.53125,-0.453125 c 0,-0.09375 0.0625,-0.203125 0.09375,-0.265625 l 0.5625,-0.875 h 2 L 4.34375,-0.4375 C 4.328125,-0.359375 4.28125,-0.25 3.875,-0.25 c -0.09375,0 -0.1875,0 -0.1875,0.15625 C 3.6875,-0.0625 3.703125,0 3.796875,0 4,0 4.5,-0.03125 4.703125,-0.03125 c 0.125,0 0.28125,0.015625 0.40625,0.015625 C 5.234375,-0.015625 5.375,0 5.5,0 5.59375,0 5.640625,-0.0625 5.640625,-0.140625 5.640625,-0.25 5.5625,-0.25 5.453125,-0.25 c -0.40625,0 -0.421875,-0.0625 -0.4375,-0.21875 l -0.625,-4.3125 C 4.375,-4.921875 4.359375,-4.96875 4.234375,-4.96875 4.09375,-4.96875 4.0625,-4.90625 4,-4.8125 Z m 0.921875,-1 L 3.8125,-4.125 4.140625,-1.84375 Z m 0,0"
             id="id-1f6fce70-4385-449d-9c5b-d9d2c5d9b0b9" />
        </g>
      </g>
    </g>
    <path
       style="opacity:1;fill:none;stroke:#000000;stroke-width:0.198;marker-end:url(#marker13611)"
       d="M 57.388728,14.430667 C 69.179789,12.122097 80.970408,9.8136135 92.557594,9.7530276 104.14478,9.6924417 115.52751,11.879661 126.91016,14.066865"
       id="path13593"
       inkscape:path-effect="#path-effect13595"
       inkscape:original-d="M 57.388728,14.430667 C 69.179849,12.122402 80.970468,9.8139184 92.761296,7.5050775 104.14474,9.6926486 115.52747,11.879867 126.91016,14.066865"
       sodipodi:nodetypes="ccc" />
  </g>
</svg>
