<?xml version="1.0" encoding="UTF-8" standalone="no"?>
<svg
   width="345.5pt"
   height="312.20099pt"
   viewBox="0 0 345.5 312.20099"
   version="1.1"
   id="svg99"
   sodipodi:docname="SAW.svg"
   inkscape:version="1.2 (dc2aedaf03, 2022-05-15)"
   xmlns:inkscape="http://www.inkscape.org/namespaces/inkscape"
   xmlns:sodipodi="http://sodipodi.sourceforge.net/DTD/sodipodi-0.dtd"
   xmlns="http://www.w3.org/2000/svg"
   xmlns:svg="http://www.w3.org/2000/svg"
   xmlns:ns26="http://www.iki.fi/pav/software/textext/">
  <defs
     id="defs103" />
  <sodipodi:namedview
     id="namedview101"
     pagecolor="#ffffff"
     bordercolor="#999999"
     borderopacity="1"
     inkscape:showpageshadow="0"
     inkscape:pageopacity="0"
     inkscape:pagecheckerboard="0"
     inkscape:deskcolor="#d1d1d1"
     inkscape:document-units="pt"
     showgrid="false"
     inkscape:zoom="1.2063412"
     inkscape:cx="323.29162"
     inkscape:cy="-96.158532"
     inkscape:window-width="1920"
     inkscape:window-height="1017"
     inkscape:window-x="1352"
     inkscape:window-y="-8"
     inkscape:window-maximized="1"
     inkscape:current-layer="g565" />
  <g
     id="surface4"
     transform="translate(-34.75,-34.048808)">
    <path
       style="fill:none;stroke:#000000;stroke-width:1;stroke-linecap:square;stroke-linejoin:miter;stroke-miterlimit:3.25;stroke-opacity:1"
       d="m 409.82031,246.57812 h 34.07813 V 212.5 h -34.07813 v -68.16016 h 34.07813 V 110.26172 H 409.82031 V 76.179688 h -34.08203 v 34.082032 h -34.07812 v 34.07812 h 34.07812 v 34.08203 H 307.57812 V 110.26172 H 273.5 v 34.07812 H 103.10156 V 212.5 h 34.07813 v 34.07812 h 34.08203 V 212.5 h 34.07812 v 34.07812 h 34.08203 v 34.08204 h -34.08203 v 34.07812 h -34.07812 v 34.08203 h -68.16016 v -34.08203 h 34.07813 v -34.07812 h 34.08203"
       transform="translate(-66,-5)"
       id="path2" />
    <path
       style="fill:#97ba5c;fill-opacity:1;fill-rule:evenodd;stroke:none"
       d="m 347.5,242 c 0,-0.92969 -0.36719,-1.82031 -1.02344,-2.47656 C 345.82031,238.86719 344.92969,238.5 344,238.5 c -0.92969,0 -1.82031,0.36719 -2.47656,1.02344 C 340.86719,240.17969 340.5,241.07031 340.5,242 c 0,0.92969 0.36719,1.82031 1.02344,2.47656 0.65625,0.65625 1.54687,1.02344 2.47656,1.02344 0.92969,0 1.82031,-0.36719 2.47656,-1.02344 C 347.13281,243.82031 347.5,242.92969 347.5,242 Z m 0,0"
       id="path4" />
    <path
       style="fill:#e36828;fill-opacity:1;fill-rule:evenodd;stroke:none"
       d="m 108.5,276 c 0,-0.92969 -0.36719,-1.82031 -1.02344,-2.47656 C 106.82031,272.86719 105.92969,272.5 105,272.5 c -0.92969,0 -1.82031,0.36719 -2.47656,1.02344 C 101.86719,274.17969 101.5,275.07031 101.5,276 c 0,0.92969 0.36719,1.82031 1.02344,2.47656 0.65625,0.65625 1.54687,1.02344 2.47656,1.02344 0.92969,0 1.82031,-0.36719 2.47656,-1.02344 C 108.13281,277.82031 108.5,276.92969 108.5,276 Z m 0,0"
       id="path6" />
    <path
       style="fill:#000000;fill-opacity:1;fill-rule:evenodd;stroke:none"
       d="m 380.25,242 c 0,-0.59766 -0.23828,-1.16797 -0.66016,-1.58984 C 379.16797,239.98828 378.59766,239.75 378,239.75 c -0.59766,0 -1.16797,0.23828 -1.58984,0.66016 -0.42188,0.42187 -0.66016,0.99218 -0.66016,1.58984 0,0.59766 0.23828,1.16797 0.66016,1.58984 0.42187,0.42188 0.99218,0.66016 1.58984,0.66016 0.59766,0 1.16797,-0.23828 1.58984,-0.66016 C 380.01172,243.16797 380.25,242.59766 380.25,242 Z m 0,0"
       id="path8" />
    <path
       style="fill:#000000;fill-opacity:1;fill-rule:evenodd;stroke:none"
       d="m 380.25,207 c 0,-0.59766 -0.23828,-1.16797 -0.66016,-1.58984 C 379.16797,204.98828 378.59766,204.75 378,204.75 c -0.59766,0 -1.16797,0.23828 -1.58984,0.66016 -0.42188,0.42187 -0.66016,0.99218 -0.66016,1.58984 0,0.59766 0.23828,1.16797 0.66016,1.58984 0.42187,0.42188 0.99218,0.66016 1.58984,0.66016 0.59766,0 1.16797,-0.23828 1.58984,-0.66016 C 380.01172,208.16797 380.25,207.59766 380.25,207 Z m 0,0"
       id="path10" />
    <path
       style="fill:#000000;fill-opacity:1;fill-rule:evenodd;stroke:none"
       d="m 346.25,207 c 0,-0.59766 -0.23828,-1.16797 -0.66016,-1.58984 C 345.16797,204.98828 344.59766,204.75 344,204.75 c -0.59766,0 -1.16797,0.23828 -1.58984,0.66016 -0.42188,0.42187 -0.66016,0.99218 -0.66016,1.58984 0,0.59766 0.23828,1.16797 0.66016,1.58984 0.42187,0.42188 0.99218,0.66016 1.58984,0.66016 0.59766,0 1.16797,-0.23828 1.58984,-0.66016 C 346.01172,208.16797 346.25,207.59766 346.25,207 Z m 0,0"
       id="path12" />
    <path
       style="fill:#000000;fill-opacity:1;fill-rule:evenodd;stroke:none"
       d="m 346.25,173 c 0,-0.59766 -0.23828,-1.16797 -0.66016,-1.58984 C 345.16797,170.98828 344.59766,170.75 344,170.75 c -0.59766,0 -1.16797,0.23828 -1.58984,0.66016 -0.42188,0.42187 -0.66016,0.99218 -0.66016,1.58984 0,0.59766 0.23828,1.16797 0.66016,1.58984 0.42187,0.42188 0.99218,0.66016 1.58984,0.66016 0.59766,0 1.16797,-0.23828 1.58984,-0.66016 C 346.01172,174.16797 346.25,173.59766 346.25,173 Z m 0,0"
       id="path14" />
    <path
       style="fill:#000000;fill-opacity:1;fill-rule:evenodd;stroke:none"
       d="m 346.25,139 c 0,-0.59766 -0.23828,-1.16797 -0.66016,-1.58984 C 345.16797,136.98828 344.59766,136.75 344,136.75 c -0.59766,0 -1.16797,0.23828 -1.58984,0.66016 -0.42188,0.42187 -0.66016,0.99218 -0.66016,1.58984 0,0.59766 0.23828,1.16797 0.66016,1.58984 0.42187,0.42188 0.99218,0.66016 1.58984,0.66016 0.59766,0 1.16797,-0.23828 1.58984,-0.66016 C 346.01172,140.16797 346.25,139.59766 346.25,139 Z m 0,0"
       id="path16" />
    <path
       style="fill:#000000;fill-opacity:1;fill-rule:evenodd;stroke:none"
       d="m 380.25,139 c 0,-0.59766 -0.23828,-1.16797 -0.66016,-1.58984 C 379.16797,136.98828 378.59766,136.75 378,136.75 c -0.59766,0 -1.16797,0.23828 -1.58984,0.66016 -0.42188,0.42187 -0.66016,0.99218 -0.66016,1.58984 0,0.59766 0.23828,1.16797 0.66016,1.58984 0.42187,0.42188 0.99218,0.66016 1.58984,0.66016 0.59766,0 1.16797,-0.23828 1.58984,-0.66016 C 380.01172,140.16797 380.25,139.59766 380.25,139 Z m 0,0"
       id="path18" />
    <path
       style="fill:#000000;fill-opacity:1;fill-rule:evenodd;stroke:none"
       d="m 380.25,105 c 0,-0.59766 -0.23828,-1.16797 -0.66016,-1.58984 C 379.16797,102.98828 378.59766,102.75 378,102.75 c -0.59766,0 -1.16797,0.23828 -1.58984,0.66016 -0.42188,0.42187 -0.66016,0.99218 -0.66016,1.58984 0,0.59766 0.23828,1.16797 0.66016,1.58984 0.42187,0.42188 0.99218,0.66016 1.58984,0.66016 0.59766,0 1.16797,-0.23828 1.58984,-0.66016 C 380.01172,106.16797 380.25,105.59766 380.25,105 Z m 0,0"
       id="path20" />
    <path
       style="fill:#000000;fill-opacity:1;fill-rule:evenodd;stroke:none"
       d="m 346.25,105 c 0,-0.59766 -0.23828,-1.16797 -0.66016,-1.58984 C 345.16797,102.98828 344.59766,102.75 344,102.75 c -0.59766,0 -1.16797,0.23828 -1.58984,0.66016 -0.42188,0.42187 -0.66016,0.99218 -0.66016,1.58984 0,0.59766 0.23828,1.16797 0.66016,1.58984 0.42187,0.42188 0.99218,0.66016 1.58984,0.66016 0.59766,0 1.16797,-0.23828 1.58984,-0.66016 C 346.01172,106.16797 346.25,105.59766 346.25,105 Z m 0,0"
       id="path22" />
    <path
       style="fill:#000000;fill-opacity:1;fill-rule:evenodd;stroke:none"
       d="m 346.25,71 c 0,-0.597656 -0.23828,-1.167969 -0.66016,-1.589844 C 345.16797,68.988281 344.59766,68.75 344,68.75 c -0.59766,0 -1.16797,0.238281 -1.58984,0.660156 C 341.98828,69.832031 341.75,70.402344 341.75,71 c 0,0.597656 0.23828,1.167969 0.66016,1.589844 C 342.83203,73.011719 343.40234,73.25 344,73.25 c 0.59766,0 1.16797,-0.238281 1.58984,-0.660156 C 346.01172,72.167969 346.25,71.597656 346.25,71 Z m 0,0"
       id="path24" />
    <path
       style="fill:#000000;fill-opacity:1;fill-rule:evenodd;stroke:none"
       d="m 312.25,71 c 0,-0.597656 -0.23828,-1.167969 -0.66016,-1.589844 C 311.16797,68.988281 310.59766,68.75 310,68.75 c -0.59766,0 -1.16797,0.238281 -1.58984,0.660156 C 307.98828,69.832031 307.75,70.402344 307.75,71 c 0,0.597656 0.23828,1.167969 0.66016,1.589844 C 308.83203,73.011719 309.40234,73.25 310,73.25 c 0.59766,0 1.16797,-0.238281 1.58984,-0.660156 C 312.01172,72.167969 312.25,71.597656 312.25,71 Z m 0,0"
       id="path26" />
    <path
       style="fill:#000000;fill-opacity:1;fill-rule:evenodd;stroke:none"
       d="m 312.25,105 c 0,-0.59766 -0.23828,-1.16797 -0.66016,-1.58984 C 311.16797,102.98828 310.59766,102.75 310,102.75 c -0.59766,0 -1.16797,0.23828 -1.58984,0.66016 -0.42188,0.42187 -0.66016,0.99218 -0.66016,1.58984 0,0.59766 0.23828,1.16797 0.66016,1.58984 0.42187,0.42188 0.99218,0.66016 1.58984,0.66016 0.59766,0 1.16797,-0.23828 1.58984,-0.66016 C 312.01172,106.16797 312.25,105.59766 312.25,105 Z m 0,0"
       id="path28" />
    <path
       style="fill:#000000;fill-opacity:1;fill-rule:evenodd;stroke:none"
       d="m 278.25,105 c 0,-0.59766 -0.23828,-1.16797 -0.66016,-1.58984 C 277.16797,102.98828 276.59766,102.75 276,102.75 c -0.59766,0 -1.16797,0.23828 -1.58984,0.66016 -0.42188,0.42187 -0.66016,0.99218 -0.66016,1.58984 0,0.59766 0.23828,1.16797 0.66016,1.58984 0.42187,0.42188 0.99218,0.66016 1.58984,0.66016 0.59766,0 1.16797,-0.23828 1.58984,-0.66016 C 278.01172,106.16797 278.25,105.59766 278.25,105 Z m 0,0"
       id="path30" />
    <path
       style="fill:#000000;fill-opacity:1;fill-rule:evenodd;stroke:none"
       d="m 278.25,139 c 0,-0.59766 -0.23828,-1.16797 -0.66016,-1.58984 C 277.16797,136.98828 276.59766,136.75 276,136.75 c -0.59766,0 -1.16797,0.23828 -1.58984,0.66016 -0.42188,0.42187 -0.66016,0.99218 -0.66016,1.58984 0,0.59766 0.23828,1.16797 0.66016,1.58984 0.42187,0.42188 0.99218,0.66016 1.58984,0.66016 0.59766,0 1.16797,-0.23828 1.58984,-0.66016 C 278.01172,140.16797 278.25,139.59766 278.25,139 Z m 0,0"
       id="path32" />
    <path
       style="fill:#000000;fill-opacity:1;fill-rule:evenodd;stroke:none"
       d="m 312.25,139 c 0,-0.59766 -0.23828,-1.16797 -0.66016,-1.58984 C 311.16797,136.98828 310.59766,136.75 310,136.75 c -0.59766,0 -1.16797,0.23828 -1.58984,0.66016 -0.42188,0.42187 -0.66016,0.99218 -0.66016,1.58984 0,0.59766 0.23828,1.16797 0.66016,1.58984 0.42187,0.42188 0.99218,0.66016 1.58984,0.66016 0.59766,0 1.16797,-0.23828 1.58984,-0.66016 C 312.01172,140.16797 312.25,139.59766 312.25,139 Z m 0,0"
       id="path34" />
    <path
       style="fill:#000000;fill-opacity:1;fill-rule:evenodd;stroke:none"
       d="m 312.25,173 c 0,-0.59766 -0.23828,-1.16797 -0.66016,-1.58984 C 311.16797,170.98828 310.59766,170.75 310,170.75 c -0.59766,0 -1.16797,0.23828 -1.58984,0.66016 -0.42188,0.42187 -0.66016,0.99218 -0.66016,1.58984 0,0.59766 0.23828,1.16797 0.66016,1.58984 0.42187,0.42188 0.99218,0.66016 1.58984,0.66016 0.59766,0 1.16797,-0.23828 1.58984,-0.66016 C 312.01172,174.16797 312.25,173.59766 312.25,173 Z m 0,0"
       id="path36" />
    <path
       style="fill:#000000;fill-opacity:1;fill-rule:evenodd;stroke:none"
       d="m 278.25,173 c 0,-0.59766 -0.23828,-1.16797 -0.66016,-1.58984 C 277.16797,170.98828 276.59766,170.75 276,170.75 c -0.59766,0 -1.16797,0.23828 -1.58984,0.66016 -0.42188,0.42187 -0.66016,0.99218 -0.66016,1.58984 0,0.59766 0.23828,1.16797 0.66016,1.58984 0.42187,0.42188 0.99218,0.66016 1.58984,0.66016 0.59766,0 1.16797,-0.23828 1.58984,-0.66016 C 278.01172,174.16797 278.25,173.59766 278.25,173 Z m 0,0"
       id="path38" />
    <path
       style="fill:#000000;fill-opacity:1;fill-rule:evenodd;stroke:none"
       d="m 244.25,173 c 0,-0.59766 -0.23828,-1.16797 -0.66016,-1.58984 C 243.16797,170.98828 242.59766,170.75 242,170.75 c -0.59766,0 -1.16797,0.23828 -1.58984,0.66016 -0.42188,0.42187 -0.66016,0.99218 -0.66016,1.58984 0,0.59766 0.23828,1.16797 0.66016,1.58984 0.42187,0.42188 0.99218,0.66016 1.58984,0.66016 0.59766,0 1.16797,-0.23828 1.58984,-0.66016 C 244.01172,174.16797 244.25,173.59766 244.25,173 Z m 0,0"
       id="path40" />
    <path
       style="fill:#000000;fill-opacity:1;fill-rule:evenodd;stroke:none"
       d="m 244.25,139 c 0,-0.59766 -0.23828,-1.16797 -0.66016,-1.58984 C 243.16797,136.98828 242.59766,136.75 242,136.75 c -0.59766,0 -1.16797,0.23828 -1.58984,0.66016 -0.42188,0.42187 -0.66016,0.99218 -0.66016,1.58984 0,0.59766 0.23828,1.16797 0.66016,1.58984 0.42187,0.42188 0.99218,0.66016 1.58984,0.66016 0.59766,0 1.16797,-0.23828 1.58984,-0.66016 C 244.01172,140.16797 244.25,139.59766 244.25,139 Z m 0,0"
       id="path42" />
    <path
       style="fill:#000000;fill-opacity:1;fill-rule:evenodd;stroke:none"
       d="m 244.25,105 c 0,-0.59766 -0.23828,-1.16797 -0.66016,-1.58984 C 243.16797,102.98828 242.59766,102.75 242,102.75 c -0.59766,0 -1.16797,0.23828 -1.58984,0.66016 -0.42188,0.42187 -0.66016,0.99218 -0.66016,1.58984 0,0.59766 0.23828,1.16797 0.66016,1.58984 0.42187,0.42188 0.99218,0.66016 1.58984,0.66016 0.59766,0 1.16797,-0.23828 1.58984,-0.66016 C 244.01172,106.16797 244.25,105.59766 244.25,105 Z m 0,0"
       id="path44" />
    <path
       style="fill:#000000;fill-opacity:1;fill-rule:evenodd;stroke:none"
       d="m 210.25,105 c 0,-0.59766 -0.23828,-1.16797 -0.66016,-1.58984 C 209.16797,102.98828 208.59766,102.75 208,102.75 c -0.59766,0 -1.16797,0.23828 -1.58984,0.66016 -0.42188,0.42187 -0.66016,0.99218 -0.66016,1.58984 0,0.59766 0.23828,1.16797 0.66016,1.58984 0.42187,0.42188 0.99218,0.66016 1.58984,0.66016 0.59766,0 1.16797,-0.23828 1.58984,-0.66016 C 210.01172,106.16797 210.25,105.59766 210.25,105 Z m 0,0"
       id="path46" />
    <path
       style="fill:#000000;fill-opacity:1;fill-rule:evenodd;stroke:none"
       d="m 210.25,139 c 0,-0.59766 -0.23828,-1.16797 -0.66016,-1.58984 C 209.16797,136.98828 208.59766,136.75 208,136.75 c -0.59766,0 -1.16797,0.23828 -1.58984,0.66016 -0.42188,0.42187 -0.66016,0.99218 -0.66016,1.58984 0,0.59766 0.23828,1.16797 0.66016,1.58984 0.42187,0.42188 0.99218,0.66016 1.58984,0.66016 0.59766,0 1.16797,-0.23828 1.58984,-0.66016 C 210.01172,140.16797 210.25,139.59766 210.25,139 Z m 0,0"
       id="path48" />
    <path
       style="fill:#000000;fill-opacity:1;fill-rule:evenodd;stroke:none"
       d="m 175.25,139 c 0,-0.59766 -0.23828,-1.16797 -0.66016,-1.58984 C 174.16797,136.98828 173.59766,136.75 173,136.75 c -0.59766,0 -1.16797,0.23828 -1.58984,0.66016 -0.42188,0.42187 -0.66016,0.99218 -0.66016,1.58984 0,0.59766 0.23828,1.16797 0.66016,1.58984 0.42187,0.42188 0.99218,0.66016 1.58984,0.66016 0.59766,0 1.16797,-0.23828 1.58984,-0.66016 C 175.01172,140.16797 175.25,139.59766 175.25,139 Z m 0,0"
       id="path50" />
    <path
       style="fill:#000000;fill-opacity:1;fill-rule:evenodd;stroke:none"
       d="m 141.25,139 c 0,-0.59766 -0.23828,-1.16797 -0.66016,-1.58984 C 140.16797,136.98828 139.59766,136.75 139,136.75 c -0.59766,0 -1.16797,0.23828 -1.58984,0.66016 -0.42188,0.42187 -0.66016,0.99218 -0.66016,1.58984 0,0.59766 0.23828,1.16797 0.66016,1.58984 0.42187,0.42188 0.99218,0.66016 1.58984,0.66016 0.59766,0 1.16797,-0.23828 1.58984,-0.66016 C 141.01172,140.16797 141.25,139.59766 141.25,139 Z m 0,0"
       id="path52" />
    <path
       style="fill:#000000;fill-opacity:1;fill-rule:evenodd;stroke:none"
       d="m 107.25,139 c 0,-0.59766 -0.23828,-1.16797 -0.66016,-1.58984 C 106.16797,136.98828 105.59766,136.75 105,136.75 c -0.59766,0 -1.16797,0.23828 -1.58984,0.66016 -0.42188,0.42187 -0.66016,0.99218 -0.66016,1.58984 0,0.59766 0.23828,1.16797 0.66016,1.58984 0.42187,0.42188 0.99218,0.66016 1.58984,0.66016 0.59766,0 1.16797,-0.23828 1.58984,-0.66016 C 107.01172,140.16797 107.25,139.59766 107.25,139 Z m 0,0"
       id="path54" />
    <path
       style="fill:#000000;fill-opacity:1;fill-rule:evenodd;stroke:none"
       d="m 73.25,139 c 0,-0.59766 -0.238281,-1.16797 -0.660156,-1.58984 C 72.167969,136.98828 71.597656,136.75 71,136.75 c -0.597656,0 -1.167969,0.23828 -1.589844,0.66016 C 68.988281,137.83203 68.75,138.40234 68.75,139 c 0,0.59766 0.238281,1.16797 0.660156,1.58984 0.421875,0.42188 0.992188,0.66016 1.589844,0.66016 0.597656,0 1.167969,-0.23828 1.589844,-0.66016 C 73.011719,140.16797 73.25,139.59766 73.25,139 Z m 0,0"
       id="path56" />
    <path
       style="fill:#000000;fill-opacity:1;fill-rule:evenodd;stroke:none"
       d="m 39.25,139 c 0,-0.59766 -0.238281,-1.16797 -0.660156,-1.58984 C 38.167969,136.98828 37.597656,136.75 37,136.75 c -0.597656,0 -1.167969,0.23828 -1.589844,0.66016 C 34.988281,137.83203 34.75,138.40234 34.75,139 c 0,0.59766 0.238281,1.16797 0.660156,1.58984 0.421875,0.42188 0.992188,0.66016 1.589844,0.66016 0.597656,0 1.167969,-0.23828 1.589844,-0.66016 C 39.011719,140.16797 39.25,139.59766 39.25,139 Z m 0,0"
       id="path58" />
    <path
       style="fill:#000000;fill-opacity:1;fill-rule:evenodd;stroke:none"
       d="m 39.25,173 c 0,-0.59766 -0.238281,-1.16797 -0.660156,-1.58984 C 38.167969,170.98828 37.597656,170.75 37,170.75 c -0.597656,0 -1.167969,0.23828 -1.589844,0.66016 C 34.988281,171.83203 34.75,172.40234 34.75,173 c 0,0.59766 0.238281,1.16797 0.660156,1.58984 0.421875,0.42188 0.992188,0.66016 1.589844,0.66016 0.597656,0 1.167969,-0.23828 1.589844,-0.66016 C 39.011719,174.16797 39.25,173.59766 39.25,173 Z m 0,0"
       id="path60" />
    <path
       style="fill:#000000;fill-opacity:1;fill-rule:evenodd;stroke:none"
       d="m 39.25,207 c 0,-0.59766 -0.238281,-1.16797 -0.660156,-1.58984 C 38.167969,204.98828 37.597656,204.75 37,204.75 c -0.597656,0 -1.167969,0.23828 -1.589844,0.66016 C 34.988281,205.83203 34.75,206.40234 34.75,207 c 0,0.59766 0.238281,1.16797 0.660156,1.58984 0.421875,0.42188 0.992188,0.66016 1.589844,0.66016 0.597656,0 1.167969,-0.23828 1.589844,-0.66016 C 39.011719,208.16797 39.25,207.59766 39.25,207 Z m 0,0"
       id="path62" />
    <path
       style="fill:#000000;fill-opacity:1;fill-rule:evenodd;stroke:none"
       d="m 73.25,207 c 0,-0.59766 -0.238281,-1.16797 -0.660156,-1.58984 C 72.167969,204.98828 71.597656,204.75 71,204.75 c -0.597656,0 -1.167969,0.23828 -1.589844,0.66016 C 68.988281,205.83203 68.75,206.40234 68.75,207 c 0,0.59766 0.238281,1.16797 0.660156,1.58984 0.421875,0.42188 0.992188,0.66016 1.589844,0.66016 0.597656,0 1.167969,-0.23828 1.589844,-0.66016 C 73.011719,208.16797 73.25,207.59766 73.25,207 Z m 0,0"
       id="path64" />
    <path
       style="fill:#000000;fill-opacity:1;fill-rule:evenodd;stroke:none"
       d="m 73.25,242 c 0,-0.59766 -0.238281,-1.16797 -0.660156,-1.58984 C 72.167969,239.98828 71.597656,239.75 71,239.75 c -0.597656,0 -1.167969,0.23828 -1.589844,0.66016 C 68.988281,240.83203 68.75,241.40234 68.75,242 c 0,0.59766 0.238281,1.16797 0.660156,1.58984 0.421875,0.42188 0.992188,0.66016 1.589844,0.66016 0.597656,0 1.167969,-0.23828 1.589844,-0.66016 C 73.011719,243.16797 73.25,242.59766 73.25,242 Z m 0,0"
       id="path66" />
    <path
       style="fill:#000000;fill-opacity:1;fill-rule:evenodd;stroke:none"
       d="m 107.25,242 c 0,-0.59766 -0.23828,-1.16797 -0.66016,-1.58984 C 106.16797,239.98828 105.59766,239.75 105,239.75 c -0.59766,0 -1.16797,0.23828 -1.58984,0.66016 -0.42188,0.42187 -0.66016,0.99218 -0.66016,1.58984 0,0.59766 0.23828,1.16797 0.66016,1.58984 0.42187,0.42188 0.99218,0.66016 1.58984,0.66016 0.59766,0 1.16797,-0.23828 1.58984,-0.66016 C 107.01172,243.16797 107.25,242.59766 107.25,242 Z m 0,0"
       id="path68" />
    <path
       style="fill:#000000;fill-opacity:1;fill-rule:evenodd;stroke:none"
       d="m 107.25,207 c 0,-0.59766 -0.23828,-1.16797 -0.66016,-1.58984 C 106.16797,204.98828 105.59766,204.75 105,204.75 c -0.59766,0 -1.16797,0.23828 -1.58984,0.66016 -0.42188,0.42187 -0.66016,0.99218 -0.66016,1.58984 0,0.59766 0.23828,1.16797 0.66016,1.58984 0.42187,0.42188 0.99218,0.66016 1.58984,0.66016 0.59766,0 1.16797,-0.23828 1.58984,-0.66016 C 107.01172,208.16797 107.25,207.59766 107.25,207 Z m 0,0"
       id="path70" />
    <path
       style="fill:#000000;fill-opacity:1;fill-rule:evenodd;stroke:none"
       d="m 141.25,207 c 0,-0.59766 -0.23828,-1.16797 -0.66016,-1.58984 C 140.16797,204.98828 139.59766,204.75 139,204.75 c -0.59766,0 -1.16797,0.23828 -1.58984,0.66016 -0.42188,0.42187 -0.66016,0.99218 -0.66016,1.58984 0,0.59766 0.23828,1.16797 0.66016,1.58984 0.42187,0.42188 0.99218,0.66016 1.58984,0.66016 0.59766,0 1.16797,-0.23828 1.58984,-0.66016 C 141.01172,208.16797 141.25,207.59766 141.25,207 Z m 0,0"
       id="path72" />
    <path
       style="fill:#000000;fill-opacity:1;fill-rule:evenodd;stroke:none"
       d="m 141.25,242 c 0,-0.59766 -0.23828,-1.16797 -0.66016,-1.58984 C 140.16797,239.98828 139.59766,239.75 139,239.75 c -0.59766,0 -1.16797,0.23828 -1.58984,0.66016 -0.42188,0.42187 -0.66016,0.99218 -0.66016,1.58984 0,0.59766 0.23828,1.16797 0.66016,1.58984 0.42187,0.42188 0.99218,0.66016 1.58984,0.66016 0.59766,0 1.16797,-0.23828 1.58984,-0.66016 C 141.01172,243.16797 141.25,242.59766 141.25,242 Z m 0,0"
       id="path74" />
    <path
       style="fill:#000000;fill-opacity:1;fill-rule:evenodd;stroke:none"
       d="m 175.25,242 c 0,-0.59766 -0.23828,-1.16797 -0.66016,-1.58984 C 174.16797,239.98828 173.59766,239.75 173,239.75 c -0.59766,0 -1.16797,0.23828 -1.58984,0.66016 -0.42188,0.42187 -0.66016,0.99218 -0.66016,1.58984 0,0.59766 0.23828,1.16797 0.66016,1.58984 0.42187,0.42188 0.99218,0.66016 1.58984,0.66016 0.59766,0 1.16797,-0.23828 1.58984,-0.66016 C 175.01172,243.16797 175.25,242.59766 175.25,242 Z m 0,0"
       id="path76" />
    <path
       style="fill:#000000;fill-opacity:1;fill-rule:evenodd;stroke:none"
       d="m 175.25,276 c 0,-0.59766 -0.23828,-1.16797 -0.66016,-1.58984 C 174.16797,273.98828 173.59766,273.75 173,273.75 c -0.59766,0 -1.16797,0.23828 -1.58984,0.66016 -0.42188,0.42187 -0.66016,0.99218 -0.66016,1.58984 0,0.59766 0.23828,1.16797 0.66016,1.58984 0.42187,0.42188 0.99218,0.66016 1.58984,0.66016 0.59766,0 1.16797,-0.23828 1.58984,-0.66016 C 175.01172,277.16797 175.25,276.59766 175.25,276 Z m 0,0"
       id="path78" />
    <path
       style="fill:#000000;fill-opacity:1;fill-rule:evenodd;stroke:none"
       d="m 141.25,276 c 0,-0.59766 -0.23828,-1.16797 -0.66016,-1.58984 C 140.16797,273.98828 139.59766,273.75 139,273.75 c -0.59766,0 -1.16797,0.23828 -1.58984,0.66016 -0.42188,0.42187 -0.66016,0.99218 -0.66016,1.58984 0,0.59766 0.23828,1.16797 0.66016,1.58984 0.42187,0.42188 0.99218,0.66016 1.58984,0.66016 0.59766,0 1.16797,-0.23828 1.58984,-0.66016 C 141.01172,277.16797 141.25,276.59766 141.25,276 Z m 0,0"
       id="path80" />
    <path
       style="fill:#000000;fill-opacity:1;fill-rule:evenodd;stroke:none"
       d="m 141.25,310 c 0,-0.59766 -0.23828,-1.16797 -0.66016,-1.58984 C 140.16797,307.98828 139.59766,307.75 139,307.75 c -0.59766,0 -1.16797,0.23828 -1.58984,0.66016 -0.42188,0.42187 -0.66016,0.99218 -0.66016,1.58984 0,0.59766 0.23828,1.16797 0.66016,1.58984 0.42187,0.42188 0.99218,0.66016 1.58984,0.66016 0.59766,0 1.16797,-0.23828 1.58984,-0.66016 C 141.01172,311.16797 141.25,310.59766 141.25,310 Z m 0,0"
       id="path82" />
    <path
       style="fill:#000000;fill-opacity:1;fill-rule:evenodd;stroke:none"
       d="m 107.25,310 c 0,-0.59766 -0.23828,-1.16797 -0.66016,-1.58984 C 106.16797,307.98828 105.59766,307.75 105,307.75 c -0.59766,0 -1.16797,0.23828 -1.58984,0.66016 -0.42188,0.42187 -0.66016,0.99218 -0.66016,1.58984 0,0.59766 0.23828,1.16797 0.66016,1.58984 0.42187,0.42188 0.99218,0.66016 1.58984,0.66016 0.59766,0 1.16797,-0.23828 1.58984,-0.66016 C 107.01172,311.16797 107.25,310.59766 107.25,310 Z m 0,0"
       id="path84" />
    <path
       style="fill:#000000;fill-opacity:1;fill-rule:evenodd;stroke:none"
       d="m 107.25,344 c 0,-0.59766 -0.23828,-1.16797 -0.66016,-1.58984 C 106.16797,341.98828 105.59766,341.75 105,341.75 c -0.59766,0 -1.16797,0.23828 -1.58984,0.66016 -0.42188,0.42187 -0.66016,0.99218 -0.66016,1.58984 0,0.59766 0.23828,1.16797 0.66016,1.58984 0.42187,0.42188 0.99218,0.66016 1.58984,0.66016 0.59766,0 1.16797,-0.23828 1.58984,-0.66016 C 107.01172,345.16797 107.25,344.59766 107.25,344 Z m 0,0"
       id="path86" />
    <path
       style="fill:#000000;fill-opacity:1;fill-rule:evenodd;stroke:none"
       d="m 73.25,344 c 0,-0.59766 -0.238281,-1.16797 -0.660156,-1.58984 C 72.167969,341.98828 71.597656,341.75 71,341.75 c -0.597656,0 -1.167969,0.23828 -1.589844,0.66016 C 68.988281,342.83203 68.75,343.40234 68.75,344 c 0,0.59766 0.238281,1.16797 0.660156,1.58984 0.421875,0.42188 0.992188,0.66016 1.589844,0.66016 0.597656,0 1.167969,-0.23828 1.589844,-0.66016 C 73.011719,345.16797 73.25,344.59766 73.25,344 Z m 0,0"
       id="path88" />
    <path
       style="fill:#000000;fill-opacity:1;fill-rule:evenodd;stroke:none"
       d="m 39.25,344 c 0,-0.59766 -0.238281,-1.16797 -0.660156,-1.58984 C 38.167969,341.98828 37.597656,341.75 37,341.75 c -0.597656,0 -1.167969,0.23828 -1.589844,0.66016 C 34.988281,342.83203 34.75,343.40234 34.75,344 c 0,0.59766 0.238281,1.16797 0.660156,1.58984 0.421875,0.42188 0.992188,0.66016 1.589844,0.66016 0.597656,0 1.167969,-0.23828 1.589844,-0.66016 C 39.011719,345.16797 39.25,344.59766 39.25,344 Z m 0,0"
       id="path90" />
    <path
       style="fill:#000000;fill-opacity:1;fill-rule:evenodd;stroke:none"
       d="m 39.25,310 c 0,-0.59766 -0.238281,-1.16797 -0.660156,-1.58984 C 38.167969,307.98828 37.597656,307.75 37,307.75 c -0.597656,0 -1.167969,0.23828 -1.589844,0.66016 C 34.988281,308.83203 34.75,309.40234 34.75,310 c 0,0.59766 0.238281,1.16797 0.660156,1.58984 0.421875,0.42188 0.992188,0.66016 1.589844,0.66016 0.597656,0 1.167969,-0.23828 1.589844,-0.66016 C 39.011719,311.16797 39.25,310.59766 39.25,310 Z m 0,0"
       id="path92" />
    <path
       style="fill:#000000;fill-opacity:1;fill-rule:evenodd;stroke:none"
       d="m 73.25,310 c 0,-0.59766 -0.238281,-1.16797 -0.660156,-1.58984 C 72.167969,307.98828 71.597656,307.75 71,307.75 c -0.597656,0 -1.167969,0.23828 -1.589844,0.66016 C 68.988281,308.83203 68.75,309.40234 68.75,310 c 0,0.59766 0.238281,1.16797 0.660156,1.58984 0.421875,0.42188 0.992188,0.66016 1.589844,0.66016 0.597656,0 1.167969,-0.23828 1.589844,-0.66016 C 73.011719,311.16797 73.25,310.59766 73.25,310 Z m 0,0"
       id="path94" />
    <path
       style="fill:#000000;fill-opacity:1;fill-rule:evenodd;stroke:none"
       d="m 73.25,276 c 0,-0.59766 -0.238281,-1.16797 -0.660156,-1.58984 C 72.167969,273.98828 71.597656,273.75 71,273.75 c -0.597656,0 -1.167969,0.23828 -1.589844,0.66016 C 68.988281,274.83203 68.75,275.40234 68.75,276 c 0,0.59766 0.238281,1.16797 0.660156,1.58984 0.421875,0.42188 0.992188,0.66016 1.589844,0.66016 0.597656,0 1.167969,-0.23828 1.589844,-0.66016 C 73.011719,277.16797 73.25,276.59766 73.25,276 Z m 0,0"
       id="path96" />
  </g>
  <g
     ns26:version="1.8.1"
     ns26:texconverter="xelatex"
     ns26:pdfconverter="inkscape"
     ns26:text="$w=[w_0,w_1,\\cdots,w_{46}]$\n\n$w_0$  \n$w_1$\n$w_2$\n\n$w_{46}$\n"
     ns26:preamble="C:\Users\ChoCho\AppData\Roaming\inkscape\extensions\textext\default_packages.tex"
     ns26:scale="1.6"
     ns26:alignment="middle center"
     ns26:stroke-to-path="0"
     transform="matrix(1.98425 0 0 1.98425 130.721 298.067)"
     ns26:jacobian_sqrt="1.6"
     id="g565"
     style="fill:#0000ff;stroke-width:0.80635">
    <defs
       id="id-7e6e370a-0b17-4006-a634-8d7afb057443">
      <g
         id="id-b42656b8-6557-4b65-80ad-fb47ad2a09ae">
        <g
           id="id-ba9ce77a-ca4f-471b-9049-19bfd31715be" />
        <g
           id="id-2f1d9d8b-5915-44da-8181-510eee8c5f15">
          <path
             d="M 4.609375,-3.375 C 4.65625,-3.59375 4.75,-3.96875 4.75,-4.03125 c 0,-0.171875 -0.140625,-0.265625 -0.28125,-0.265625 -0.125,0 -0.296875,0.078125 -0.375,0.28125 -0.03125,0.0625 -0.5,1.96875 -0.5625,2.234375 C 3.453125,-1.484375 3.4375,-1.3125 3.4375,-1.125 c 0,0.109375 0,0.125 0.015625,0.171875 -0.234375,0.53125 -0.53125,0.84375 -0.921875,0.84375 -0.796875,0 -0.796875,-0.734375 -0.796875,-0.90625 0,-0.3125 0.046875,-0.703125 0.515625,-1.9375 0.109375,-0.296875 0.171875,-0.4375 0.171875,-0.640625 0,-0.4375 -0.328125,-0.8125 -0.8125,-0.8125 -0.953125,0 -1.3125,1.453125 -1.3125,1.53125 0,0.109375 0.09375,0.109375 0.109375,0.109375 0.109375,0 0.109375,-0.03125 0.15625,-0.1875 C 0.84375,-3.875 1.21875,-4.1875 1.578125,-4.1875 c 0.09375,0 0.25,0.015625 0.25,0.328125 0,0.25 -0.109375,0.53125 -0.1875,0.703125 -0.4375,1.171875 -0.546875,1.625 -0.546875,2.015625 0,0.90625 0.65625,1.25 1.40625,1.25 0.171875,0 0.640625,0 1.03125,-0.703125 0.265625,0.640625 0.953125,0.703125 1.25,0.703125 0.75,0 1.1875,-0.625 1.453125,-1.21875 0.328125,-0.78125 0.65625,-2.125 0.65625,-2.59375 0,-0.546875 -0.265625,-0.703125 -0.4375,-0.703125 -0.25,0 -0.5,0.265625 -0.5,0.484375 0,0.125 0.0625,0.1875 0.140625,0.265625 0.109375,0.109375 0.359375,0.359375 0.359375,0.84375 0,0.34375 -0.28125,1.3125 -0.546875,1.828125 -0.25,0.53125 -0.609375,0.875 -1.09375,0.875 -0.46875,0 -0.734375,-0.296875 -0.734375,-0.875 0,-0.265625 0.0625,-0.578125 0.109375,-0.71875 z m 0,0"
             id="id-10395fef-c5d5-4cac-aae6-50f28975facd" />
        </g>
        <g
           id="id-77d85129-d3b2-476c-80fe-db634ed7a149">
          <path
             d="m 2.03125,-0.015625 c 0,-0.65625 -0.25,-1.046875 -0.640625,-1.046875 -0.328125,0 -0.53125,0.25 -0.53125,0.53125 C 0.859375,-0.265625 1.0625,0 1.390625,0 1.5,0 1.640625,-0.046875 1.734375,-0.125 1.765625,-0.15625 1.78125,-0.15625 1.78125,-0.15625 c 0.015625,0 0.015625,0 0.015625,0.140625 0,0.75 -0.34375,1.34375 -0.671875,1.671875 -0.109375,0.109375 -0.109375,0.125 -0.109375,0.15625 0,0.078125 0.046875,0.109375 0.09375,0.109375 0.109375,0 0.921875,-0.765625 0.921875,-1.9375 z m 0,0"
             id="id-0e1f35cd-ca30-40dc-88d7-53cb167f5925" />
        </g>
        <g
           id="id-02a4bec9-7cdc-4a17-b34f-cbc7ca1dc8c2" />
        <g
           id="id-41624db6-f475-48d6-9c3b-b4474f0a1db4">
          <path
             d="m 6.84375,-3.265625 c 0.15625,0 0.34375,0 0.34375,-0.1875 C 7.1875,-3.65625 7,-3.65625 6.859375,-3.65625 h -5.96875 c -0.140625,0 -0.328125,0 -0.328125,0.203125 0,0.1875 0.1875,0.1875 0.328125,0.1875 z m 0.015625,1.9375 c 0.140625,0 0.328125,0 0.328125,-0.203125 0,-0.1875 -0.1875,-0.1875 -0.34375,-0.1875 H 0.890625 c -0.140625,0 -0.328125,0 -0.328125,0.1875 0,0.203125 0.1875,0.203125 0.328125,0.203125 z m 0,0"
             id="id-e1ad59e0-4463-480d-8c4e-6cf789f740f2" />
        </g>
        <g
           id="id-6c98c3c9-f215-454a-8567-3bc0a4afa1f7">
          <path
             d="M 2.546875,2.5 V 2.09375 h -0.96875 v -9.171875 h 0.96875 v -0.40625 h -1.375 V 2.5 Z m 0,0"
             id="id-091bc299-708e-4ef4-bf10-0ab94fd87e0b" />
        </g>
        <g
           id="id-27a10ebd-7942-4302-ae28-f22f98d08c15">
          <path
             d="M 1.578125,-7.484375 H 0.21875 v 0.40625 H 1.1875 V 2.09375 H 0.21875 V 2.5 h 1.359375 z m 0,0"
             id="id-e4c67e8d-50ea-4930-aba4-df0312c31da2" />
        </g>
        <g
           id="id-0ed529a4-3f63-4d87-a43d-aa2814252966" />
        <g
           id="id-263d5c62-a459-4e25-aa09-30f0d935d2b7">
          <path
             d="M 3.59375,-2.21875 C 3.59375,-2.984375 3.5,-3.546875 3.1875,-4.03125 2.96875,-4.34375 2.53125,-4.625 1.984375,-4.625 c -1.625,0 -1.625,1.90625 -1.625,2.40625 0,0.5 0,2.359375 1.625,2.359375 1.609375,0 1.609375,-1.859375 1.609375,-2.359375 z M 1.984375,-0.0625 c -0.328125,0 -0.75,-0.1875 -0.890625,-0.75 C 1,-1.21875 1,-1.796875 1,-2.3125 1,-2.828125 1,-3.359375 1.09375,-3.734375 1.25,-4.28125 1.6875,-4.4375 1.984375,-4.4375 c 0.375,0 0.734375,0.234375 0.859375,0.640625 0.109375,0.375 0.125,0.875 0.125,1.484375 0,0.515625 0,1.03125 -0.09375,1.46875 -0.140625,0.640625 -0.609375,0.78125 -0.890625,0.78125 z m 0,0"
             id="id-ae435393-cd3b-417f-acef-8cff5066941e" />
        </g>
        <g
           id="id-06da5c77-97f0-490f-b6da-1a1280486bb9">
          <path
             d="m 2.328125,-4.4375 c 0,-0.1875 0,-0.1875 -0.203125,-0.1875 -0.453125,0.4375 -1.078125,0.4375 -1.359375,0.4375 v 0.25 c 0.15625,0 0.625,0 1,-0.1875 v 3.546875 c 0,0.234375 0,0.328125 -0.6875,0.328125 H 0.8125 V 0 c 0.125,0 0.984375,-0.03125 1.234375,-0.03125 0.21875,0 1.09375,0.03125 1.25,0.03125 V -0.25 H 3.03125 c -0.703125,0 -0.703125,-0.09375 -0.703125,-0.328125 z m 0,0"
             id="id-633e6def-d503-4758-9b3d-5925abab6927" />
        </g>
        <g
           id="id-192b22d4-b900-4b9c-a4ae-22609a82f521">
          <path
             d="m 3.6875,-1.140625 v -0.25 H 2.90625 V -4.5 c 0,-0.140625 0,-0.203125 -0.140625,-0.203125 -0.09375,0 -0.125,0 -0.1875,0.109375 l -2.3125,3.203125 v 0.25 h 2.0625 v 0.5625 c 0,0.25 0,0.328125 -0.578125,0.328125 H 1.5625 V 0 C 1.921875,-0.015625 2.359375,-0.03125 2.609375,-0.03125 2.875,-0.03125 3.3125,-0.015625 3.671875,0 v -0.25 h -0.1875 C 2.90625,-0.25 2.90625,-0.328125 2.90625,-0.578125 v -0.5625 z M 2.375,-3.9375 v 2.546875 H 0.53125 Z m 0,0"
             id="id-2f35cc53-34eb-4ed9-8cab-6b63a822fe99" />
        </g>
        <g
           id="id-2306d006-caf8-44b5-80c1-bdef5cd3030f">
          <path
             d="m 1.046875,-2.28125 c 0,-0.5625 0.046875,-1.078125 0.3125,-1.515625 0.234375,-0.375 0.609375,-0.625 1.0625,-0.625 0.203125,0 0.484375,0.046875 0.625,0.234375 C 2.875,-4.171875 2.71875,-4.046875 2.71875,-3.84375 c 0,0.171875 0.125,0.328125 0.328125,0.328125 0.21875,0 0.34375,-0.140625 0.34375,-0.34375 0,-0.40625 -0.296875,-0.765625 -0.984375,-0.765625 -1,0 -2.03125,0.921875 -2.03125,2.421875 0,1.796875 0.84375,2.34375 1.625,2.34375 0.84375,0 1.578125,-0.65625 1.578125,-1.5625 0,-0.890625 -0.703125,-1.546875 -1.515625,-1.546875 -0.5625,0 -0.859375,0.375 -1.015625,0.6875 z M 2,-0.078125 c -0.359375,0 -0.625,-0.203125 -0.78125,-0.515625 C 1.125,-0.796875 1.0625,-1.15625 1.0625,-1.5625 c 0,-0.6875 0.40625,-1.203125 0.96875,-1.203125 0.3125,0 0.53125,0.125 0.703125,0.375 0.171875,0.265625 0.171875,0.5625 0.171875,0.96875 0,0.390625 0,0.6875 -0.1875,0.96875 -0.15625,0.234375 -0.390625,0.375 -0.71875,0.375 z m 0,0"
             id="id-6e70af46-6398-4a26-97e5-a8dfdbb1e56f" />
        </g>
        <g
           id="id-03437fa1-fe8a-42fd-ad1f-c13ab3341197">
          <path
             d="M 3.515625,-1.265625 H 3.28125 c -0.015625,0.15625 -0.09375,0.5625 -0.1875,0.625 C 3.046875,-0.59375 2.515625,-0.59375 2.40625,-0.59375 H 1.125 c 0.734375,-0.640625 0.984375,-0.84375 1.390625,-1.171875 0.515625,-0.40625 1,-0.84375 1,-1.5 0,-0.84375 -0.734375,-1.359375 -1.625,-1.359375 -0.859375,0 -1.453125,0.609375 -1.453125,1.25 0,0.34375 0.296875,0.390625 0.375,0.390625 0.15625,0 0.359375,-0.125 0.359375,-0.375 0,-0.125 -0.046875,-0.375 -0.40625,-0.375 C 0.984375,-4.21875 1.453125,-4.375 1.78125,-4.375 c 0.703125,0 1.0625,0.546875 1.0625,1.109375 0,0.609375 -0.4375,1.078125 -0.65625,1.328125 L 0.515625,-0.265625 C 0.4375,-0.203125 0.4375,-0.1875 0.4375,0 h 2.875 z m 0,0"
             id="id-96366c54-4ea7-44fb-b444-ef7d8baceb10" />
        </g>
        <g
           id="id-b9b597c1-47c0-406d-a22c-746144abfd63" />
        <g
           id="id-cca525da-371e-453b-9c75-10ba688f730c">
          <path
             d="m 1.90625,-2.5 c 0,-0.28125 -0.234375,-0.515625 -0.515625,-0.515625 -0.296875,0 -0.53125,0.234375 -0.53125,0.515625 0,0.296875 0.234375,0.53125 0.53125,0.53125 0.28125,0 0.515625,-0.234375 0.515625,-0.53125 z m 0,0"
             id="id-7366d68e-db06-4fb4-baac-e373be8d57da" />
        </g>
      </g>
    </defs>
    <g
       fill="#000000"
       fill-opacity="1"
       id="id-e3cbc6fb-14d1-4419-911b-120e4ce4a703"
       transform="translate(-171.47221,-277.49707)"
       style="fill:#0000ff;stroke-width:0.650201">
      <g
         transform="translate(148.712,134.765)"
         id="g464"
         style="fill:#0000ff;stroke-width:0.80635">
        <path
           d="M 4.609375,-3.375 C 4.65625,-3.59375 4.75,-3.96875 4.75,-4.03125 c 0,-0.171875 -0.140625,-0.265625 -0.28125,-0.265625 -0.125,0 -0.296875,0.078125 -0.375,0.28125 -0.03125,0.0625 -0.5,1.96875 -0.5625,2.234375 C 3.453125,-1.484375 3.4375,-1.3125 3.4375,-1.125 c 0,0.109375 0,0.125 0.015625,0.171875 -0.234375,0.53125 -0.53125,0.84375 -0.921875,0.84375 -0.796875,0 -0.796875,-0.734375 -0.796875,-0.90625 0,-0.3125 0.046875,-0.703125 0.515625,-1.9375 0.109375,-0.296875 0.171875,-0.4375 0.171875,-0.640625 0,-0.4375 -0.328125,-0.8125 -0.8125,-0.8125 -0.953125,0 -1.3125,1.453125 -1.3125,1.53125 0,0.109375 0.09375,0.109375 0.109375,0.109375 0.109375,0 0.109375,-0.03125 0.15625,-0.1875 C 0.84375,-3.875 1.21875,-4.1875 1.578125,-4.1875 c 0.09375,0 0.25,0.015625 0.25,0.328125 0,0.25 -0.109375,0.53125 -0.1875,0.703125 -0.4375,1.171875 -0.546875,1.625 -0.546875,2.015625 0,0.90625 0.65625,1.25 1.40625,1.25 0.171875,0 0.640625,0 1.03125,-0.703125 0.265625,0.640625 0.953125,0.703125 1.25,0.703125 0.75,0 1.1875,-0.625 1.453125,-1.21875 0.328125,-0.78125 0.65625,-2.125 0.65625,-2.59375 0,-0.546875 -0.265625,-0.703125 -0.4375,-0.703125 -0.25,0 -0.5,0.265625 -0.5,0.484375 0,0.125 0.0625,0.1875 0.140625,0.265625 0.109375,0.109375 0.359375,0.359375 0.359375,0.84375 0,0.34375 -0.28125,1.3125 -0.546875,1.828125 -0.25,0.53125 -0.609375,0.875 -1.09375,0.875 -0.46875,0 -0.734375,-0.296875 -0.734375,-0.875 0,-0.265625 0.0625,-0.578125 0.109375,-0.71875 z m 0,0"
           id="id-737eba51-93fe-43c8-a1d9-57077f60be02"
           style="fill:#0000ff;stroke-width:0.80635" />
      </g>
    </g>
    <g
       fill="#000000"
       fill-opacity="1"
       id="id-8ed7dce2-1f56-42db-bc88-67519870ae1b"
       transform="translate(-171.47221,-277.49707)"
       style="fill:#0000ff;stroke-width:0.650201">
      <g
         transform="translate(158.88,134.765)"
         id="g468"
         style="fill:#0000ff;stroke-width:0.80635">
        <path
           d="m 6.84375,-3.265625 c 0.15625,0 0.34375,0 0.34375,-0.1875 C 7.1875,-3.65625 7,-3.65625 6.859375,-3.65625 h -5.96875 c -0.140625,0 -0.328125,0 -0.328125,0.203125 0,0.1875 0.1875,0.1875 0.328125,0.1875 z m 0.015625,1.9375 c 0.140625,0 0.328125,0 0.328125,-0.203125 0,-0.1875 -0.1875,-0.1875 -0.34375,-0.1875 H 0.890625 c -0.140625,0 -0.328125,0 -0.328125,0.1875 0,0.203125 0.1875,0.203125 0.328125,0.203125 z m 0,0"
           id="id-0e8a38bb-17b5-467f-a0d0-d35a7132616d"
           style="fill:#0000ff;stroke-width:0.80635" />
      </g>
    </g>
    <g
       fill="#000000"
       fill-opacity="1"
       id="id-0b1a1431-faa6-4378-9277-331e3bf5b23c"
       transform="translate(-171.47221,-277.49707)"
       style="fill:#0000ff;stroke-width:0.650201">
      <g
         transform="translate(169.381,134.765)"
         id="g472"
         style="fill:#0000ff;stroke-width:0.80635">
        <path
           d="M 2.546875,2.5 V 2.09375 h -0.96875 v -9.171875 h 0.96875 v -0.40625 h -1.375 V 2.5 Z m 0,0"
           id="id-78d898bc-5644-4919-8c7b-835046bb57c0"
           style="fill:#0000ff;stroke-width:0.80635" />
      </g>
    </g>
    <g
       fill="#000000"
       fill-opacity="1"
       id="id-c8dc4323-852d-4d96-a4e4-4fc1471eb596"
       transform="translate(-171.47221,-277.49707)"
       style="fill:#0000ff;stroke-width:0.650201">
      <g
         transform="translate(172.164,134.765)"
         id="g476"
         style="fill:#0000ff;stroke-width:0.80635">
        <path
           d="M 4.609375,-3.375 C 4.65625,-3.59375 4.75,-3.96875 4.75,-4.03125 c 0,-0.171875 -0.140625,-0.265625 -0.28125,-0.265625 -0.125,0 -0.296875,0.078125 -0.375,0.28125 -0.03125,0.0625 -0.5,1.96875 -0.5625,2.234375 C 3.453125,-1.484375 3.4375,-1.3125 3.4375,-1.125 c 0,0.109375 0,0.125 0.015625,0.171875 -0.234375,0.53125 -0.53125,0.84375 -0.921875,0.84375 -0.796875,0 -0.796875,-0.734375 -0.796875,-0.90625 0,-0.3125 0.046875,-0.703125 0.515625,-1.9375 0.109375,-0.296875 0.171875,-0.4375 0.171875,-0.640625 0,-0.4375 -0.328125,-0.8125 -0.8125,-0.8125 -0.953125,0 -1.3125,1.453125 -1.3125,1.53125 0,0.109375 0.09375,0.109375 0.109375,0.109375 0.109375,0 0.109375,-0.03125 0.15625,-0.1875 C 0.84375,-3.875 1.21875,-4.1875 1.578125,-4.1875 c 0.09375,0 0.25,0.015625 0.25,0.328125 0,0.25 -0.109375,0.53125 -0.1875,0.703125 -0.4375,1.171875 -0.546875,1.625 -0.546875,2.015625 0,0.90625 0.65625,1.25 1.40625,1.25 0.171875,0 0.640625,0 1.03125,-0.703125 0.265625,0.640625 0.953125,0.703125 1.25,0.703125 0.75,0 1.1875,-0.625 1.453125,-1.21875 0.328125,-0.78125 0.65625,-2.125 0.65625,-2.59375 0,-0.546875 -0.265625,-0.703125 -0.4375,-0.703125 -0.25,0 -0.5,0.265625 -0.5,0.484375 0,0.125 0.0625,0.1875 0.140625,0.265625 0.109375,0.109375 0.359375,0.359375 0.359375,0.84375 0,0.34375 -0.28125,1.3125 -0.546875,1.828125 -0.25,0.53125 -0.609375,0.875 -1.09375,0.875 -0.46875,0 -0.734375,-0.296875 -0.734375,-0.875 0,-0.265625 0.0625,-0.578125 0.109375,-0.71875 z m 0,0"
           id="id-27110c44-de12-4b87-8564-daf97655cdb3"
           style="fill:#0000ff;stroke-width:0.80635" />
      </g>
    </g>
    <g
       fill="#000000"
       fill-opacity="1"
       id="id-0754c218-ea67-4bd0-9384-f37f6fe366e3"
       transform="translate(-171.47221,-277.49707)"
       style="fill:#0000ff;stroke-width:0.650201">
      <g
         transform="translate(179.296,136.259)"
         id="g480"
         style="fill:#0000ff;stroke-width:0.80635">
        <path
           d="M 3.59375,-2.21875 C 3.59375,-2.984375 3.5,-3.546875 3.1875,-4.03125 2.96875,-4.34375 2.53125,-4.625 1.984375,-4.625 c -1.625,0 -1.625,1.90625 -1.625,2.40625 0,0.5 0,2.359375 1.625,2.359375 1.609375,0 1.609375,-1.859375 1.609375,-2.359375 z M 1.984375,-0.0625 c -0.328125,0 -0.75,-0.1875 -0.890625,-0.75 C 1,-1.21875 1,-1.796875 1,-2.3125 1,-2.828125 1,-3.359375 1.09375,-3.734375 1.25,-4.28125 1.6875,-4.4375 1.984375,-4.4375 c 0.375,0 0.734375,0.234375 0.859375,0.640625 0.109375,0.375 0.125,0.875 0.125,1.484375 0,0.515625 0,1.03125 -0.09375,1.46875 -0.140625,0.640625 -0.609375,0.78125 -0.890625,0.78125 z m 0,0"
           id="id-54a0a769-e52e-455a-9f1f-d3a52bfb04c6"
           style="fill:#0000ff;stroke-width:0.80635" />
      </g>
    </g>
    <g
       fill="#000000"
       fill-opacity="1"
       id="id-49a7c0e3-9cb7-471d-a961-8bf7ef06e94f"
       transform="translate(-171.47221,-277.49707)"
       style="fill:#0000ff;stroke-width:0.650201">
      <g
         transform="translate(183.765,134.765)"
         id="g484"
         style="fill:#0000ff;stroke-width:0.80635">
        <path
           d="m 2.03125,-0.015625 c 0,-0.65625 -0.25,-1.046875 -0.640625,-1.046875 -0.328125,0 -0.53125,0.25 -0.53125,0.53125 C 0.859375,-0.265625 1.0625,0 1.390625,0 1.5,0 1.640625,-0.046875 1.734375,-0.125 1.765625,-0.15625 1.78125,-0.15625 1.78125,-0.15625 c 0.015625,0 0.015625,0 0.015625,0.140625 0,0.75 -0.34375,1.34375 -0.671875,1.671875 -0.109375,0.109375 -0.109375,0.125 -0.109375,0.15625 0,0.078125 0.046875,0.109375 0.09375,0.109375 0.109375,0 0.921875,-0.765625 0.921875,-1.9375 z m 0,0"
           id="id-c6aa6e58-5a5d-42c3-9437-defb2f874950"
           style="fill:#0000ff;stroke-width:0.80635" />
      </g>
    </g>
    <g
       fill="#000000"
       fill-opacity="1"
       id="id-03033799-51c3-4dde-af09-f011db1489d4"
       transform="translate(-171.47221,-277.49707)"
       style="fill:#0000ff;stroke-width:0.650201">
      <g
         transform="translate(188.178,134.765)"
         id="g488"
         style="fill:#0000ff;stroke-width:0.80635">
        <path
           d="M 4.609375,-3.375 C 4.65625,-3.59375 4.75,-3.96875 4.75,-4.03125 c 0,-0.171875 -0.140625,-0.265625 -0.28125,-0.265625 -0.125,0 -0.296875,0.078125 -0.375,0.28125 -0.03125,0.0625 -0.5,1.96875 -0.5625,2.234375 C 3.453125,-1.484375 3.4375,-1.3125 3.4375,-1.125 c 0,0.109375 0,0.125 0.015625,0.171875 -0.234375,0.53125 -0.53125,0.84375 -0.921875,0.84375 -0.796875,0 -0.796875,-0.734375 -0.796875,-0.90625 0,-0.3125 0.046875,-0.703125 0.515625,-1.9375 0.109375,-0.296875 0.171875,-0.4375 0.171875,-0.640625 0,-0.4375 -0.328125,-0.8125 -0.8125,-0.8125 -0.953125,0 -1.3125,1.453125 -1.3125,1.53125 0,0.109375 0.09375,0.109375 0.109375,0.109375 0.109375,0 0.109375,-0.03125 0.15625,-0.1875 C 0.84375,-3.875 1.21875,-4.1875 1.578125,-4.1875 c 0.09375,0 0.25,0.015625 0.25,0.328125 0,0.25 -0.109375,0.53125 -0.1875,0.703125 -0.4375,1.171875 -0.546875,1.625 -0.546875,2.015625 0,0.90625 0.65625,1.25 1.40625,1.25 0.171875,0 0.640625,0 1.03125,-0.703125 0.265625,0.640625 0.953125,0.703125 1.25,0.703125 0.75,0 1.1875,-0.625 1.453125,-1.21875 0.328125,-0.78125 0.65625,-2.125 0.65625,-2.59375 0,-0.546875 -0.265625,-0.703125 -0.4375,-0.703125 -0.25,0 -0.5,0.265625 -0.5,0.484375 0,0.125 0.0625,0.1875 0.140625,0.265625 0.109375,0.109375 0.359375,0.359375 0.359375,0.84375 0,0.34375 -0.28125,1.3125 -0.546875,1.828125 -0.25,0.53125 -0.609375,0.875 -1.09375,0.875 -0.46875,0 -0.734375,-0.296875 -0.734375,-0.875 0,-0.265625 0.0625,-0.578125 0.109375,-0.71875 z m 0,0"
           id="id-fb32bcfe-c2d1-485e-b6f3-4c0c86ec77a2"
           style="fill:#0000ff;stroke-width:0.80635" />
      </g>
    </g>
    <g
       fill="#000000"
       fill-opacity="1"
       id="id-4ddfd655-81fc-4f8b-a1c4-cb6d94d172af"
       transform="translate(-171.47221,-277.49707)"
       style="fill:#0000ff;stroke-width:0.650201">
      <g
         transform="translate(195.326,136.259)"
         id="g492"
         style="fill:#0000ff;stroke-width:0.80635">
        <path
           d="m 2.328125,-4.4375 c 0,-0.1875 0,-0.1875 -0.203125,-0.1875 -0.453125,0.4375 -1.078125,0.4375 -1.359375,0.4375 v 0.25 c 0.15625,0 0.625,0 1,-0.1875 v 3.546875 c 0,0.234375 0,0.328125 -0.6875,0.328125 H 0.8125 V 0 c 0.125,0 0.984375,-0.03125 1.234375,-0.03125 0.21875,0 1.09375,0.03125 1.25,0.03125 V -0.25 H 3.03125 c -0.703125,0 -0.703125,-0.09375 -0.703125,-0.328125 z m 0,0"
           id="id-667ae9fb-d7a1-4f11-9769-24296cedf5f9"
           style="fill:#0000ff;stroke-width:0.80635" />
      </g>
    </g>
    <g
       fill="#000000"
       fill-opacity="1"
       id="id-b8fee515-f64a-4038-85ea-0dc5a7bad930"
       transform="translate(-171.47221,-277.49707)"
       style="fill:#0000ff;stroke-width:0.650201">
      <g
         transform="translate(199.795,134.765)"
         id="g496"
         style="fill:#0000ff;stroke-width:0.80635">
        <path
           d="m 2.03125,-0.015625 c 0,-0.65625 -0.25,-1.046875 -0.640625,-1.046875 -0.328125,0 -0.53125,0.25 -0.53125,0.53125 C 0.859375,-0.265625 1.0625,0 1.390625,0 1.5,0 1.640625,-0.046875 1.734375,-0.125 1.765625,-0.15625 1.78125,-0.15625 1.78125,-0.15625 c 0.015625,0 0.015625,0 0.015625,0.140625 0,0.75 -0.34375,1.34375 -0.671875,1.671875 -0.109375,0.109375 -0.109375,0.125 -0.109375,0.15625 0,0.078125 0.046875,0.109375 0.09375,0.109375 0.109375,0 0.921875,-0.765625 0.921875,-1.9375 z m 0,0"
           id="id-664fde21-f199-4e8f-b50f-77420d3efa36"
           style="fill:#0000ff;stroke-width:0.80635" />
      </g>
    </g>
    <g
       fill="#000000"
       fill-opacity="1"
       id="id-3ff43bda-be15-4b4e-85e5-3a9c044e9388"
       transform="translate(-171.47221,-277.49707)"
       style="fill:#0000ff;stroke-width:0.650201">
      <g
         transform="translate(204.223,134.765)"
         id="g500"
         style="fill:#0000ff;stroke-width:0.80635">
        <path
           d="m 1.90625,-2.5 c 0,-0.28125 -0.234375,-0.515625 -0.515625,-0.515625 -0.296875,0 -0.53125,0.234375 -0.53125,0.515625 0,0.296875 0.234375,0.53125 0.53125,0.53125 0.28125,0 0.515625,-0.234375 0.515625,-0.53125 z m 0,0"
           id="id-a9dde471-928c-4741-9a54-1b21ee271fbc"
           style="fill:#0000ff;stroke-width:0.80635" />
      </g>
    </g>
    <g
       fill="#000000"
       fill-opacity="1"
       id="id-377447a5-95e4-425d-8e9f-a6942e703ffd"
       transform="translate(-171.47221,-277.49707)"
       style="fill:#0000ff;stroke-width:0.650201">
      <g
         transform="translate(208.636,134.765)"
         id="g504"
         style="fill:#0000ff;stroke-width:0.80635">
        <path
           d="m 1.90625,-2.5 c 0,-0.28125 -0.234375,-0.515625 -0.515625,-0.515625 -0.296875,0 -0.53125,0.234375 -0.53125,0.515625 0,0.296875 0.234375,0.53125 0.53125,0.53125 0.28125,0 0.515625,-0.234375 0.515625,-0.53125 z m 0,0"
           id="id-71bb6097-8e1f-4d47-9e9e-2b99f65c5be2"
           style="fill:#0000ff;stroke-width:0.80635" />
      </g>
    </g>
    <g
       fill="#000000"
       fill-opacity="1"
       id="id-8f36c327-c71a-40f3-a72d-f72b1abf62c1"
       transform="translate(-171.47221,-277.49707)"
       style="fill:#0000ff;stroke-width:0.650201">
      <g
         transform="translate(213.06,134.765)"
         id="g508"
         style="fill:#0000ff;stroke-width:0.80635">
        <path
           d="m 1.90625,-2.5 c 0,-0.28125 -0.234375,-0.515625 -0.515625,-0.515625 -0.296875,0 -0.53125,0.234375 -0.53125,0.515625 0,0.296875 0.234375,0.53125 0.53125,0.53125 0.28125,0 0.515625,-0.234375 0.515625,-0.53125 z m 0,0"
           id="id-910d4434-a300-4594-9e1e-ade45e8b416d"
           style="fill:#0000ff;stroke-width:0.80635" />
      </g>
    </g>
    <g
       fill="#000000"
       fill-opacity="1"
       id="id-09b1b6b7-15d1-42e4-825b-a90e8a2c14cb"
       transform="translate(-171.47221,-277.49707)"
       style="fill:#0000ff;stroke-width:0.650201">
      <g
         transform="translate(219.167,134.765)"
         id="g512"
         style="fill:#0000ff;stroke-width:0.80635">
        <path
           d="m 2.03125,-0.015625 c 0,-0.65625 -0.25,-1.046875 -0.640625,-1.046875 -0.328125,0 -0.53125,0.25 -0.53125,0.53125 C 0.859375,-0.265625 1.0625,0 1.390625,0 1.5,0 1.640625,-0.046875 1.734375,-0.125 1.765625,-0.15625 1.78125,-0.15625 1.78125,-0.15625 c 0.015625,0 0.015625,0 0.015625,0.140625 0,0.75 -0.34375,1.34375 -0.671875,1.671875 -0.109375,0.109375 -0.109375,0.125 -0.109375,0.15625 0,0.078125 0.046875,0.109375 0.09375,0.109375 0.109375,0 0.921875,-0.765625 0.921875,-1.9375 z m 0,0"
           id="id-de27f8ba-5db0-424a-bb13-9f8e991ed988"
           style="fill:#0000ff;stroke-width:0.80635" />
      </g>
    </g>
    <g
       fill="#000000"
       fill-opacity="1"
       id="id-552ca5f0-ef85-4f26-8760-8736a7113e42"
       transform="translate(-171.47221,-277.49707)"
       style="fill:#0000ff;stroke-width:0.650201">
      <g
         transform="translate(223.58,134.765)"
         id="g516"
         style="fill:#0000ff;stroke-width:0.80635">
        <path
           d="M 4.609375,-3.375 C 4.65625,-3.59375 4.75,-3.96875 4.75,-4.03125 c 0,-0.171875 -0.140625,-0.265625 -0.28125,-0.265625 -0.125,0 -0.296875,0.078125 -0.375,0.28125 -0.03125,0.0625 -0.5,1.96875 -0.5625,2.234375 C 3.453125,-1.484375 3.4375,-1.3125 3.4375,-1.125 c 0,0.109375 0,0.125 0.015625,0.171875 -0.234375,0.53125 -0.53125,0.84375 -0.921875,0.84375 -0.796875,0 -0.796875,-0.734375 -0.796875,-0.90625 0,-0.3125 0.046875,-0.703125 0.515625,-1.9375 0.109375,-0.296875 0.171875,-0.4375 0.171875,-0.640625 0,-0.4375 -0.328125,-0.8125 -0.8125,-0.8125 -0.953125,0 -1.3125,1.453125 -1.3125,1.53125 0,0.109375 0.09375,0.109375 0.109375,0.109375 0.109375,0 0.109375,-0.03125 0.15625,-0.1875 C 0.84375,-3.875 1.21875,-4.1875 1.578125,-4.1875 c 0.09375,0 0.25,0.015625 0.25,0.328125 0,0.25 -0.109375,0.53125 -0.1875,0.703125 -0.4375,1.171875 -0.546875,1.625 -0.546875,2.015625 0,0.90625 0.65625,1.25 1.40625,1.25 0.171875,0 0.640625,0 1.03125,-0.703125 0.265625,0.640625 0.953125,0.703125 1.25,0.703125 0.75,0 1.1875,-0.625 1.453125,-1.21875 0.328125,-0.78125 0.65625,-2.125 0.65625,-2.59375 0,-0.546875 -0.265625,-0.703125 -0.4375,-0.703125 -0.25,0 -0.5,0.265625 -0.5,0.484375 0,0.125 0.0625,0.1875 0.140625,0.265625 0.109375,0.109375 0.359375,0.359375 0.359375,0.84375 0,0.34375 -0.28125,1.3125 -0.546875,1.828125 -0.25,0.53125 -0.609375,0.875 -1.09375,0.875 -0.46875,0 -0.734375,-0.296875 -0.734375,-0.875 0,-0.265625 0.0625,-0.578125 0.109375,-0.71875 z m 0,0"
           id="id-a764f031-5462-4d7a-b802-b8a60e24e144"
           style="fill:#0000ff;stroke-width:0.80635" />
      </g>
    </g>
    <g
       fill="#000000"
       fill-opacity="1"
       id="id-9e7487e6-7ee7-4c06-beb8-abc734d48d18"
       transform="translate(-171.47221,-277.49707)"
       style="fill:#0000ff;stroke-width:0.650201">
      <g
         transform="translate(230.727,136.259)"
         id="g520"
         style="fill:#0000ff;stroke-width:0.80635">
        <path
           d="m 3.6875,-1.140625 v -0.25 H 2.90625 V -4.5 c 0,-0.140625 0,-0.203125 -0.140625,-0.203125 -0.09375,0 -0.125,0 -0.1875,0.109375 l -2.3125,3.203125 v 0.25 h 2.0625 v 0.5625 c 0,0.25 0,0.328125 -0.578125,0.328125 H 1.5625 V 0 C 1.921875,-0.015625 2.359375,-0.03125 2.609375,-0.03125 2.875,-0.03125 3.3125,-0.015625 3.671875,0 v -0.25 h -0.1875 C 2.90625,-0.25 2.90625,-0.328125 2.90625,-0.578125 v -0.5625 z M 2.375,-3.9375 v 2.546875 H 0.53125 Z m 0,0"
           id="id-95118d3d-eb03-48c3-b2e8-edd53b9be9c0"
           style="fill:#0000ff;stroke-width:0.80635" />
      </g>
      <g
         transform="translate(234.695,136.259)"
         id="g523"
         style="fill:#0000ff;stroke-width:0.80635">
        <path
           d="m 1.046875,-2.28125 c 0,-0.5625 0.046875,-1.078125 0.3125,-1.515625 0.234375,-0.375 0.609375,-0.625 1.0625,-0.625 0.203125,0 0.484375,0.046875 0.625,0.234375 C 2.875,-4.171875 2.71875,-4.046875 2.71875,-3.84375 c 0,0.171875 0.125,0.328125 0.328125,0.328125 0.21875,0 0.34375,-0.140625 0.34375,-0.34375 0,-0.40625 -0.296875,-0.765625 -0.984375,-0.765625 -1,0 -2.03125,0.921875 -2.03125,2.421875 0,1.796875 0.84375,2.34375 1.625,2.34375 0.84375,0 1.578125,-0.65625 1.578125,-1.5625 0,-0.890625 -0.703125,-1.546875 -1.515625,-1.546875 -0.5625,0 -0.859375,0.375 -1.015625,0.6875 z M 2,-0.078125 c -0.359375,0 -0.625,-0.203125 -0.78125,-0.515625 C 1.125,-0.796875 1.0625,-1.15625 1.0625,-1.5625 c 0,-0.6875 0.40625,-1.203125 0.96875,-1.203125 0.3125,0 0.53125,0.125 0.703125,0.375 0.171875,0.265625 0.171875,0.5625 0.171875,0.96875 0,0.390625 0,0.6875 -0.1875,0.96875 -0.15625,0.234375 -0.390625,0.375 -0.71875,0.375 z m 0,0"
           id="id-32814010-8c42-416d-9bba-1a3c4934acee"
           style="fill:#0000ff;stroke-width:0.80635" />
      </g>
    </g>
    <g
       fill="#000000"
       fill-opacity="1"
       id="id-e95dd934-984b-4b9b-8831-ba29597df7be"
       transform="translate(-171.47221,-277.49707)"
       style="fill:#0000ff;stroke-width:0.650201">
      <g
         transform="translate(239.168,134.765)"
         id="g527"
         style="fill:#0000ff;stroke-width:0.80635">
        <path
           d="M 1.578125,-7.484375 H 0.21875 v 0.40625 H 1.1875 V 2.09375 H 0.21875 V 2.5 h 1.359375 z m 0,0"
           id="id-c7b12c4b-db2a-4d19-86ec-ef712c2d21eb"
           style="fill:#0000ff;stroke-width:0.80635" />
      </g>
    </g>
    <g
       fill="#000000"
       fill-opacity="1"
       id="id-7957613b-2c67-41af-b6b8-6b908807594f"
       transform="translate(-184.54497,-178.57892)"
       style="fill:#0000ff;stroke-width:0.650201">
      <g
         transform="translate(148.712,146.72)"
         id="g531"
         style="fill:#0000ff;stroke-width:0.80635">
        <path
           d="M 4.609375,-3.375 C 4.65625,-3.59375 4.75,-3.96875 4.75,-4.03125 c 0,-0.171875 -0.140625,-0.265625 -0.28125,-0.265625 -0.125,0 -0.296875,0.078125 -0.375,0.28125 -0.03125,0.0625 -0.5,1.96875 -0.5625,2.234375 C 3.453125,-1.484375 3.4375,-1.3125 3.4375,-1.125 c 0,0.109375 0,0.125 0.015625,0.171875 -0.234375,0.53125 -0.53125,0.84375 -0.921875,0.84375 -0.796875,0 -0.796875,-0.734375 -0.796875,-0.90625 0,-0.3125 0.046875,-0.703125 0.515625,-1.9375 0.109375,-0.296875 0.171875,-0.4375 0.171875,-0.640625 0,-0.4375 -0.328125,-0.8125 -0.8125,-0.8125 -0.953125,0 -1.3125,1.453125 -1.3125,1.53125 0,0.109375 0.09375,0.109375 0.109375,0.109375 0.109375,0 0.109375,-0.03125 0.15625,-0.1875 C 0.84375,-3.875 1.21875,-4.1875 1.578125,-4.1875 c 0.09375,0 0.25,0.015625 0.25,0.328125 0,0.25 -0.109375,0.53125 -0.1875,0.703125 -0.4375,1.171875 -0.546875,1.625 -0.546875,2.015625 0,0.90625 0.65625,1.25 1.40625,1.25 0.171875,0 0.640625,0 1.03125,-0.703125 0.265625,0.640625 0.953125,0.703125 1.25,0.703125 0.75,0 1.1875,-0.625 1.453125,-1.21875 0.328125,-0.78125 0.65625,-2.125 0.65625,-2.59375 0,-0.546875 -0.265625,-0.703125 -0.4375,-0.703125 -0.25,0 -0.5,0.265625 -0.5,0.484375 0,0.125 0.0625,0.1875 0.140625,0.265625 0.109375,0.109375 0.359375,0.359375 0.359375,0.84375 0,0.34375 -0.28125,1.3125 -0.546875,1.828125 -0.25,0.53125 -0.609375,0.875 -1.09375,0.875 -0.46875,0 -0.734375,-0.296875 -0.734375,-0.875 0,-0.265625 0.0625,-0.578125 0.109375,-0.71875 z m 0,0"
           id="id-30308978-c074-4862-99ca-e20f5762a624"
           style="fill:#0000ff;stroke-width:0.80635" />
      </g>
    </g>
    <g
       fill="#000000"
       fill-opacity="1"
       id="id-30e770bf-10e9-49bf-a16a-401d3e6cff8f"
       transform="translate(-184.54497,-178.57892)"
       style="fill:#0000ff;stroke-width:0.650201">
      <g
         transform="translate(155.845,148.214)"
         id="g535"
         style="fill:#0000ff;stroke-width:0.80635">
        <path
           d="M 3.59375,-2.21875 C 3.59375,-2.984375 3.5,-3.546875 3.1875,-4.03125 2.96875,-4.34375 2.53125,-4.625 1.984375,-4.625 c -1.625,0 -1.625,1.90625 -1.625,2.40625 0,0.5 0,2.359375 1.625,2.359375 1.609375,0 1.609375,-1.859375 1.609375,-2.359375 z M 1.984375,-0.0625 c -0.328125,0 -0.75,-0.1875 -0.890625,-0.75 C 1,-1.21875 1,-1.796875 1,-2.3125 1,-2.828125 1,-3.359375 1.09375,-3.734375 1.25,-4.28125 1.6875,-4.4375 1.984375,-4.4375 c 0.375,0 0.734375,0.234375 0.859375,0.640625 0.109375,0.375 0.125,0.875 0.125,1.484375 0,0.515625 0,1.03125 -0.09375,1.46875 -0.140625,0.640625 -0.609375,0.78125 -0.890625,0.78125 z m 0,0"
           id="id-49b9e961-d784-407c-befc-f3e55b081d6a"
           style="fill:#0000ff;stroke-width:0.80635" />
      </g>
    </g>
    <g
       fill="#000000"
       fill-opacity="1"
       id="id-c828c1e3-3e7e-42f1-8a1b-36907bc08532"
       transform="translate(-216.45217,-178.57892)"
       style="fill:#0000ff;stroke-width:0.650201">
      <g
         transform="translate(163.632,146.72)"
         id="g539"
         style="fill:#0000ff;stroke-width:0.80635">
        <path
           d="M 4.609375,-3.375 C 4.65625,-3.59375 4.75,-3.96875 4.75,-4.03125 c 0,-0.171875 -0.140625,-0.265625 -0.28125,-0.265625 -0.125,0 -0.296875,0.078125 -0.375,0.28125 -0.03125,0.0625 -0.5,1.96875 -0.5625,2.234375 C 3.453125,-1.484375 3.4375,-1.3125 3.4375,-1.125 c 0,0.109375 0,0.125 0.015625,0.171875 -0.234375,0.53125 -0.53125,0.84375 -0.921875,0.84375 -0.796875,0 -0.796875,-0.734375 -0.796875,-0.90625 0,-0.3125 0.046875,-0.703125 0.515625,-1.9375 0.109375,-0.296875 0.171875,-0.4375 0.171875,-0.640625 0,-0.4375 -0.328125,-0.8125 -0.8125,-0.8125 -0.953125,0 -1.3125,1.453125 -1.3125,1.53125 0,0.109375 0.09375,0.109375 0.109375,0.109375 0.109375,0 0.109375,-0.03125 0.15625,-0.1875 C 0.84375,-3.875 1.21875,-4.1875 1.578125,-4.1875 c 0.09375,0 0.25,0.015625 0.25,0.328125 0,0.25 -0.109375,0.53125 -0.1875,0.703125 -0.4375,1.171875 -0.546875,1.625 -0.546875,2.015625 0,0.90625 0.65625,1.25 1.40625,1.25 0.171875,0 0.640625,0 1.03125,-0.703125 0.265625,0.640625 0.953125,0.703125 1.25,0.703125 0.75,0 1.1875,-0.625 1.453125,-1.21875 0.328125,-0.78125 0.65625,-2.125 0.65625,-2.59375 0,-0.546875 -0.265625,-0.703125 -0.4375,-0.703125 -0.25,0 -0.5,0.265625 -0.5,0.484375 0,0.125 0.0625,0.1875 0.140625,0.265625 0.109375,0.109375 0.359375,0.359375 0.359375,0.84375 0,0.34375 -0.28125,1.3125 -0.546875,1.828125 -0.25,0.53125 -0.609375,0.875 -1.09375,0.875 -0.46875,0 -0.734375,-0.296875 -0.734375,-0.875 0,-0.265625 0.0625,-0.578125 0.109375,-0.71875 z m 0,0"
           id="id-b4852d8a-1674-43ef-9899-bd6d0d4df100"
           style="fill:#0000ff;stroke-width:0.80635" />
      </g>
    </g>
    <g
       fill="#000000"
       fill-opacity="1"
       id="id-45243fa8-480b-45ac-8e33-933613470ba8"
       transform="translate(-216.45217,-178.57892)"
       style="fill:#0000ff;stroke-width:0.650201">
      <g
         transform="translate(170.764,148.214)"
         id="g543"
         style="fill:#0000ff;stroke-width:0.80635">
        <path
           d="m 2.328125,-4.4375 c 0,-0.1875 0,-0.1875 -0.203125,-0.1875 -0.453125,0.4375 -1.078125,0.4375 -1.359375,0.4375 v 0.25 c 0.15625,0 0.625,0 1,-0.1875 v 3.546875 c 0,0.234375 0,0.328125 -0.6875,0.328125 H 0.8125 V 0 c 0.125,0 0.984375,-0.03125 1.234375,-0.03125 0.21875,0 1.09375,0.03125 1.25,0.03125 V -0.25 H 3.03125 c -0.703125,0 -0.703125,-0.09375 -0.703125,-0.328125 z m 0,0"
           id="id-475dd8ea-27a8-43ec-9ea3-729a7825c4ef"
           style="fill:#0000ff;stroke-width:0.80635" />
      </g>
    </g>
    <g
       fill="#000000"
       fill-opacity="1"
       id="id-feb733e3-e9bf-43db-a3ae-4ac8b3d61377"
       transform="translate(-237.96492,-161.93062)"
       style="fill:#0000ff;stroke-width:0.650201">
      <g
         transform="translate(178.551,146.72)"
         id="g547"
         style="fill:#0000ff;stroke-width:0.80635">
        <path
           d="M 4.609375,-3.375 C 4.65625,-3.59375 4.75,-3.96875 4.75,-4.03125 c 0,-0.171875 -0.140625,-0.265625 -0.28125,-0.265625 -0.125,0 -0.296875,0.078125 -0.375,0.28125 -0.03125,0.0625 -0.5,1.96875 -0.5625,2.234375 C 3.453125,-1.484375 3.4375,-1.3125 3.4375,-1.125 c 0,0.109375 0,0.125 0.015625,0.171875 -0.234375,0.53125 -0.53125,0.84375 -0.921875,0.84375 -0.796875,0 -0.796875,-0.734375 -0.796875,-0.90625 0,-0.3125 0.046875,-0.703125 0.515625,-1.9375 0.109375,-0.296875 0.171875,-0.4375 0.171875,-0.640625 0,-0.4375 -0.328125,-0.8125 -0.8125,-0.8125 -0.953125,0 -1.3125,1.453125 -1.3125,1.53125 0,0.109375 0.09375,0.109375 0.109375,0.109375 0.109375,0 0.109375,-0.03125 0.15625,-0.1875 C 0.84375,-3.875 1.21875,-4.1875 1.578125,-4.1875 c 0.09375,0 0.25,0.015625 0.25,0.328125 0,0.25 -0.109375,0.53125 -0.1875,0.703125 -0.4375,1.171875 -0.546875,1.625 -0.546875,2.015625 0,0.90625 0.65625,1.25 1.40625,1.25 0.171875,0 0.640625,0 1.03125,-0.703125 0.265625,0.640625 0.953125,0.703125 1.25,0.703125 0.75,0 1.1875,-0.625 1.453125,-1.21875 0.328125,-0.78125 0.65625,-2.125 0.65625,-2.59375 0,-0.546875 -0.265625,-0.703125 -0.4375,-0.703125 -0.25,0 -0.5,0.265625 -0.5,0.484375 0,0.125 0.0625,0.1875 0.140625,0.265625 0.109375,0.109375 0.359375,0.359375 0.359375,0.84375 0,0.34375 -0.28125,1.3125 -0.546875,1.828125 -0.25,0.53125 -0.609375,0.875 -1.09375,0.875 -0.46875,0 -0.734375,-0.296875 -0.734375,-0.875 0,-0.265625 0.0625,-0.578125 0.109375,-0.71875 z m 0,0"
           id="id-9b48e072-a712-47bb-b925-dd2c56066415"
           style="fill:#0000ff;stroke-width:0.80635" />
      </g>
    </g>
    <g
       fill="#000000"
       fill-opacity="1"
       id="id-602d84e4-42f5-44e9-acee-9151ad461e32"
       transform="translate(-237.96492,-161.93062)"
       style="fill:#0000ff;stroke-width:0.650201">
      <g
         transform="translate(185.683,148.214)"
         id="g551"
         style="fill:#0000ff;stroke-width:0.80635">
        <path
           d="M 3.515625,-1.265625 H 3.28125 c -0.015625,0.15625 -0.09375,0.5625 -0.1875,0.625 C 3.046875,-0.59375 2.515625,-0.59375 2.40625,-0.59375 H 1.125 c 0.734375,-0.640625 0.984375,-0.84375 1.390625,-1.171875 0.515625,-0.40625 1,-0.84375 1,-1.5 0,-0.84375 -0.734375,-1.359375 -1.625,-1.359375 -0.859375,0 -1.453125,0.609375 -1.453125,1.25 0,0.34375 0.296875,0.390625 0.375,0.390625 0.15625,0 0.359375,-0.125 0.359375,-0.375 0,-0.125 -0.046875,-0.375 -0.40625,-0.375 C 0.984375,-4.21875 1.453125,-4.375 1.78125,-4.375 c 0.703125,0 1.0625,0.546875 1.0625,1.109375 0,0.609375 -0.4375,1.078125 -0.65625,1.328125 L 0.515625,-0.265625 C 0.4375,-0.203125 0.4375,-0.1875 0.4375,0 h 2.875 z m 0,0"
           id="id-fb3a4eb6-e041-4e56-975a-1a84ee3a9665"
           style="fill:#0000ff;stroke-width:0.80635" />
      </g>
    </g>
    <g
       fill="#000000"
       fill-opacity="1"
       id="id-3cf79991-6663-4b67-9986-5b8cc597b537"
       transform="translate(-66.613687,-196.05301)"
       style="fill:#0000ff;stroke-width:0.650201">
      <g
         transform="translate(148.712,158.675)"
         id="g555"
         style="fill:#0000ff;stroke-width:0.80635">
        <path
           d="M 4.609375,-3.375 C 4.65625,-3.59375 4.75,-3.96875 4.75,-4.03125 c 0,-0.171875 -0.140625,-0.265625 -0.28125,-0.265625 -0.125,0 -0.296875,0.078125 -0.375,0.28125 -0.03125,0.0625 -0.5,1.96875 -0.5625,2.234375 C 3.453125,-1.484375 3.4375,-1.3125 3.4375,-1.125 c 0,0.109375 0,0.125 0.015625,0.171875 -0.234375,0.53125 -0.53125,0.84375 -0.921875,0.84375 -0.796875,0 -0.796875,-0.734375 -0.796875,-0.90625 0,-0.3125 0.046875,-0.703125 0.515625,-1.9375 0.109375,-0.296875 0.171875,-0.4375 0.171875,-0.640625 0,-0.4375 -0.328125,-0.8125 -0.8125,-0.8125 -0.953125,0 -1.3125,1.453125 -1.3125,1.53125 0,0.109375 0.09375,0.109375 0.109375,0.109375 0.109375,0 0.109375,-0.03125 0.15625,-0.1875 C 0.84375,-3.875 1.21875,-4.1875 1.578125,-4.1875 c 0.09375,0 0.25,0.015625 0.25,0.328125 0,0.25 -0.109375,0.53125 -0.1875,0.703125 -0.4375,1.171875 -0.546875,1.625 -0.546875,2.015625 0,0.90625 0.65625,1.25 1.40625,1.25 0.171875,0 0.640625,0 1.03125,-0.703125 0.265625,0.640625 0.953125,0.703125 1.25,0.703125 0.75,0 1.1875,-0.625 1.453125,-1.21875 0.328125,-0.78125 0.65625,-2.125 0.65625,-2.59375 0,-0.546875 -0.265625,-0.703125 -0.4375,-0.703125 -0.25,0 -0.5,0.265625 -0.5,0.484375 0,0.125 0.0625,0.1875 0.140625,0.265625 0.109375,0.109375 0.359375,0.359375 0.359375,0.84375 0,0.34375 -0.28125,1.3125 -0.546875,1.828125 -0.25,0.53125 -0.609375,0.875 -1.09375,0.875 -0.46875,0 -0.734375,-0.296875 -0.734375,-0.875 0,-0.265625 0.0625,-0.578125 0.109375,-0.71875 z m 0,0"
           id="id-e0aa1bcc-79b5-4ece-8fe0-eb89af1fa949"
           style="fill:#0000ff;stroke-width:0.80635" />
      </g>
    </g>
    <g
       fill="#000000"
       fill-opacity="1"
       id="id-8bfbaf88-3241-465b-b6c1-1630f9028b4b"
       transform="translate(-66.613687,-196.05301)"
       style="fill:#0000ff;stroke-width:0.650201">
      <g
         transform="translate(155.845,160.169)"
         id="g559"
         style="fill:#0000ff;stroke-width:0.80635">
        <path
           d="m 3.6875,-1.140625 v -0.25 H 2.90625 V -4.5 c 0,-0.140625 0,-0.203125 -0.140625,-0.203125 -0.09375,0 -0.125,0 -0.1875,0.109375 l -2.3125,3.203125 v 0.25 h 2.0625 v 0.5625 c 0,0.25 0,0.328125 -0.578125,0.328125 H 1.5625 V 0 C 1.921875,-0.015625 2.359375,-0.03125 2.609375,-0.03125 2.875,-0.03125 3.3125,-0.015625 3.671875,0 v -0.25 h -0.1875 C 2.90625,-0.25 2.90625,-0.328125 2.90625,-0.578125 v -0.5625 z M 2.375,-3.9375 v 2.546875 H 0.53125 Z m 0,0"
           id="id-58ac0e78-4cc9-4135-96c3-4e244b220ba8"
           style="fill:#0000ff;stroke-width:0.80635" />
      </g>
      <g
         transform="translate(159.813,160.169)"
         id="g562"
         style="fill:#0000ff;stroke-width:0.80635">
        <path
           d="m 1.046875,-2.28125 c 0,-0.5625 0.046875,-1.078125 0.3125,-1.515625 0.234375,-0.375 0.609375,-0.625 1.0625,-0.625 0.203125,0 0.484375,0.046875 0.625,0.234375 C 2.875,-4.171875 2.71875,-4.046875 2.71875,-3.84375 c 0,0.171875 0.125,0.328125 0.328125,0.328125 0.21875,0 0.34375,-0.140625 0.34375,-0.34375 0,-0.40625 -0.296875,-0.765625 -0.984375,-0.765625 -1,0 -2.03125,0.921875 -2.03125,2.421875 0,1.796875 0.84375,2.34375 1.625,2.34375 0.84375,0 1.578125,-0.65625 1.578125,-1.5625 0,-0.890625 -0.703125,-1.546875 -1.515625,-1.546875 -0.5625,0 -0.859375,0.375 -1.015625,0.6875 z M 2,-0.078125 c -0.359375,0 -0.625,-0.203125 -0.78125,-0.515625 C 1.125,-0.796875 1.0625,-1.15625 1.0625,-1.5625 c 0,-0.6875 0.40625,-1.203125 0.96875,-1.203125 0.3125,0 0.53125,0.125 0.703125,0.375 0.171875,0.265625 0.171875,0.5625 0.171875,0.96875 0,0.390625 0,0.6875 -0.1875,0.96875 -0.15625,0.234375 -0.390625,0.375 -0.71875,0.375 z m 0,0"
           id="id-d8efb9de-78d5-4d15-81ff-7c23a65e3680"
           style="fill:#0000ff;stroke-width:0.80635" />
      </g>
    </g>
    <g
       ns26:version="1.8.1"
       ns26:texconverter="xelatex"
       ns26:pdfconverter="inkscape"
       ns26:text="$\\lvert w \\rvert=46$"
       ns26:preamble="C:\Users\ChoCho\AppData\Roaming\inkscape\extensions\textext\default_packages.tex"
       ns26:scale="1.6"
       ns26:alignment="middle center"
       ns26:stroke-to-path="0"
       ns26:inkscapeversion="1.2"
       transform="matrix(0.95466635,0,0,0.95466635,-26.34872,-136.52115)"
       ns26:jacobian_sqrt="0.80635"
       id="g736"
       style="fill:#0000ff;stroke-width:0.681076">
      <defs
         id="id-8c5d877c-c451-44ae-978b-baf2b12e8024">
        <g
           id="id-50006dd6-b923-46e0-a9ff-9465d90d1bc7">
          <g
             id="id-23f1333f-d465-40e1-9bdc-7c8599726993" />
          <g
             id="id-539364e5-abe9-4be1-a71c-97433b0108fc">
            <path
               d="m 1.578125,-7.125 c 0,-0.171875 0,-0.359375 -0.1875,-0.359375 -0.203125,0 -0.203125,0.1875 -0.203125,0.359375 v 9.265625 c 0,0.171875 0,0.359375 0.203125,0.359375 0.1875,0 0.1875,-0.1875 0.1875,-0.359375 z m 0,0"
               id="id-c1718afe-2f12-4f57-854a-be14f662949f" />
          </g>
          <g
             id="id-5d188d53-0876-47b1-b3f9-3628863eecb2" />
          <g
             id="id-a8a83fe5-6804-4598-b7be-781d74485743">
            <path
               d="M 4.609375,-3.375 C 4.65625,-3.59375 4.75,-3.96875 4.75,-4.03125 c 0,-0.171875 -0.140625,-0.265625 -0.28125,-0.265625 -0.125,0 -0.296875,0.078125 -0.375,0.28125 -0.03125,0.0625 -0.5,1.96875 -0.5625,2.234375 C 3.453125,-1.484375 3.4375,-1.3125 3.4375,-1.125 c 0,0.109375 0,0.125 0.015625,0.171875 -0.234375,0.53125 -0.53125,0.84375 -0.921875,0.84375 -0.796875,0 -0.796875,-0.734375 -0.796875,-0.90625 0,-0.3125 0.046875,-0.703125 0.515625,-1.9375 0.109375,-0.296875 0.171875,-0.4375 0.171875,-0.640625 0,-0.4375 -0.328125,-0.8125 -0.8125,-0.8125 -0.953125,0 -1.3125,1.453125 -1.3125,1.53125 0,0.109375 0.09375,0.109375 0.109375,0.109375 0.109375,0 0.109375,-0.03125 0.15625,-0.1875 C 0.84375,-3.875 1.21875,-4.1875 1.578125,-4.1875 c 0.09375,0 0.25,0.015625 0.25,0.328125 0,0.25 -0.109375,0.53125 -0.1875,0.703125 -0.4375,1.171875 -0.546875,1.625 -0.546875,2.015625 0,0.90625 0.65625,1.25 1.40625,1.25 0.171875,0 0.640625,0 1.03125,-0.703125 0.265625,0.640625 0.953125,0.703125 1.25,0.703125 0.75,0 1.1875,-0.625 1.453125,-1.21875 0.328125,-0.78125 0.65625,-2.125 0.65625,-2.59375 0,-0.546875 -0.265625,-0.703125 -0.4375,-0.703125 -0.25,0 -0.5,0.265625 -0.5,0.484375 0,0.125 0.0625,0.1875 0.140625,0.265625 0.109375,0.109375 0.359375,0.359375 0.359375,0.84375 0,0.34375 -0.28125,1.3125 -0.546875,1.828125 -0.25,0.53125 -0.609375,0.875 -1.09375,0.875 -0.46875,0 -0.734375,-0.296875 -0.734375,-0.875 0,-0.265625 0.0625,-0.578125 0.109375,-0.71875 z m 0,0"
               id="id-f98dcd35-0d53-4752-ac01-2f15e866138e" />
          </g>
          <g
             id="id-b1b9a05f-9343-4ef0-81dd-c05237689f2c" />
          <g
             id="id-547e1010-0950-444e-8aaa-991e7a5e7b47">
            <path
               d="m 6.84375,-3.265625 c 0.15625,0 0.34375,0 0.34375,-0.1875 C 7.1875,-3.65625 7,-3.65625 6.859375,-3.65625 h -5.96875 c -0.140625,0 -0.328125,0 -0.328125,0.203125 0,0.1875 0.1875,0.1875 0.328125,0.1875 z m 0.015625,1.9375 c 0.140625,0 0.328125,0 0.328125,-0.203125 0,-0.1875 -0.1875,-0.1875 -0.34375,-0.1875 H 0.890625 c -0.140625,0 -0.328125,0 -0.328125,0.1875 0,0.203125 0.1875,0.203125 0.328125,0.203125 z m 0,0"
               id="id-771c20f5-cf8e-468a-87a5-c10cd6b8508a" />
          </g>
          <g
             id="id-c1ce2fc0-cd7c-4e1a-b805-ce08329a6516">
            <path
               d="m 2.9375,-1.640625 v 0.859375 c 0,0.359375 -0.03125,0.46875 -0.765625,0.46875 H 1.96875 V 0 C 2.375,-0.03125 2.890625,-0.03125 3.3125,-0.03125 c 0.421875,0 0.9375,0 1.359375,0.03125 v -0.3125 h -0.21875 c -0.734375,0 -0.75,-0.109375 -0.75,-0.46875 V -1.640625 H 4.6875 v -0.3125 H 3.703125 v -4.53125 c 0,-0.203125 0,-0.265625 -0.171875,-0.265625 -0.078125,0 -0.109375,0 -0.1875,0.125 l -3.0625,4.671875 v 0.3125 z m 0.046875,-0.3125 H 0.5625 l 2.421875,-3.71875 z m 0,0"
               id="id-b594a46a-cdef-48f8-9806-ea09ce612a0c" />
          </g>
          <g
             id="id-1713fd41-716b-4ade-a309-4b657dbee92a">
            <path
               d="m 1.3125,-3.265625 v -0.25 c 0,-2.515625 1.234375,-2.875 1.75,-2.875 0.234375,0 0.65625,0.0625 0.875,0.40625 -0.15625,0 -0.546875,0 -0.546875,0.4375 0,0.3125 0.234375,0.46875 0.453125,0.46875 0.15625,0 0.46875,-0.09375 0.46875,-0.484375 0,-0.59375 -0.4375,-1.078125 -1.265625,-1.078125 -1.28125,0 -2.625,1.28125 -2.625,3.484375 0,2.671875 1.15625,3.375 2.078125,3.375 1.109375,0 2.0625,-0.9375 2.0625,-2.25 0,-1.265625 -0.890625,-2.21875 -2,-2.21875 -0.671875,0 -1.046875,0.5 -1.25,0.984375 z M 2.5,-0.0625 c -0.625,0 -0.921875,-0.59375 -0.984375,-0.75 -0.1875,-0.46875 -0.1875,-1.265625 -0.1875,-1.4375 0,-0.78125 0.328125,-1.78125 1.21875,-1.78125 0.171875,0 0.625,0 0.9375,0.625 0.171875,0.359375 0.171875,0.875 0.171875,1.359375 0,0.484375 0,0.984375 -0.171875,1.34375 C 3.1875,-0.109375 2.734375,-0.0625 2.5,-0.0625 Z m 0,0"
               id="id-1e0ce330-38d6-4862-b392-5e253c564bc7" />
          </g>
        </g>
      </defs>
      <g
         fill="#000000"
         fill-opacity="1"
         id="id-65feb8b1-cacd-49ad-9f6a-13e2062def38"
         transform="translate(-149.9,-127.281)"
         style="fill:#0000ff;stroke-width:0.606182">
        <g
           transform="translate(148.712,134.765)"
           id="g714"
           style="fill:#0000ff;stroke-width:0.681076">
          <path
             d="m 1.578125,-7.125 c 0,-0.171875 0,-0.359375 -0.1875,-0.359375 -0.203125,0 -0.203125,0.1875 -0.203125,0.359375 v 9.265625 c 0,0.171875 0,0.359375 0.203125,0.359375 0.1875,0 0.1875,-0.1875 0.1875,-0.359375 z m 0,0"
             id="id-0ab6b15f-ca58-4955-b683-6bbc03045d4e"
             style="fill:#0000ff;stroke-width:0.681076" />
        </g>
      </g>
      <g
         fill="#000000"
         fill-opacity="1"
         id="id-8577b979-4b25-4396-982e-2a372a275675"
         transform="translate(-149.9,-127.281)"
         style="fill:#0000ff;stroke-width:0.606182">
        <g
           transform="translate(151.48,134.765)"
           id="g718"
           style="fill:#0000ff;stroke-width:0.681076">
          <path
             d="M 4.609375,-3.375 C 4.65625,-3.59375 4.75,-3.96875 4.75,-4.03125 c 0,-0.171875 -0.140625,-0.265625 -0.28125,-0.265625 -0.125,0 -0.296875,0.078125 -0.375,0.28125 -0.03125,0.0625 -0.5,1.96875 -0.5625,2.234375 C 3.453125,-1.484375 3.4375,-1.3125 3.4375,-1.125 c 0,0.109375 0,0.125 0.015625,0.171875 -0.234375,0.53125 -0.53125,0.84375 -0.921875,0.84375 -0.796875,0 -0.796875,-0.734375 -0.796875,-0.90625 0,-0.3125 0.046875,-0.703125 0.515625,-1.9375 0.109375,-0.296875 0.171875,-0.4375 0.171875,-0.640625 0,-0.4375 -0.328125,-0.8125 -0.8125,-0.8125 -0.953125,0 -1.3125,1.453125 -1.3125,1.53125 0,0.109375 0.09375,0.109375 0.109375,0.109375 0.109375,0 0.109375,-0.03125 0.15625,-0.1875 C 0.84375,-3.875 1.21875,-4.1875 1.578125,-4.1875 c 0.09375,0 0.25,0.015625 0.25,0.328125 0,0.25 -0.109375,0.53125 -0.1875,0.703125 -0.4375,1.171875 -0.546875,1.625 -0.546875,2.015625 0,0.90625 0.65625,1.25 1.40625,1.25 0.171875,0 0.640625,0 1.03125,-0.703125 0.265625,0.640625 0.953125,0.703125 1.25,0.703125 0.75,0 1.1875,-0.625 1.453125,-1.21875 0.328125,-0.78125 0.65625,-2.125 0.65625,-2.59375 0,-0.546875 -0.265625,-0.703125 -0.4375,-0.703125 -0.25,0 -0.5,0.265625 -0.5,0.484375 0,0.125 0.0625,0.1875 0.140625,0.265625 0.109375,0.109375 0.359375,0.359375 0.359375,0.84375 0,0.34375 -0.28125,1.3125 -0.546875,1.828125 -0.25,0.53125 -0.609375,0.875 -1.09375,0.875 -0.46875,0 -0.734375,-0.296875 -0.734375,-0.875 0,-0.265625 0.0625,-0.578125 0.109375,-0.71875 z m 0,0"
             id="id-14582b4e-0922-4687-9786-98854905def4"
             style="fill:#0000ff;stroke-width:0.681076" />
        </g>
      </g>
      <g
         fill="#000000"
         fill-opacity="1"
         id="id-6926059a-7cf2-4461-9b0d-b41f44f4b154"
         transform="translate(-149.9,-127.281)"
         style="fill:#0000ff;stroke-width:0.606182">
        <g
           transform="translate(158.88,134.765)"
           id="g722"
           style="fill:#0000ff;stroke-width:0.681076">
          <path
             d="m 1.578125,-7.125 c 0,-0.171875 0,-0.359375 -0.1875,-0.359375 -0.203125,0 -0.203125,0.1875 -0.203125,0.359375 v 9.265625 c 0,0.171875 0,0.359375 0.203125,0.359375 0.1875,0 0.1875,-0.1875 0.1875,-0.359375 z m 0,0"
             id="id-6cc5de5d-c4f5-4f19-903c-053566a29b45"
             style="fill:#0000ff;stroke-width:0.681076" />
        </g>
      </g>
      <g
         fill="#000000"
         fill-opacity="1"
         id="id-0f494c5b-4f69-4809-9b50-79026df0bc70"
         transform="translate(-149.9,-127.281)"
         style="fill:#0000ff;stroke-width:0.606182">
        <g
           transform="translate(164.415,134.765)"
           id="g726"
           style="fill:#0000ff;stroke-width:0.681076">
          <path
             d="m 6.84375,-3.265625 c 0.15625,0 0.34375,0 0.34375,-0.1875 C 7.1875,-3.65625 7,-3.65625 6.859375,-3.65625 h -5.96875 c -0.140625,0 -0.328125,0 -0.328125,0.203125 0,0.1875 0.1875,0.1875 0.328125,0.1875 z m 0.015625,1.9375 c 0.140625,0 0.328125,0 0.328125,-0.203125 0,-0.1875 -0.1875,-0.1875 -0.34375,-0.1875 H 0.890625 c -0.140625,0 -0.328125,0 -0.328125,0.1875 0,0.203125 0.1875,0.203125 0.328125,0.203125 z m 0,0"
             id="id-15136350-4d12-48da-b43b-797a96ec46f8"
             style="fill:#0000ff;stroke-width:0.681076" />
        </g>
      </g>
      <g
         fill="#000000"
         fill-opacity="1"
         id="id-5bcf0454-2ef0-414d-b8b9-9e4d5cc099f4"
         transform="translate(-149.9,-127.281)"
         style="fill:#0000ff;stroke-width:0.606182">
        <g
           transform="translate(174.916,134.765)"
           id="g730"
           style="fill:#0000ff;stroke-width:0.681076">
          <path
             d="m 2.9375,-1.640625 v 0.859375 c 0,0.359375 -0.03125,0.46875 -0.765625,0.46875 H 1.96875 V 0 C 2.375,-0.03125 2.890625,-0.03125 3.3125,-0.03125 c 0.421875,0 0.9375,0 1.359375,0.03125 v -0.3125 h -0.21875 c -0.734375,0 -0.75,-0.109375 -0.75,-0.46875 V -1.640625 H 4.6875 v -0.3125 H 3.703125 v -4.53125 c 0,-0.203125 0,-0.265625 -0.171875,-0.265625 -0.078125,0 -0.109375,0 -0.1875,0.125 l -3.0625,4.671875 v 0.3125 z m 0.046875,-0.3125 H 0.5625 l 2.421875,-3.71875 z m 0,0"
             id="id-24e28878-0000-48a4-b152-a091b42270fe"
             style="fill:#0000ff;stroke-width:0.681076" />
        </g>
        <g
           transform="translate(179.897,134.765)"
           id="g733"
           style="fill:#0000ff;stroke-width:0.681076">
          <path
             d="m 1.3125,-3.265625 v -0.25 c 0,-2.515625 1.234375,-2.875 1.75,-2.875 0.234375,0 0.65625,0.0625 0.875,0.40625 -0.15625,0 -0.546875,0 -0.546875,0.4375 0,0.3125 0.234375,0.46875 0.453125,0.46875 0.15625,0 0.46875,-0.09375 0.46875,-0.484375 0,-0.59375 -0.4375,-1.078125 -1.265625,-1.078125 -1.28125,0 -2.625,1.28125 -2.625,3.484375 0,2.671875 1.15625,3.375 2.078125,3.375 1.109375,0 2.0625,-0.9375 2.0625,-2.25 0,-1.265625 -0.890625,-2.21875 -2,-2.21875 -0.671875,0 -1.046875,0.5 -1.25,0.984375 z M 2.5,-0.0625 c -0.625,0 -0.921875,-0.59375 -0.984375,-0.75 -0.1875,-0.46875 -0.1875,-1.265625 -0.1875,-1.4375 0,-0.78125 0.328125,-1.78125 1.21875,-1.78125 0.171875,0 0.625,0 0.9375,0.625 0.171875,0.359375 0.171875,0.875 0.171875,1.359375 0,0.484375 0,0.984375 -0.171875,1.34375 C 3.1875,-0.109375 2.734375,-0.0625 2.5,-0.0625 Z m 0,0"
             id="id-d50f39ef-6711-466d-b053-4ff881eacf26"
             style="fill:#0000ff;stroke-width:0.681076" />
        </g>
      </g>
    </g>
  </g>
</svg>
