<?xml version="1.0" encoding="UTF-8" standalone="no"?>
<!-- Created with Inkscape (http://www.inkscape.org/) -->

<svg
   version="1.1"
   id="svg2"
   width="642.448"
   height="624.30225"
   viewBox="0 0 642.44799 624.30224"
   sodipodi:docname="Bridges-4.svg"
   inkscape:version="1.2 (dc2aedaf03, 2022-05-15)"
   xmlns:inkscape="http://www.inkscape.org/namespaces/inkscape"
   xmlns:sodipodi="http://sodipodi.sourceforge.net/DTD/sodipodi-0.dtd"
   xmlns="http://www.w3.org/2000/svg"
   xmlns:svg="http://www.w3.org/2000/svg">
  <defs
     id="defs6" />
  <sodipodi:namedview
     id="namedview4"
     pagecolor="#ffffff"
     bordercolor="#999999"
     borderopacity="1"
     inkscape:showpageshadow="0"
     inkscape:pageopacity="0"
     inkscape:pagecheckerboard="0"
     inkscape:deskcolor="#d1d1d1"
     showgrid="false"
     inkscape:zoom="0.30326394"
     inkscape:cx="311.60975"
     inkscape:cy="296.77119"
     inkscape:window-width="1920"
     inkscape:window-height="1017"
     inkscape:window-x="1358"
     inkscape:window-y="-8"
     inkscape:window-maximized="1"
     inkscape:current-layer="g10">
    <inkscape:page
       x="0"
       y="0"
       id="page8"
       width="642.448"
       height="624.30225" />
  </sodipodi:namedview>
  <g
     id="g10"
     inkscape:groupmode="layer"
     inkscape:label="Page 1"
     transform="matrix(1.3333333,0,0,-1.3333333,-187.88266,684.83198)">
    <g
       id="g12"
       transform="scale(0.1)">
      <path
         d="m 3324.38,461.973 -61.18,34.086 -12.27,38.668 -7.04,28.742 -23.05,23.652 -7.66,22.137 19.13,17.453 -6.61,28.199 10.93,18.375 12.39,21.168 -19.77,18.051 -0.25,22.605 -13,13.063 -26.13,11.219 -11.27,21.703 -27.5,7.476 -36.61,-9.871 -80.4,-49.633 30.85,69.532 -38.26,-0.293 -22.4,29.453 -3.67,30.84 -30.38,8.535 -31.23,7.805 -48.23,-24.118 -12.72,39.434 81.14,22.066 -22.22,38.051 37.83,9.711 -3.84,28.137 7.96,21.381 18.32,15.65 8.84,17.92 56.88,-47.9 47.86,14.75 -11.93,41.06 22.07,20.27 -7.48,23.25 4.08,19.71 1.57,19.77 -1.79,20.01 20.27,4.36 53.23,-45.03 -13.77,46.59 26.73,19.87 -28.97,17.39 -14.52,25.77 -20.7,16.32 -8.12,16.95 -8.02,17.92 0.74,16.22 26.59,9.73 22.66,7.5 10.16,17.87 10.74,10.54 -10.42,17.98 14.85,13.62 7.28,15.83 5.6,14.03 -13.24,11.4 -13.02,14.93 15.89,14.98 -22.76,7.34 -3.15,18.87 -5.8,14.07 -7.11,13.11 -8.68,12.18 -38.79,-34.1 -17.93,22.67 -19.37,8.97 10.62,24.29 23.92,15.08 2.43,22.06 -24.2,8.12 0.28,18.56 -2.72,13.93 26.28,6.08 0.13,19.54 34.05,-8.92 19.05,12.56 28.63,-6.62 21.14,8.92 28.64,-14.36 25.34,10.21 26.63,-12.23 31.52,-23.05 37.27,-47.58 47.5,-13.89 41.43,4.42 34.77,10.03 -4.04,40.61 30,11.51 16.62,21.85 21.91,10.98 3.22,18.09 -22.81,23.43 -26.75,24.07 31.37,13.57 17.3,16.43 -7.44,26.58 19.14,10.91 29.17,-10.97 30.27,1.11 1.51,26.92 12.72,16.4 30.29,-12.23 21.2,3.65 11.58,22.51 17.48,-42.33 35.63,17.84 26.89,4.63 -3.35,33.89 22.29,-5.87 24.68,14.03 23.93,-11.26 -23.9,29.34 25.6,25.88 31.16,2.3 30.62,-0.83 15.6,18.07 20.6,8.81 4.33,21.21 6.78,14.62 1.19,19.78 -24.61,8.23 -29.34,19.66 -32.47,13.01 11.24,25.77 7.14,19.18 -12.44,16.43 -0.93,18.84 -17.88,10.93 23.38,10.23 -27.22,16.37 -34,-5.68 -14.99,19.13 -28.71,0.99 26.22,27.34 77.98,-18.69 44.44,-10.56 4.7,30.23 -29.94,28.65 17.46,15.3 32.2,-5.35 2.63,18.89 13.14,17.28 14.71,6.99 4.71,16.33 -27.18,15.03 -44.81,-0.25 -21.07,5.21 12.56,31.92 1.56,20.14 -0.39,14.32 -7.48,13.23 -5.36,14.73 -10.13,11.47 -9.86,8.55 -16.17,8.96 -20.41,-21.03 -34.74,-22.43 -16.33,27.76 2.9,31.97 9.42,22.27 -23.88,7.79 -26.24,-25.74 -41.95,-30.54 -38.05,-30.28 -32.61,17.68 23.42,48.22 0.35,30.91 -8.33,19.45 -11.26,16.33 -23.54,1.71 -0.85,20.88 9.53,19.59 0.24,17.11 35.89,2.18 24.21,13.32 27.29,6.59 46.88,-22.51 35.35,1.42 29.66,18.28 -38.2,25.28 -4.74,28.78 -2.53,20.88 -4.42,17.37 -12.25,12.41 1.14,15.77 6.78,14.71 2.97,12.73 -14.43,7.84 -25.21,-0.91 20.59,17.04 -7.52,19.94 1.03,14.29 31.64,-11.95 32.8,-20.53 22.94,18.37 8.26,12.76 18.28,9.91 5.64,16.72 8.27,12.34 -24.78,12.95 -19.44,15.28 -9.62,11.33 -14.78,5.92 0.04,17.78 -8.13,14.4 -9.49,13.31 -40.84,-32.77 12.89,40.32 -11,13.69 1.53,15.53 17.2,10.92 -10.41,15.17 10.41,11.95 -7.35,12.21 1.82,11.13 7.8,9.79 13.31,7.09 9.35,7.53 1.2,11.54 2.41,13.5 6.27,8.56 19.86,-9.7 3.73,14.86 1.76,15.8 10.39,9.75 -0.78,13.51 -12.23,10.31 3.19,12.56 3.43,8.97 13.44,2.87 15.77,3.2 5.73,13.19 11.95,4.54 16.83,-11.33 6.48,-46.12 33.85,-22.51 34.8,8.33 21.92,0.05 -31.28,47.92 -50.74,37.74 6.98,23.94 20.28,9.1 19.15,2.96 21.77,3.09 19.05,-5.3 20.88,3.83 15.26,4.71 24.62,-32.38 16.01,17.55 18.72,-1.25 20.48,-4.12 22.61,-5.8 13.27,-20.3 -30.46,-79.86 71.34,-12.4 37.57,-4 29.56,5.31 29.79,-21.91 30.27,-13.08 26.42,-23.74 33.3,-11.54 27.27,19.42 26.96,-19.85 25.2,-35.06 30.9,21.54 18.78,-36.78 39.56,18.17 30.05,7.26 21.24,6.5 -0.94,38.71 16.12,24.89 -21,26.27 49.24,-34.73 11.5,36.14 -4.79,35.91 16.67,18.56 -4.44,23.84 -0.95,21.76 27.08,0.31 4.61,20.47 2.06,21.98 9.99,13.97 16.69,7.35 15.99,10.33 10.76,12.67 4.35,10.98 -1.17,18.69 -7.8,14.08 -4.22,20.78 -13.74,14.4 -6.74,17.07 -5.26,18.38 -4.29,14.31 -35.06,3.12 -21.71,13.79 2.15,22.63 -11.46,16.19 -16.59,13.38 -34.21,-11.75 19.95,37.15 0.01,15.55 -44.79,-4.5 -1.91,25.47 -31.17,0.31 -25.07,6.95 -38.06,-18.67 -17.96,29.19 -32.01,-24.27 -8.16,45.28 -5.33,23.92 17.37,20.43 -2.27,17.47 -46.89,-15.65 -6.34,19.85 -28.52,10.06 14.31,24.5 -3.82,16.48 -6.83,17.48 -17,5.65 20.52,20.5 -19.36,11.1 -1.58,11.44 -7.93,16.09 -19.52,3.83 -15.11,4.43 -20.04,0.94 1.51,16.71 -19.37,3.43 -25.24,-10.18 -17.1,12.48 -15.92,-1.8 -8.14,18.76 -19.12,5.18 -10.81,14.1 -20.36,-3.89 -0.21,20.45 -10.09,12.78 -6.24,8.93 -27.36,-15.92 -13.31,-40.72 -15.51,49.36 -30.83,-18.26 -26.75,-11.93 -22.92,0.62 -21.59,-23.11 -19.39,27.26 -16.79,11.4 4.09,25.3 -3.68,14.99 34.3,20.99 -4.7,24.24 3.58,17.43 -17.67,8.65 16.95,17.49 40.02,-1.21 8.82,22.75 5.17,20.68 -8.32,16.81 44.3,-36.39 32.81,24.07 30.72,-0.27 29.63,6.87 -2.5,31.11 -10.5,20.71 28.69,0.81 17.03,11.87 21.23,-7.21 8.21,26.93 24.02,-10.82 18.69,11.44 4.12,22.01 -5.11,17.19 -10.26,16.96 27.3,-0.28 9.16,15.63 -0.04,14.15 -12.5,11.28 -16.23,13.51 -6.17,13.52 -7.64,12.27 -34.56,-12.56 -30.3,0.54 -8.51,18.41 1.73,20.69 1.38,15.71 13.14,5.51 23.96,11.43 6.35,16.76 -35.62,6.69 19.72,14.32 13.55,10.46 25.6,-4.52 33.05,-21.67 32.68,-12.67 27.31,-0.76 22.1,4.32 14.08,13.82 20.21,-5.38 20.65,-18.73 14.53,24.96 -5.05,20.98 13.98,13.2 10.01,12.66 15.28,-2.47 19.79,4.24 9.79,5.46 17.71,5.92 -10.58,21.52 12.76,10.12 25.16,-38.75 13.69,16.91 12.37,15.45 22.16,-6.36 5.76,19.62 16.39,-3.09 16.3,2.49 16.35,2.07 2.31,16.89 16.81,6.17 10.75,7.33 -4,12.4 -29.18,14.35 -26.63,15.86 -5.33,19.31 9.68,16.86 12.88,11.59 -15.9,13.89 15.12,11.01 3.95,13.45 -16.87,10.48 -42.45,-15.09 -21.91,12.43 15.23,23.25 10.45,18.13 1.23,15.25 25.75,0.22 10.43,13.44 5.29,13.1 20.7,-8.1 18.05,5.2 11.89,9.53 7.64,10.86 4,11.98 -13.11,13.35 -19.36,10.12 -28.3,1.02 -23.19,7.48 -7.8,13.25 -1.52,16.31 -38.62,-27.49 -28.58,-0.95 -19.04,14.1 21.68,26.81 2.17,18.93 12.32,13.03 9.68,15.37 -14.54,2.9 -46.7,-31.3 -12.09,26.58 -1.66,19.09 -10.96,11.92 9.69,12.53 -5.99,15.94 10.27,7.9 -14.02,8.83 -19.79,3.22 7.09,17.69 -11.63,7.36 -6.22,11.41 -7.35,7.67 -7.84,9.14 -10.08,4.18 -4.66,11.9 -3.22,8.19 -1.81,10.12 -7.38,9.18 -20.66,-31.77 -23.99,-2.69 -16.36,9.35 -9.69,-31.98 -19.29,28.35 -26.15,-13.1 -21.15,-8 -19.62,-11.4 -20.96,0.66 -16.03,-9.6 -20.61,7.64 14.5,36.75 13.14,25.82 28.47,12.99 30.98,23.05 54.26,8.2 -22.89,26.19 -40.99,-4.67 -7.75,23.75 27.55,12.02"
         style="fill:none;stroke:#0000bf;stroke-width:16;stroke-linecap:round;stroke-linejoin:round;stroke-miterlimit:10;stroke-dasharray:none;stroke-opacity:1"
         id="path22" />
      <path
         d="M 1415.13,4490.18 H 6221.48"
         style="fill:none;stroke:#000000;stroke-width:8;stroke-linecap:round;stroke-linejoin:round;stroke-miterlimit:10;stroke-dasharray:67.6951, 67.6951;stroke-dashoffset:0;stroke-opacity:1"
         id="path24" />
      <path
         d="m 4648.91,4490.18 v 0"
         style="fill:none;stroke:#00ff00;stroke-width:72;stroke-linecap:round;stroke-linejoin:round;stroke-miterlimit:10;stroke-dasharray:none;stroke-opacity:1"
         id="path26" />
      <path
         d="M 1415.12,461.973 H 6221.48"
         style="fill:none;stroke:#000000;stroke-width:12;stroke-linecap:round;stroke-linejoin:round;stroke-miterlimit:10;stroke-dasharray:none;stroke-opacity:1"
         id="path28" />
    </g>
  </g>
</svg>
